{
.appVersion = "1192";
DisplayStrings = (
"AÁ/Abreve ÂÄÀ/Amacron/Aogonek ÅÃÆBC/Cacute/Ccaron ÇDÐ/Dcaron/Dcroat EÉ/Ecaron ÊË/Edotaccent/Edotbelow È/Emacron/Eogonek/Etilde FG/Gbreve/Gcommaaccent HIÍÎÏ/Idotaccent Ì/Imacron/Iogonek JK/Kcommaaccent L/Lacute/Lcaron/Lslash MN/Nacute/Ncaron/Ncommaaccent ÑOÓÔÖÒ/Ohungarumlaut/Omacron ØÕ/OE PÞQR/Racute/Rcaron/Rcommaaccent S/Sacute/Scaron/Scedilla T/Tcaron/Tcedilla UÚÛÜÙ/Uhungarumlaut/Umacron/Uogonek/Uring VW/Wacute/Wcircumflex/Wdieresis/Wgrave XYÝ/Ycircumflex/Ydieresis/Ygrave Z/Zacute/Zcaron/Zdotaccent aá/abreve âäà/amacron/aogonek åãæbc/cacute/ccaron çdð/dcaron/dcroat eé/ecaron êë/edotaccent/edotbelow è/emacron/eogonek/etilde fg/gbreve/gcommaaccent hi/idotless íîïì/imacron/iogonek j/jdotless k/kcommaaccent l/lacute/lcaron/lslash mn/nacute/ncaron/ncommaaccent ñoóôöò/ohungarumlaut/omacron øõ/oe pþqr/racute/rcaron/rcommaaccent s/sacute/scaron/scedilla ßt/tcaron/tcedilla uúûüù/uhungarumlaut/umacron/uogonek/uring vw/wacute/wcircumflex/wdieresis/wgrave xyý/ycircumflex/ydieresis/ygrave z/zacute/zcaron/zdotaccent/a.alt/aacute.alt/abreve.alt/acircumflex.alt/adieresis.alt/agrave.alt/amacron.alt/aogonek.alt/aring.alt/atilde.alt 0123456789.,:;/ellipsis !¡?¿·/bullet *#///backslash (){}[]-/endash/emdash _/quotedblbase/quotedblleft/quotedblright/quoteleft/quoteright «»/guilsinglleft/guilsinglright \"'/emspace/enspace/fourperemspace/narrownbspace/sixperemspace  /threeperemspace ¢$/euro £¥+/minus ×÷=><~^%/perthousand @&¶©®/trademark |/dotaccentcomb/commaaccentcomb ´/breve/caron ¸/circumflex ¨/dotaccent `/hungarumlaut ¯/ogonek/ring/tilde",
"AÁ/Abreve ÂÄÀ/Amacron/Aogonek ÅÃÆ"
);
copyright = "Copyright © 2016-2018 by Chris Simpson";
date = "2016-07-29 23:55:50 +0000";
designer = "Chris Simpson";
designerURL = "https://github.com/chrismsimpson/Metropolis";
familyName = Metropolis;
fontMaster = (
{
alignmentZones = (
"{795, 16}",
"{687, 16}",
"{517, 16}",
"{0, -16}",
"{-205, -16}"
);
ascender = 795;
capHeight = 687;
customValue = 5;

glyphs = (
{
color = 1;
glyphname = A;
lastChange = "2019-04-08 09:34:07 +0000";
layers = (
{
anchors = (
{
name = bottom;
position = "{662, 0}";
},
{
name = top;
position = "{460, 687}";
}
);
components = (
{
name = capital_V;
transform = "{-1, 0, 0, -1, 776, 687}";
}
);
layerId = "119329DF-C854-46E0-93EC-7E8A22DFCA4F";
paths = (
{
closed = 1;
nodes = (
"554 156 LINE",
"569 230 LINE",
"140 230 LINE",
"125 156 LINE"
);
}
);
width = 741;
},
{
anchors = (
{
name = bottom;
position = "{607, 0}";
},
{
name = top;
position = "{429, 687}";
}
);
components = (
{
name = capital_V;
transform = "{-1, 0, 0, -1, 711, 687}";
}
);
layerId = "84328D8E-4D54-44EF-AF5C-0364B1C28646";
paths = (
{
closed = 1;
nodes = (
"543 175 LINE",
"550 211 LINE",
"111 211 LINE",
"104 175 LINE"
);
}
);
width = 676;
},
{
anchors = (
{
name = bottom;
position = "{718, 0}";
},
{
name = top;
position = "{484, 687}";
}
);
components = (
{
name = capital_V;
transform = "{-1, 0, 0, -1, 834, 687}";
}
);
layerId = "88AF04C7-891B-4BE3-8AB1-6195D630646B";
paths = (
{
closed = 1;
nodes = (
"556 92 LINE",
"585 235 LINE",
"166 235 LINE",
"137 92 LINE"
);
}
);
width = 797;
},
{
anchors = (
{
name = bottom;
position = "{696, 0}";
},
{
name = top;
position = "{609, 687}";
}
);
associatedMasterId = "88AF04C7-891B-4BE3-8AB1-6195D630646B";
layerId = "8F57C8E0-29DB-4601-BEC1-AB6FC881D234";
name = bubble;
paths = (
{
closed = 1;
nodes = (
"743 0 LINE",
"757 687 LINE",
"218 687 LINE",
"-54 0 LINE"
);
}
);
width = 797;
},
{
anchors = (
{
name = bottom;
position = "{554, 0}";
},
{
name = top;
position = "{494, 687}";
}
);
associatedMasterId = "119329DF-C854-46E0-93EC-7E8A22DFCA4F";
layerId = "CDEB4AF4-768B-4FDF-82C6-1A9F2AE4275F";
name = bubble;
paths = (
{
closed = 1;
nodes = (
"687 0 LINE",
"662 687 LINE",
"257 687 LINE",
"-54 0 LINE"
);
}
);
width = 741;
},
{
anchors = (
{
name = bottom;
position = "{607, 0}";
},
{
name = top;
position = "{427, 687}";
}
);
associatedMasterId = "84328D8E-4D54-44EF-AF5C-0364B1C28646";
layerId = "C239D87F-4F44-475C-9F05-CDD197497C07";
name = bubble;
paths = (
{
closed = 1;
nodes = (
"622 0 LINE",
"603 687 LINE",
"253 687 LINE",
"-54 0 LINE"
);
}
);
width = 676;
}
);
leftKerningGroup = A;
rightKerningGroup = A;
unicode = 0041;
},
{
color = 1;
glyphname = AE;
lastChange = "2019-04-08 11:29:08 +0000";
layers = (
{
anchors = (
{
name = bottom;
position = "{600, 0}";
}
);
layerId = "84328D8E-4D54-44EF-AF5C-0364B1C28646";
paths = (
{
closed = 1;
nodes = (
"-5 0 LINE",
"132 175 LINE",
"405 175 LINE",
"369 0 LINE",
"820 0 LINE",
"828 36 LINE",
"413 36 LINE",
"474 332 LINE",
"859 332 LINE",
"866 368 LINE",
"482 368 LINE",
"540 651 LINE",
"956 651 LINE",
"963 687 LINE",
"492 687 LINE",
"-48 0 LINE"
);
},
{
closed = 1;
nodes = (
"504 649 LINE",
"413 211 LINE",
"161 211 LINE"
);
}
);
width = 929;
},
{
anchors = (
{
name = bottom;
position = "{598, 0}";
}
);
layerId = "119329DF-C854-46E0-93EC-7E8A22DFCA4F";
paths = (
{
closed = 1;
nodes = (
"60 0 LINE",
"182 156 LINE",
"390 156 LINE",
"358 0 LINE",
"851 0 LINE",
"867 74 LINE",
"454 74 LINE",
"502 313 LINE",
"876 313 LINE",
"891 387 LINE",
"519 387 LINE",
"564 613 LINE",
"979 613 LINE",
"994 687 LINE",
"501 687 LINE",
"-33 0 LINE"
);
},
{
closed = 1;
nodes = (
"466 517 LINE",
"406 230 LINE",
"240 230 LINE"
);
}
);
width = 961;
},
{
anchors = (
{
name = bottom;
position = "{704, 0}";
}
);
layerId = "88AF04C7-891B-4BE3-8AB1-6195D630646B";
paths = (
{
closed = 1;
nodes = (
"199 0 LINE",
"271 92 LINE",
"442 92 LINE",
"423 0 LINE",
"976 0 LINE",
"1012 173 LINE",
"654 173 LINE",
"672 264 LINE",
"999 264 LINE",
"1035 437 LINE",
"709 437 LINE",
"724 514 LINE",
"1083 514 LINE",
"1119 687 LINE",
"511 687 LINE",
"-29 0 LINE"
);
},
{
closed = 1;
nodes = (
"504 388 LINE",
"472 235 LINE",
"384 235 LINE"
);
}
);
width = 1086;
},
{
anchors = (
{
name = bottom;
position = "{492, 0}";
}
);
associatedMasterId = "84328D8E-4D54-44EF-AF5C-0364B1C28646";
layerId = "95C16580-F48D-4E80-A317-2FC53986FD79";
name = bubble;
paths = (
{
closed = 1;
nodes = (
"875 0 LINE",
"1018 687 LINE",
"481 687 LINE",
"-54 0 LINE"
);
}
);
width = 929;
},
{
associatedMasterId = "119329DF-C854-46E0-93EC-7E8A22DFCA4F";
layerId = "E28A6315-A2BD-4A57-B030-3A2D54583B8E";
name = bubble;
paths = (
{
closed = 1;
nodes = (
"907 0 LINE",
"1050 687 LINE",
"474 687 LINE",
"-54 0 LINE"
);
}
);
width = 961;
},
{
anchors = (
{
name = bottom;
position = "{652, 0}";
}
);
associatedMasterId = "88AF04C7-891B-4BE3-8AB1-6195D630646B";
layerId = "2415BB59-2646-456C-A3F2-DAB4CDB522E3";
name = bubble;
paths = (
{
closed = 1;
nodes = (
"1032 1 LINE",
"1174 687 LINE",
"479 687 LINE",
"-54 0 LINE"
);
}
);
width = 1086;
}
);
leftKerningGroup = A;
rightKerningGroup = E;
unicode = 00C6;
},
{
color = 1;
glyphname = B;
lastChange = "2018-09-01 04:20:13 +0000";
layers = (
{
layerId = "119329DF-C854-46E0-93EC-7E8A22DFCA4F";
paths = (
{
closed = 1;
nodes = (
"385 0 LINE SMOOTH",
"517 0 OFFCURVE",
"628 101 OFFCURVE",
"628 220 CURVE SMOOTH",
"628 273 OFFCURVE",
"590 332 OFFCURVE",
"537 362 CURVE",
"621 405 OFFCURVE",
"670 474 OFFCURVE",
"670 547 CURVE SMOOTH",
"670 629 OFFCURVE",
"604 687 OFFCURVE",
"511 687 CURVE SMOOTH",
"198 687 LINE",
"55 0 LINE"
);
},
{
closed = 1;
nodes = (
"201 325 LINE",
"433 325 LINE SMOOTH",
"503 325 OFFCURVE",
"553 285 OFFCURVE",
"553 229 CURVE SMOOTH",
"553 143 OFFCURVE",
"471 71 OFFCURVE",
"374 71 CURVE SMOOTH",
"148 71 LINE"
);
},
{
closed = 1;
nodes = (
"262 616 LINE",
"481 616 LINE SMOOTH",
"544 616 OFFCURVE",
"589 582 OFFCURVE",
"589 533 CURVE SMOOTH",
"589 459 OFFCURVE",
"516 396 OFFCURVE",
"430 396 CURVE SMOOTH",
"216 396 LINE"
);
}
);
width = 702;
},
{
layerId = "84328D8E-4D54-44EF-AF5C-0364B1C28646";
paths = (
{
closed = 1;
nodes = (
"373 0 LINE SMOOTH",
"503 0 OFFCURVE",
"618 99 OFFCURVE",
"618 221 CURVE SMOOTH",
"618 284 OFFCURVE",
"583 338 OFFCURVE",
"527 357 CURVE",
"601 381 OFFCURVE",
"659 471 OFFCURVE",
"659 550 CURVE SMOOTH",
"659 632 OFFCURVE",
"598 687 OFFCURVE",
"501 687 CURVE SMOOTH",
"215 687 LINE",
"72 0 LINE"
);
},
{
closed = 1;
nodes = (
"179 340 LINE",
"444 340 LINE SMOOTH",
"530 340 OFFCURVE",
"582 293 OFFCURVE",
"582 223 CURVE SMOOTH",
"582 120 OFFCURVE",
"489 36 OFFCURVE",
"377 36 CURVE SMOOTH",
"116 36 LINE"
);
},
{
closed = 1;
nodes = (
"244 651 LINE",
"496 651 LINE SMOOTH",
"574 651 OFFCURVE",
"623 609 OFFCURVE",
"623 548 CURVE SMOOTH",
"623 458 OFFCURVE",
"545 376 OFFCURVE",
"448 376 CURVE SMOOTH",
"187 376 LINE"
);
}
);
width = 705;
},
{
layerId = "88AF04C7-891B-4BE3-8AB1-6195D630646B";
paths = (
{
closed = 1;
nodes = (
"410 0 LINE SMOOTH",
"554 0 OFFCURVE",
"683 76 OFFCURVE",
"683 209 CURVE SMOOTH",
"683 274 OFFCURVE",
"647 328 OFFCURVE",
"590 354 CURVE",
"667 388 OFFCURVE",
"719 455 OFFCURVE",
"719 534 CURVE SMOOTH",
"719 623 OFFCURVE",
"642 687 OFFCURVE",
"526 687 CURVE SMOOTH",
"162 687 LINE",
"19 0 LINE"
);
},
{
closed = 1;
nodes = (
"269 273 LINE",
"434 273 LINE SMOOTH",
"476 273 OFFCURVE",
"493 263 OFFCURVE",
"493 239 CURVE SMOOTH",
"493 194 OFFCURVE",
"454 163 OFFCURVE",
"399 163 CURVE SMOOTH",
"246 163 LINE"
);
},
{
closed = 1;
nodes = (
"321 524 LINE",
"458 524 LINE SMOOTH",
"497 524 OFFCURVE",
"513 515 OFFCURVE",
"514 493 CURVE SMOOTH",
"514 450 OFFCURVE",
"477 420 OFFCURVE",
"424 420 CURVE SMOOTH",
"300 420 LINE"
);
}
);
width = 734;
}
);
leftKerningGroup = B;
rightKerningGroup = B;
unicode = 0042;
},
{
color = 1;
glyphname = C;
lastChange = "2018-09-01 04:20:13 +0000";
layers = (
{
anchors = (
{
name = bottom;
position = "{359, 0}";
},
{
name = top;
position = "{499, 687}";
}
);
layerId = "119329DF-C854-46E0-93EC-7E8A22DFCA4F";
paths = (
{
closed = 1;
nodes = (
"440 -12 OFFCURVE",
"551 31 OFFCURVE",
"624 91 CURVE",
"579 149 LINE",
"520 97 OFFCURVE",
"434 60 OFFCURVE",
"371 60 CURVE SMOOTH",
"250 60 OFFCURVE",
"148 161 OFFCURVE",
"148 280 CURVE SMOOTH",
"148 468 OFFCURVE",
"304 627 OFFCURVE",
"490 627 CURVE SMOOTH",
"556 627 OFFCURVE",
"628 592 OFFCURVE",
"665 542 CURVE",
"726 592 LINE",
"676 655 OFFCURVE",
"585 699 OFFCURVE",
"505 699 CURVE SMOOTH",
"269 699 OFFCURVE",
"70 507 OFFCURVE",
"70 280 CURVE SMOOTH",
"70 121 OFFCURVE",
"201 -12 OFFCURVE",
"357 -12 CURVE SMOOTH"
);
}
);
width = 696;
},
{
anchors = (
{
name = bottom;
position = "{354, 0}";
},
{
name = top;
position = "{493, 687}";
}
);
layerId = "84328D8E-4D54-44EF-AF5C-0364B1C28646";
paths = (
{
closed = 1;
nodes = (
"446 -12 OFFCURVE",
"554 33 OFFCURVE",
"626 92 CURVE",
"603 120 LINE",
"537 64 OFFCURVE",
"438 24 OFFCURVE",
"358 24 CURVE SMOOTH",
"226 24 OFFCURVE",
"107 134 OFFCURVE",
"107 289 CURVE SMOOTH",
"107 481 OFFCURVE",
"291 663 OFFCURVE",
"490 663 CURVE SMOOTH",
"584 663 OFFCURVE",
"657 622 OFFCURVE",
"699 570 CURVE",
"728 593 LINE",
"677 655 OFFCURVE",
"593 699 OFFCURVE",
"491 699 CURVE SMOOTH",
"273 699 OFFCURVE",
"71 499 OFFCURVE",
"71 286 CURVE SMOOTH",
"71 110 OFFCURVE",
"208 -12 OFFCURVE",
"356 -12 CURVE SMOOTH"
);
}
);
width = 697;
},
{
anchors = (
{
name = bottom;
position = "{356, 0}";
},
{
name = top;
position = "{496, 687}";
}
);
layerId = "88AF04C7-891B-4BE3-8AB1-6195D630646B";
paths = (
{
closed = 1;
nodes = (
"469 -12 OFFCURVE",
"590 36 OFFCURVE",
"666 104 CURVE",
"543 240 LINE",
"501 195 OFFCURVE",
"434 164 OFFCURVE",
"383 164 CURVE SMOOTH",
"317 164 OFFCURVE",
"252 215 OFFCURVE",
"252 302 CURVE SMOOTH",
"252 414 OFFCURVE",
"361 523 OFFCURVE",
"476 523 CURVE SMOOTH",
"533 523 OFFCURVE",
"575 496 OFFCURVE",
"597 459 CURVE",
"757 573 LINE",
"702 645 OFFCURVE",
"603 699 OFFCURVE",
"485 699 CURVE SMOOTH",
"262 699 OFFCURVE",
"55 508 OFFCURVE",
"55 298 CURVE SMOOTH",
"55 123 OFFCURVE",
"198 -12 OFFCURVE",
"368 -12 CURVE SMOOTH"
);
}
);
width = 727;
}
);
leftKerningGroup = C;
rightKerningGroup = C;
unicode = 0043;
},
{
color = 1;
glyphname = D;
lastChange = "2018-09-01 04:20:13 +0000";
layers = (
{
anchors = (
{
name = top;
position = "{428, 687}";
}
);
layerId = "119329DF-C854-46E0-93EC-7E8A22DFCA4F";
paths = (
{
closed = 1;
nodes = (
"290 0 LINE SMOOTH",
"533 0 OFFCURVE",
"738 189 OFFCURVE",
"738 414 CURVE SMOOTH",
"738 574 OFFCURVE",
"610 687 OFFCURVE",
"428 687 CURVE SMOOTH",
"198 687 LINE",
"55 0 LINE"
);
},
{
closed = 1;
nodes = (
"262 616 LINE",
"418 616 LINE SMOOTH",
"559 616 OFFCURVE",
"659 530 OFFCURVE",
"659 409 CURVE SMOOTH",
"659 226 OFFCURVE",
"494 71 OFFCURVE",
"299 71 CURVE SMOOTH",
"148 71 LINE"
);
}
);
width = 769;
},
{
anchors = (
{
name = top;
position = "{449, 687}";
}
);
layerId = "84328D8E-4D54-44EF-AF5C-0364B1C28646";
paths = (
{
closed = 1;
nodes = (
"309 0 LINE SMOOTH",
"542 0 OFFCURVE",
"739 192 OFFCURVE",
"739 421 CURVE SMOOTH",
"739 577 OFFCURVE",
"619 687 OFFCURVE",
"449 687 CURVE SMOOTH",
"215 687 LINE",
"72 0 LINE"
);
},
{
closed = 1;
nodes = (
"244 651 LINE",
"444 651 LINE SMOOTH",
"596 651 OFFCURVE",
"703 554 OFFCURVE",
"703 416 CURVE SMOOTH",
"703 210 OFFCURVE",
"525 36 OFFCURVE",
"313 36 CURVE SMOOTH",
"116 36 LINE"
);
}
);
width = 772;
},
{
anchors = (
{
name = top;
position = "{412, 687}";
}
);
layerId = "88AF04C7-891B-4BE3-8AB1-6195D630646B";
paths = (
{
closed = 1;
nodes = (
"282 0 LINE SMOOTH",
"543 0 OFFCURVE",
"762 183 OFFCURVE",
"762 400 CURVE SMOOTH",
"762 568 OFFCURVE",
"617 687 OFFCURVE",
"412 687 CURVE SMOOTH",
"162 687 LINE",
"19 0 LINE"
);
},
{
closed = 1;
nodes = (
"320 511 LINE",
"420 511 LINE SMOOTH",
"504 511 OFFCURVE",
"564 462 OFFCURVE",
"564 393 CURVE SMOOTH",
"564 275 OFFCURVE",
"461 176 OFFCURVE",
"338 176 CURVE SMOOTH",
"250 176 LINE"
);
}
);
width = 778;
}
);
leftKerningGroup = B;
rightKerningGroup = D;
unicode = 0044;
},
{
color = 1;
glyphname = Eth;
lastChange = "2018-05-28 05:36:35 +0000";
layers = (
{
components = (
{
name = D;
transform = "{1, 0, 0, 1, 61, 0}";
}
);
layerId = "84328D8E-4D54-44EF-AF5C-0364B1C28646";
paths = (
{
closed = 1;
nodes = (
"436 332 LINE",
"444 368 LINE",
"95 368 LINE",
"88 332 LINE"
);
}
);
width = 851;
},
{
components = (
{
name = D;
transform = "{1, 0, 0, 1, 33, 0}";
}
);
layerId = "119329DF-C854-46E0-93EC-7E8A22DFCA4F";
paths = (
{
closed = 1;
nodes = (
"419 313 LINE",
"435 387 LINE",
"86 387 LINE",
"71 313 LINE"
);
}
);
width = 807;
},
{
components = (
{
name = D;
transform = "{1, 0, 0, 1, 51, 0}";
}
);
layerId = "88AF04C7-891B-4BE3-8AB1-6195D630646B";
paths = (
{
closed = 1;
nodes = (
"431 258 LINE",
"468 431 LINE",
"69 431 LINE",
"33 258 LINE"
);
}
);
width = 818;
}
);
leftKerningGroup = B;
rightKerningGroup = D;
unicode = 00D0;
},
{
color = 1;
glyphname = E;
lastChange = "2018-09-01 04:20:13 +0000";
layers = (
{
anchors = (
{
name = ae_upper;
position = "{198, 687}";
},
{
name = bottom;
position = "{548, 0}";
},
{
name = top;
position = "{450, 687}";
}
);
layerId = "119329DF-C854-46E0-93EC-7E8A22DFCA4F";
paths = (
{
closed = 1;
nodes = (
"548 0 LINE",
"564 74 LINE",
"131 74 LINE",
"147 54 LINE",
"203 333 LINE",
"179 313 LINE",
"573 313 LINE",
"588 387 LINE",
"196 387 LINE",
"212 367 LINE",
"265 633 LINE",
"241 613 LINE",
"676 613 LINE",
"691 687 LINE",
"198 687 LINE",
"55 0 LINE"
);
}
);
width = 658;
},
{
anchors = (
{
name = ae_upper;
position = "{215, 687}";
},
{
name = bottom;
position = "{523, 0}";
},
{
name = top;
position = "{443, 687}";
}
);
layerId = "84328D8E-4D54-44EF-AF5C-0364B1C28646";
paths = (
{
closed = 1;
nodes = (
"523 0 LINE",
"531 36 LINE",
"107 36 LINE",
"114 26 LINE",
"179 342 LINE",
"168 332 LINE",
"562 332 LINE",
"569 368 LINE",
"177 368 LINE",
"183 358 LINE",
"245 661 LINE",
"234 651 LINE",
"659 651 LINE",
"666 687 LINE",
"215 687 LINE",
"72 0 LINE"
);
}
);
width = 632;
},
{
anchors = (
{
name = ae_upper;
position = "{162, 687}";
},
{
name = bottom;
position = "{572, 0}";
},
{
name = top;
position = "{435, 687}";
}
);
layerId = "88AF04C7-891B-4BE3-8AB1-6195D630646B";
paths = (
{
closed = 1;
nodes = (
"572 0 LINE",
"608 173 LINE",
"157 173 LINE",
"227 54 LINE",
"281 333 LINE",
"172 264 LINE",
"595 264 LINE",
"631 437 LINE",
"211 437 LINE",
"292 367 LINE",
"343 633 LINE",
"223 514 LINE",
"679 514 LINE",
"715 687 LINE",
"162 687 LINE",
"19 0 LINE"
);
}
);
width = 682;
}
);
leftKerningGroup = B;
rightKerningGroup = E;
unicode = 0045;
},
{
color = 1;
glyphname = F;
lastChange = "2018-09-01 04:20:13 +0000";
layers = (
{
layerId = "119329DF-C854-46E0-93EC-7E8A22DFCA4F";
paths = (
{
closed = 1;
nodes = (
"134 0 LINE",
"203 333 LINE",
"179 313 LINE",
"573 313 LINE",
"588 387 LINE",
"196 387 LINE",
"212 367 LINE",
"265 633 LINE",
"241 613 LINE",
"676 613 LINE",
"691 687 LINE",
"198 687 LINE",
"55 0 LINE"
);
}
);
width = 639;
},
{
layerId = "84328D8E-4D54-44EF-AF5C-0364B1C28646";
paths = (
{
closed = 1;
nodes = (
"108 0 LINE",
"179 342 LINE",
"167 332 LINE",
"572 332 LINE",
"579 368 LINE",
"176 368 LINE",
"183 358 LINE",
"245 661 LINE",
"233 651 LINE",
"679 651 LINE",
"686 687 LINE",
"215 687 LINE",
"72 0 LINE"
);
}
);
width = 620;
},
{
layerId = "88AF04C7-891B-4BE3-8AB1-6195D630646B";
paths = (
{
closed = 1;
nodes = (
"213 0 LINE",
"277 313 LINE",
"167 244 LINE",
"591 244 LINE",
"627 417 LINE",
"207 417 LINE",
"287 347 LINE",
"343 633 LINE",
"223 514 LINE",
"679 514 LINE",
"715 687 LINE",
"162 687 LINE",
"19 0 LINE"
);
}
);
width = 668;
}
);
leftKerningGroup = B;
rightKerningGroup = F;
unicode = 0046;
},
{
color = 1;
glyphname = G;
lastChange = "2018-09-01 04:46:20 +0000";
layers = (
{
anchors = (
{
name = bottom;
position = "{356, 0}";
},
{
name = top;
position = "{496, 687}";
}
);
layerId = "119329DF-C854-46E0-93EC-7E8A22DFCA4F";
paths = (
{
closed = 1;
nodes = (
"446 -12 OFFCURVE",
"561 31 OFFCURVE",
"634 91 CURVE",
"589 149 LINE",
"530 97 OFFCURVE",
"440 60 OFFCURVE",
"371 60 CURVE SMOOTH",
"250 60 OFFCURVE",
"148 161 OFFCURVE",
"148 280 CURVE SMOOTH",
"148 468 OFFCURVE",
"304 627 OFFCURVE",
"490 627 CURVE SMOOTH",
"562 627 OFFCURVE",
"638 592 OFFCURVE",
"675 542 CURVE",
"736 592 LINE",
"686 655 OFFCURVE",
"591 699 OFFCURVE",
"505 699 CURVE SMOOTH",
"269 699 OFFCURVE",
"70 507 OFFCURVE",
"70 280 CURVE SMOOTH",
"70 121 OFFCURVE",
"201 -12 OFFCURVE",
"357 -12 CURVE SMOOTH"
);
},
{
closed = 1;
nodes = (
"634 91 LINE",
"690 360 LINE",
"415 360 LINE",
"399 286 LINE",
"627 286 LINE",
"604 327 LINE",
"556 91 LINE"
);
}
);
width = 744;
},
{
anchors = (
{
name = bottom;
position = "{357, 0}";
},
{
name = top;
position = "{497, 687}";
}
);
layerId = "84328D8E-4D54-44EF-AF5C-0364B1C28646";
paths = (
{
closed = 1;
nodes = (
"457 -12 OFFCURVE",
"559 27 OFFCURVE",
"641 90 CURVE",
"619 117 LINE",
"545 60 OFFCURVE",
"452 24 OFFCURVE",
"359 24 CURVE SMOOTH",
"209 24 OFFCURVE",
"105 135 OFFCURVE",
"105 279 CURVE SMOOTH",
"105 475 OFFCURVE",
"301 663 OFFCURVE",
"497 663 CURVE SMOOTH",
"588 663 OFFCURVE",
"665 629 OFFCURVE",
"716 572 CURVE",
"745 596 LINE",
"688 659 OFFCURVE",
"602 699 OFFCURVE",
"499 699 CURVE SMOOTH",
"282 699 OFFCURVE",
"69 492 OFFCURVE",
"69 275 CURVE SMOOTH",
"69 113 OFFCURVE",
"188 -12 OFFCURVE",
"357 -12 CURVE SMOOTH"
);
},
{
closed = 1;
nodes = (
"641 90 LINE",
"693 340 LINE",
"418 340 LINE",
"411 304 LINE",
"664 304 LINE",
"653 324 LINE",
"605 90 LINE"
);
}
);
width = 761;
},
{
anchors = (
{
name = bottom;
position = "{370, 0}";
},
{
name = top;
position = "{500, 687}";
}
);
layerId = "88AF04C7-891B-4BE3-8AB1-6195D630646B";
paths = (
{
closed = 1;
nodes = (
"477 -12 OFFCURVE",
"588 27 OFFCURVE",
"675 104 CURVE",
"552 240 LINE",
"509 196 OFFCURVE",
"448 164 OFFCURVE",
"387 164 CURVE SMOOTH",
"307 164 OFFCURVE",
"251 221 OFFCURVE",
"251 296 CURVE SMOOTH",
"251 405 OFFCURVE",
"368 523 OFFCURVE",
"487 523 CURVE SMOOTH",
"535 523 OFFCURVE",
"581 503 OFFCURVE",
"606 459 CURVE",
"766 573 LINE",
"709 649 OFFCURVE",
"613 699 OFFCURVE",
"498 699 CURVE SMOOTH",
"279 699 OFFCURVE",
"54 511 OFFCURVE",
"54 290 CURVE SMOOTH",
"54 121 OFFCURVE",
"188 -12 OFFCURVE",
"375 -12 CURVE SMOOTH"
);
},
{
closed = 1;
nodes = (
"675 104 LINE",
"736 396 LINE",
"414 396 LINE",
"384 253 LINE",
"545 253 LINE",
"522 282 LINE",
"487 104 LINE"
);
}
);
width = 757;
},
{
anchors = (
{
name = bottom;
position = "{249, 0}";
},
{
name = top;
position = "{532, 687}";
}
);
associatedMasterId = "84328D8E-4D54-44EF-AF5C-0364B1C28646";
layerId = "39B90F81-F6B1-4BE5-8C1E-04B722264A67";
name = bubble;
paths = (
{
closed = 1;
nodes = (
"-29 120 OFFCURVE",
"119 -70 OFFCURVE",
"344 -70 CURVE SMOOTH",
"477 -70 OFFCURVE",
"618 -10 OFFCURVE",
"726 92 CURVE",
"828 592 LINE",
"763 696 OFFCURVE",
"647 757 OFFCURVE",
"510 757 CURVE SMOOTH",
"288 757 OFFCURVE",
"64 570 OFFCURVE",
"18 347 CURVE SMOOTH"
);
}
);
width = 761;
},
{
anchors = (
{
name = bottom;
position = "{302, 0}";
},
{
name = top;
position = "{585, 687}";
}
);
associatedMasterId = "119329DF-C854-46E0-93EC-7E8A22DFCA4F";
layerId = "9920F9D7-0795-4836-909A-3226F5A51134";
name = bubble;
paths = (
{
closed = 1;
nodes = (
"475 -68 OFFCURVE",
"627 -3 OFFCURVE",
"710 94 CURVE",
"812 587 LINE",
"770 684 OFFCURVE",
"642 755 OFFCURVE",
"506 755 CURVE SMOOTH",
"287 755 OFFCURVE",
"65 570 OFFCURVE",
"19 350 CURVE SMOOTH",
"-28 123 OFFCURVE",
"122 -68 OFFCURVE",
"346 -68 CURVE SMOOTH"
);
}
);
width = 744;
},
{
anchors = (
{
name = bottom;
position = "{262, 0}";
},
{
name = top;
position = "{535, 687}";
}
);
associatedMasterId = "88AF04C7-891B-4BE3-8AB1-6195D630646B";
layerId = "A56F1DB5-67AF-4318-B42B-C43774D8B7C5";
name = bubble;
paths = (
{
closed = 1;
nodes = (
"-25 136 OFFCURVE",
"134 -52 OFFCURVE",
"367 -52 CURVE SMOOTH",
"494 -52 OFFCURVE",
"628 5 OFFCURVE",
"727 109 CURVE",
"815 568 LINE",
"759 671 OFFCURVE",
"645 739 OFFCURVE",
"507 739 CURVE SMOOTH",
"285 739 OFFCURVE",
"64 567 OFFCURVE",
"21 359 CURVE SMOOTH"
);
}
);
width = 757;
}
);
leftKerningGroup = C;
rightKerningGroup = G;
unicode = 0047;
},
{
color = 1;
glyphname = H;
lastChange = "2018-09-01 04:44:37 +0000";
layers = (
{
layerId = "119329DF-C854-46E0-93EC-7E8A22DFCA4F";
paths = (
{
closed = 1;
nodes = (
"133 0 LINE",
"202 335 LINE",
"176 313 LINE",
"624 313 LINE",
"607 335 LINE",
"538 0 LINE",
"616 0 LINE",
"759 687 LINE",
"681 687 LINE",
"615 365 LINE",
"642 387 LINE",
"193 387 LINE",
"210 365 LINE",
"276 687 LINE",
"198 687 LINE",
"55 0 LINE"
);
}
);
width = 779;
},
{
layerId = "84328D8E-4D54-44EF-AF5C-0364B1C28646";
paths = (
{
closed = 1;
nodes = (
"108 0 LINE",
"180 343 LINE",
"176 332 LINE",
"625 332 LINE",
"627 343 LINE",
"555 0 LINE",
"591 0 LINE",
"734 687 LINE",
"698 687 LINE",
"630 357 LINE",
"633 368 LINE",
"184 368 LINE",
"183 357 LINE",
"251 687 LINE",
"215 687 LINE",
"72 0 LINE"
);
}
);
width = 771;
},
{
layerId = "88AF04C7-891B-4BE3-8AB1-6195D630646B";
paths = (
{
closed = 1;
nodes = (
"213 0 LINE",
"277 315 LINE",
"219 264 LINE",
"563 264 LINE",
"528 315 LINE",
"465 0 LINE",
"658 0 LINE",
"801 687 LINE",
"607 687 LINE",
"547 385 LINE",
"606 437 LINE",
"260 437 LINE",
"296 385 LINE",
"356 687 LINE",
"162 687 LINE",
"19 0 LINE"
);
}
);
width = 785;
},
{
associatedMasterId = "88AF04C7-891B-4BE3-8AB1-6195D630646B";
layerId = "C30B348A-251F-4757-9F3F-4A57C20A97EE";
name = bubble;
paths = (
{
closed = 1;
nodes = (
"715 -73 LINE",
"889 760 LINE",
"105 760 LINE",
"-69 -73 LINE"
);
}
);
width = 785;
},
{
associatedMasterId = "119329DF-C854-46E0-93EC-7E8A22DFCA4F";
layerId = "19095DB5-59A1-45F6-8364-5F05B3BE6F27";
name = bubble;
paths = (
{
closed = 1;
nodes = (
"-76 -109 LINE",
"703 -109 LINE",
"891 796 LINE",
"112 796 LINE"
);
}
);
width = 779;
},
{
associatedMasterId = "84328D8E-4D54-44EF-AF5C-0364B1C28646";
layerId = "CDB1D0B2-3EC8-48E6-A80A-CC9F9148BCB3";
name = bubble;
paths = (
{
closed = 1;
nodes = (
"690 -126 LINE",
"886 813 LINE",
"116 813 LINE",
"-80 -126 LINE"
);
}
);
width = 771;
}
);
leftKerningGroup = B;
rightKerningGroup = H;
unicode = 0048;
},
{
color = 1;
glyphname = I;
lastChange = "2018-09-01 04:42:38 +0000";
layers = (
{
anchors = (
{
name = bottom;
position = "{133, 0}";
},
{
name = top;
position = "{237, 687}";
}
);
layerId = "119329DF-C854-46E0-93EC-7E8A22DFCA4F";
paths = (
{
closed = 1;
nodes = (
"133 0 LINE",
"276 687 LINE",
"198 687 LINE",
"55 0 LINE"
);
}
);
width = 296;
},
{
anchors = (
{
name = bottom;
position = "{108, 0}";
},
{
name = top;
position = "{233, 687}";
}
);
layerId = "84328D8E-4D54-44EF-AF5C-0364B1C28646";
paths = (
{
closed = 1;
nodes = (
"108 0 LINE",
"251 687 LINE",
"215 687 LINE",
"72 0 LINE"
);
}
);
width = 288;
},
{
anchors = (
{
name = bottom;
position = "{213, 0}";
},
{
name = top;
position = "{259, 687}";
}
);
layerId = "88AF04C7-891B-4BE3-8AB1-6195D630646B";
paths = (
{
closed = 1;
nodes = (
"213 0 LINE",
"356 687 LINE",
"162 687 LINE",
"19 0 LINE"
);
}
);
width = 340;
},
{
anchors = (
{
name = bottom;
position = "{212, 0}";
},
{
name = top;
position = "{255, 687}";
}
);
associatedMasterId = "88AF04C7-891B-4BE3-8AB1-6195D630646B";
layerId = "8F9BA5A9-E7EE-4EFB-8CAF-44F62CC4774F";
name = bubble;
paths = (
{
closed = 1;
nodes = (
"270 -73 LINE",
"444 760 LINE",
"105 760 LINE",
"-69 -73 LINE"
);
}
);
width = 340;
},
{
anchors = (
{
name = bottom;
position = "{133, 0}";
},
{
name = top;
position = "{237, 687}";
}
);
associatedMasterId = "119329DF-C854-46E0-93EC-7E8A22DFCA4F";
layerId = "7DB90DDC-7EFE-4B69-9FC1-B3503DF0A076";
name = bubble;
paths = (
{
closed = 1;
nodes = (
"220 -109 LINE",
"408 796 LINE",
"112 796 LINE",
"-76 -109 LINE"
);
}
);
width = 296;
},
{
anchors = (
{
name = bottom;
position = "{108, 0}";
},
{
name = top;
position = "{233, 687}";
}
);
associatedMasterId = "84328D8E-4D54-44EF-AF5C-0364B1C28646";
layerId = "BAB671C5-6C52-4D7B-9116-5B2173DA7AF4";
name = bubble;
paths = (
{
closed = 1;
nodes = (
"208 -126 LINE",
"404 813 LINE",
"116 813 LINE",
"-80 -126 LINE"
);
}
);
width = 288;
}
);
leftKerningGroup = B;
rightKerningGroup = H;
unicode = 0049;
},
{
color = 1;
glyphname = J;
lastChange = "2018-09-01 04:20:13 +0000";
layers = (
{
layerId = "119329DF-C854-46E0-93EC-7E8A22DFCA4F";
paths = (
{
closed = 1;
nodes = (
"303 -12 OFFCURVE",
"412 85 OFFCURVE",
"441 221 CURVE SMOOTH",
"538 687 LINE",
"460 687 LINE",
"365 227 LINE SMOOTH",
"345 129 OFFCURVE",
"272 59 OFFCURVE",
"190 59 CURVE SMOOTH",
"126 59 OFFCURVE",
"71 99 OFFCURVE",
"56 155 CURVE",
"-10 105 LINE",
"20 36 OFFCURVE",
"97 -12 OFFCURVE",
"176 -12 CURVE SMOOTH"
);
}
);
width = 546;
},
{
layerId = "84328D8E-4D54-44EF-AF5C-0364B1C28646";
paths = (
{
closed = 1;
nodes = (
"273 -12 OFFCURVE",
"376 81 OFFCURVE",
"404 213 CURVE SMOOTH",
"502 687 LINE",
"466 687 LINE",
"368 215 LINE SMOOTH",
"345 104 OFFCURVE",
"257 24 OFFCURVE",
"156 24 CURVE SMOOTH",
"85 24 OFFCURVE",
"27 67 OFFCURVE",
"0 129 CURVE",
"-26 103 LINE",
"3 36 OFFCURVE",
"70 -12 OFFCURVE",
"154 -12 CURVE SMOOTH"
);
}
);
width = 525;
},
{
layerId = "88AF04C7-891B-4BE3-8AB1-6195D630646B";
paths = (
{
closed = 1;
nodes = (
"363 -12 OFFCURVE",
"479 78 OFFCURVE",
"507 216 CURVE SMOOTH",
"605 687 LINE",
"411 687 LINE",
"321 252 LINE SMOOTH",
"311 205 OFFCURVE",
"262 164 OFFCURVE",
"209 164 CURVE SMOOTH",
"180 164 OFFCURVE",
"149 182 OFFCURVE",
"138 217 CURVE",
"-5 108 LINE",
"32 41 OFFCURVE",
"124 -12 OFFCURVE",
"223 -12 CURVE SMOOTH"
);
}
);
width = 581;
}
);
leftKerningGroup = J;
rightKerningGroup = J;
unicode = 004A;
},
{
color = 1;
glyphname = K;
lastChange = "2018-09-01 04:20:13 +0000";
layers = (
{
anchors = (
{
name = bottom;
position = "{310, 0}";
}
);
layerId = "119329DF-C854-46E0-93EC-7E8A22DFCA4F";
paths = (
{
closed = 1;
nodes = (
"133 0 LINE",
"177 206 LINE",
"310 320 LINE",
"504 0 LINE",
"602 0 LINE",
"373 373 LINE",
"728 687 LINE",
"623 687 LINE",
"196 307 LINE",
"276 687 LINE",
"198 687 LINE",
"55 0 LINE"
);
}
);
width = 679;
},
{
anchors = (
{
name = bottom;
position = "{308, 0}";
}
);
layerId = "84328D8E-4D54-44EF-AF5C-0364B1C28646";
paths = (
{
closed = 1;
nodes = (
"108 0 LINE",
"152 205 LINE",
"314 349 LINE",
"527 0 LINE",
"572 0 LINE",
"344 376 LINE",
"694 687 LINE",
"645 687 LINE",
"161 257 LINE",
"251 687 LINE",
"215 687 LINE",
"72 0 LINE"
);
}
);
width = 642;
},
{
anchors = (
{
name = bottom;
position = "{337, 0}";
}
);
layerId = "88AF04C7-891B-4BE3-8AB1-6195D630646B";
paths = (
{
closed = 1;
nodes = (
"213 0 LINE",
"254 182 LINE",
"343 260 LINE",
"464 0 LINE",
"685 0 LINE",
"498 395 LINE",
"819 687 LINE",
"572 687 LINE",
"304 444 LINE",
"356 687 LINE",
"162 687 LINE",
"19 0 LINE"
);
}
);
width = 765;
}
);
leftKerningGroup = B;
rightKerningGroup = K;
unicode = 004B;
},
{
color = 1;
glyphname = L;
lastChange = "2018-09-01 04:39:18 +0000";
layers = (
{
anchors = (
{
name = top;
position = "{237, 687}";
}
);
layerId = "119329DF-C854-46E0-93EC-7E8A22DFCA4F";
paths = (
{
closed = 1;
nodes = (
"508 0 LINE",
"524 74 LINE",
"127 74 LINE",
"145 50 LINE",
"276 687 LINE",
"198 687 LINE",
"55 0 LINE"
);
}
);
width = 587;
},
{
anchors = (
{
name = top;
position = "{233, 687}";
}
);
layerId = "84328D8E-4D54-44EF-AF5C-0364B1C28646";
paths = (
{
closed = 1;
nodes = (
"504 0 LINE",
"512 36 LINE",
"105 36 LINE",
"114 24 LINE",
"251 687 LINE",
"215 687 LINE",
"72 0 LINE"
);
}
);
width = 560;
},
{
anchors = (
{
name = top;
position = "{255, 687}";
}
);
layerId = "88AF04C7-891B-4BE3-8AB1-6195D630646B";
paths = (
{
closed = 1;
nodes = (
"533 0 LINE",
"569 173 LINE",
"195 173 LINE",
"240 117 LINE",
"356 687 LINE",
"162 687 LINE",
"19 0 LINE"
);
}
);
width = 623;
},
{
anchors = (
{
name = top;
position = "{290, 687}";
}
);
associatedMasterId = "88AF04C7-891B-4BE3-8AB1-6195D630646B";
layerId = "42C1AAB1-FBDB-4274-97D6-633D84A8E09B";
name = bubble;
paths = (
{
closed = 1;
nodes = (
"553 -73 LINE",
"620 246 LINE",
"338 246 LINE",
"445 760 LINE",
"105 760 LINE",
"-69 -73 LINE"
);
}
);
width = 623;
},
{
anchors = (
{
name = top;
position = "{272, 687}";
}
);
associatedMasterId = "119329DF-C854-46E0-93EC-7E8A22DFCA4F";
layerId = "480CC0CE-0713-4F69-B19A-EEE7F93CA3C5";
name = bubble;
paths = (
{
closed = 1;
nodes = (
"-76 -109 LINE",
"510 -109 LINE",
"571 183 LINE",
"281 183 LINE",
"408 796 LINE",
"112 796 LINE"
);
}
);
width = 587;
},
{
anchors = (
{
name = top;
position = "{268, 687}";
}
);
associatedMasterId = "84328D8E-4D54-44EF-AF5C-0364B1C28646";
layerId = "FBBC3B36-A1D0-4830-9F1C-E6A81EC20ECD";
name = bubble;
paths = (
{
closed = 1;
nodes = (
"-80 -126 LINE",
"480 -126 LINE",
"540 162 LINE",
"268 162 LINE",
"404 813 LINE",
"116 813 LINE"
);
}
);
width = 560;
}
);
leftKerningGroup = B;
rightKerningGroup = L;
unicode = 004C;
},
{
color = 1;
glyphname = Lslash;
lastChange = "2018-05-28 05:37:36 +0000";
layers = (
{
components = (
{
name = L;
transform = "{1, 0, 0, 1, 87, 0}";
}
);
layerId = "84328D8E-4D54-44EF-AF5C-0364B1C28646";
paths = (
{
closed = 1;
nodes = (
"402 406 LINE",
"410 447 LINE",
"79 293 LINE",
"71 252 LINE"
);
}
);
width = 706;
},
{
components = (
{
name = L;
transform = "{1, 0, 0, 1, 69, 0}";
}
);
layerId = "119329DF-C854-46E0-93EC-7E8A22DFCA4F";
paths = (
{
closed = 1;
nodes = (
"387 388 LINE",
"401 463 LINE",
"70 309 LINE",
"56 234 LINE"
);
}
);
width = 680;
},
{
components = (
{
name = L;
transform = "{1, 0, 0, 1, 48, 0}";
}
);
layerId = "88AF04C7-891B-4BE3-8AB1-6195D630646B";
paths = (
{
closed = 1;
nodes = (
"421 358 LINE",
"454 525 LINE",
"50 345 LINE",
"18 178 LINE"
);
}
);
width = 661;
}
);
leftKerningGroup = B;
rightKerningGroup = L;
unicode = 0141;
},
{
color = 1;
glyphname = M;
lastChange = "2018-09-01 04:20:13 +0000";
layers = (
{
layerId = "119329DF-C854-46E0-93EC-7E8A22DFCA4F";
paths = (
{
closed = 1;
nodes = (
"133 0 LINE",
"242 519 LINE",
"399 40 LINE",
"752 519 LINE",
"643 0 LINE",
"721 0 LINE",
"864 687 LINE",
"785 687 LINE",
"430 208 LINE",
"275 687 LINE",
"198 687 LINE",
"55 0 LINE"
);
}
);
width = 884;
},
{
layerId = "84328D8E-4D54-44EF-AF5C-0364B1C28646";
paths = (
{
closed = 1;
nodes = (
"108 0 LINE",
"237 615 LINE",
"406 96 LINE",
"789 615 LINE",
"660 0 LINE",
"696 0 LINE",
"839 687 LINE",
"803 687 LINE",
"418 168 LINE",
"251 687 LINE",
"215 687 LINE",
"72 0 LINE"
);
}
);
width = 876;
},
{
layerId = "88AF04C7-891B-4BE3-8AB1-6195D630646B";
paths = (
{
closed = 1;
nodes = (
"213 0 LINE",
"292 368 LINE",
"410 40 LINE",
"660 368 LINE",
"581 0 LINE",
"775 0 LINE",
"918 687 LINE",
"722 687 LINE",
"468 359 LINE",
"354 687 LINE",
"162 687 LINE",
"19 0 LINE"
);
}
);
width = 902;
}
);
leftKerningGroup = B;
rightKerningGroup = H;
unicode = 004D;
},
{
color = 1;
glyphname = N;
lastChange = "2018-09-01 04:20:13 +0000";
layers = (
{
anchors = (
{
name = bottom;
position = "{346, 0}";
},
{
name = top;
position = "{488, 687}";
}
);
layerId = "119329DF-C854-46E0-93EC-7E8A22DFCA4F";
paths = (
{
closed = 1;
nodes = (
"133 0 LINE",
"251 559 LINE",
"561 0 LINE",
"637 0 LINE",
"780 687 LINE",
"702 687 LINE",
"585 128 LINE",
"275 687 LINE",
"198 687 LINE",
"55 0 LINE"
);
}
);
width = 800;
},
{
anchors = (
{
name = bottom;
position = "{343, 0}";
},
{
name = top;
position = "{485, 687}";
}
);
layerId = "84328D8E-4D54-44EF-AF5C-0364B1C28646";
paths = (
{
closed = 1;
nodes = (
"108 0 LINE",
"240 631 LINE",
"577 0 LINE",
"612 0 LINE",
"755 687 LINE",
"719 687 LINE",
"588 56 LINE",
"251 687 LINE",
"215 687 LINE",
"72 0 LINE"
);
}
);
width = 792;
},
{
anchors = (
{
name = bottom;
position = "{348, 0}";
},
{
name = top;
position = "{489, 687}";
}
);
layerId = "88AF04C7-891B-4BE3-8AB1-6195D630646B";
paths = (
{
closed = 1;
nodes = (
"213 0 LINE",
"292 368 LINE",
"484 0 LINE",
"675 0 LINE",
"818 687 LINE",
"624 687 LINE",
"545 319 LINE",
"354 687 LINE",
"162 687 LINE",
"19 0 LINE"
);
}
);
width = 802;
}
);
leftKerningGroup = B;
rightKerningGroup = H;
unicode = 004E;
},
{
color = 1;
glyphname = O;
lastChange = "2018-09-01 04:20:13 +0000";
layers = (
{
anchors = (
{
name = top;
position = "{512, 687}";
}
);
layerId = "119329DF-C854-46E0-93EC-7E8A22DFCA4F";
paths = (
{
closed = 1;
nodes = (
"594 -12 OFFCURVE",
"788 178 OFFCURVE",
"788 410 CURVE SMOOTH",
"788 581 OFFCURVE",
"672 699 OFFCURVE",
"503 699 CURVE SMOOTH",
"265 699 OFFCURVE",
"71 509 OFFCURVE",
"71 277 CURVE SMOOTH",
"71 106 OFFCURVE",
"187 -12 OFFCURVE",
"356 -12 CURVE SMOOTH"
);
},
{
closed = 1;
nodes = (
"240 60 OFFCURVE",
"150 151 OFFCURVE",
"150 283 CURVE SMOOTH",
"150 472 OFFCURVE",
"303 627 OFFCURVE",
"489 627 CURVE SMOOTH",
"619 627 OFFCURVE",
"709 537 OFFCURVE",
"709 407 CURVE SMOOTH",
"709 216 OFFCURVE",
"557 60 OFFCURVE",
"371 60 CURVE SMOOTH"
);
}
);
width = 823;
},
{
anchors = (
{
name = top;
position = "{495, 687}";
}
);
layerId = "84328D8E-4D54-44EF-AF5C-0364B1C28646";
paths = (
{
closed = 1;
nodes = (
"573 -12 OFFCURVE",
"784 194 OFFCURVE",
"784 410 CURVE SMOOTH",
"784 572 OFFCURVE",
"665 699 OFFCURVE",
"498 699 CURVE SMOOTH",
"283 699 OFFCURVE",
"68 489 OFFCURVE",
"68 272 CURVE SMOOTH",
"68 110 OFFCURVE",
"187 -12 OFFCURVE",
"355 -12 CURVE SMOOTH"
);
},
{
closed = 1;
nodes = (
"209 24 OFFCURVE",
"104 132 OFFCURVE",
"104 276 CURVE SMOOTH",
"104 472 OFFCURVE",
"300 663 OFFCURVE",
"494 663 CURVE SMOOTH",
"643 663 OFFCURVE",
"749 551 OFFCURVE",
"749 408 CURVE SMOOTH",
"749 215 OFFCURVE",
"555 24 OFFCURVE",
"358 24 CURVE SMOOTH"
);
}
);
width = 818;
},
{
anchors = (
{
name = top;
position = "{502, 687}";
}
);
layerId = "88AF04C7-891B-4BE3-8AB1-6195D630646B";
paths = (
{
closed = 1;
nodes = (
"618 -12 OFFCURVE",
"817 173 OFFCURVE",
"817 399 CURVE SMOOTH",
"817 570 OFFCURVE",
"680 699 OFFCURVE",
"497 699 CURVE SMOOTH",
"254 699 OFFCURVE",
"55 515 OFFCURVE",
"55 289 CURVE SMOOTH",
"55 117 OFFCURVE",
"192 -12 OFFCURVE",
"374 -12 CURVE SMOOTH"
);
},
{
closed = 1;
nodes = (
"311 164 OFFCURVE",
"255 220 OFFCURVE",
"255 295 CURVE SMOOTH",
"255 420 OFFCURVE",
"359 523 OFFCURVE",
"486 523 CURVE SMOOTH",
"561 523 OFFCURVE",
"617 467 OFFCURVE",
"617 392 CURVE SMOOTH",
"617 267 OFFCURVE",
"513 164 OFFCURVE",
"386 164 CURVE SMOOTH"
);
}
);
width = 836;
}
);
leftKerningGroup = C;
rightKerningGroup = D;
unicode = 004F;
},
{
color = 1;
glyphname = Oslash;
lastChange = "2018-05-28 05:38:04 +0000";
layers = (
{
components = (
{
name = O;
transform = "{1, 0, 0, 1, 6, 0}";
}
);
layerId = "119329DF-C854-46E0-93EC-7E8A22DFCA4F";
paths = (
{
closed = 1;
nodes = (
"102 0 LINE",
"846 687 LINE",
"759 687 LINE",
"15 0 LINE"
);
}
);
width = 849;
},
{
components = (
{
name = O;
transform = "{1, 0, 0, 1, 8, 0}";
}
);
layerId = "84328D8E-4D54-44EF-AF5C-0364B1C28646";
paths = (
{
closed = 1;
nodes = (
"79 0 LINE",
"823 687 LINE",
"774 687 LINE",
"30 0 LINE"
);
}
);
width = 880;
},
{
components = (
{
name = O;
transform = "{1, 0, 0, 1, 2, 0}";
}
);
layerId = "88AF04C7-891B-4BE3-8AB1-6195D630646B";
paths = (
{
closed = 1;
nodes = (
"156 0 LINE",
"869 687 LINE",
"704 687 LINE",
"-9 0 LINE"
);
}
);
width = 819;
}
);
leftKerningGroup = C;
rightKerningGroup = D;
unicode = 00D8;
},
{
color = 1;
glyphname = OE;
lastChange = "2018-05-31 09:16:40 +0000";
layers = (
{
layerId = "84328D8E-4D54-44EF-AF5C-0364B1C28646";
paths = (
{
closed = 1;
nodes = (
"95 117 OFFCURVE",
"217 0 OFFCURVE",
"384 0 CURVE SMOOTH",
"918 0 LINE",
"926 36 LINE",
"511 36 LINE",
"572 332 LINE",
"957 332 LINE",
"964 368 LINE",
"580 368 LINE",
"638 651 LINE",
"1054 651 LINE",
"1061 687 LINE",
"524 687 LINE SMOOTH",
"303 687 OFFCURVE",
"95 491 OFFCURVE",
"95 277 CURVE SMOOTH"
);
},
{
closed = 1;
nodes = (
"131 475 OFFCURVE",
"322 651 OFFCURVE",
"519 651 CURVE SMOOTH",
"603 651 LINE",
"474 36 LINE",
"388 36 LINE SMOOTH",
"237 36 OFFCURVE",
"131 139 OFFCURVE",
"131 280 CURVE SMOOTH"
);
}
);
width = 1048;
},
{
layerId = "119329DF-C854-46E0-93EC-7E8A22DFCA4F";
paths = (
{
closed = 1;
nodes = (
"78 111 OFFCURVE",
"202 0 OFFCURVE",
"369 0 CURVE SMOOTH",
"939 0 LINE",
"955 74 LINE",
"542 74 LINE",
"590 313 LINE",
"964 313 LINE",
"979 387 LINE",
"607 387 LINE",
"652 613 LINE",
"1067 613 LINE",
"1082 687 LINE",
"507 687 LINE SMOOTH",
"294 687 OFFCURVE",
"78 488 OFFCURVE",
"78 271 CURVE SMOOTH"
);
},
{
closed = 1;
nodes = (
"156 444 OFFCURVE",
"326 615 OFFCURVE",
"497 615 CURVE SMOOTH",
"574 615 LINE",
"461 72 LINE",
"379 72 LINE SMOOTH",
"250 72 OFFCURVE",
"156 152 OFFCURVE",
"156 273 CURVE SMOOTH"
);
}
);
width = 1058;
},
{
layerId = "88AF04C7-891B-4BE3-8AB1-6195D630646B";
paths = (
{
closed = 1;
nodes = (
"48 124 OFFCURVE",
"182 0 OFFCURVE",
"361 0 CURVE SMOOTH",
"948 0 LINE",
"984 173 LINE",
"626 173 LINE",
"644 264 LINE",
"971 264 LINE",
"1007 437 LINE",
"681 437 LINE",
"696 514 LINE",
"1055 514 LINE",
"1091 687 LINE",
"491 687 LINE SMOOTH",
"265 687 OFFCURVE",
"48 510 OFFCURVE",
"48 291 CURVE SMOOTH"
);
},
{
closed = 1;
nodes = (
"246 406 OFFCURVE",
"357 511 OFFCURVE",
"467 511 CURVE SMOOTH",
"501 511 LINE",
"432 176 LINE",
"385 176 LINE SMOOTH",
"303 176 OFFCURVE",
"246 224 OFFCURVE",
"246 297 CURVE SMOOTH"
);
}
);
width = 1053;
}
);
leftKerningGroup = C;
rightKerningGroup = E;
unicode = 0152;
},
{
color = 1;
glyphname = P;
lastChange = "2018-09-01 04:20:13 +0000";
layers = (
{
layerId = "119329DF-C854-46E0-93EC-7E8A22DFCA4F";
paths = (
{
closed = 1;
nodes = (
"133 0 LINE",
"185 247 LINE",
"381 247 LINE SMOOTH",
"547 247 OFFCURVE",
"687 363 OFFCURVE",
"687 500 CURVE SMOOTH",
"687 610 OFFCURVE",
"598 687 OFFCURVE",
"473 687 CURVE SMOOTH",
"198 687 LINE",
"55 0 LINE"
);
},
{
closed = 1;
nodes = (
"261 613 LINE",
"457 613 LINE SMOOTH",
"547 613 OFFCURVE",
"610 566 OFFCURVE",
"610 499 CURVE SMOOTH",
"610 402 OFFCURVE",
"513 321 OFFCURVE",
"397 321 CURVE SMOOTH",
"200 321 LINE"
);
}
);
width = 684;
},
{
layerId = "84328D8E-4D54-44EF-AF5C-0364B1C28646";
paths = (
{
closed = 1;
nodes = (
"108 0 LINE",
"164 267 LINE",
"418 267 LINE SMOOTH",
"571 267 OFFCURVE",
"703 375 OFFCURVE",
"703 519 CURVE SMOOTH",
"703 619 OFFCURVE",
"625 687 OFFCURVE",
"503 687 CURVE SMOOTH",
"215 687 LINE",
"72 0 LINE"
);
},
{
closed = 1;
nodes = (
"244 651 LINE",
"491 651 LINE SMOOTH",
"599 651 OFFCURVE",
"667 596 OFFCURVE",
"667 514 CURVE SMOOTH",
"667 395 OFFCURVE",
"550 303 OFFCURVE",
"416 303 CURVE SMOOTH",
"171 303 LINE"
);
}
);
width = 691;
},
{
layerId = "88AF04C7-891B-4BE3-8AB1-6195D630646B";
paths = (
{
closed = 1;
nodes = (
"213 0 LINE",
"257 207 LINE",
"398 207 LINE SMOOTH",
"570 207 OFFCURVE",
"707 324 OFFCURVE",
"707 487 CURVE SMOOTH",
"707 606 OFFCURVE",
"619 687 OFFCURVE",
"485 687 CURVE SMOOTH",
"162 687 LINE",
"19 0 LINE"
);
},
{
closed = 1;
nodes = (
"320 511 LINE",
"445 511 LINE SMOOTH",
"486 511 OFFCURVE",
"509 496 OFFCURVE",
"509 471 CURVE SMOOTH",
"509 429 OFFCURVE",
"457 383 OFFCURVE",
"406 383 CURVE SMOOTH",
"293 383 LINE"
);
}
);
width = 702;
}
);
leftKerningGroup = B;
rightKerningGroup = P;
unicode = 0050;
},
{
color = 1;
glyphname = Thorn;
lastChange = "2018-05-31 09:17:16 +0000";
layers = (
{
layerId = "84328D8E-4D54-44EF-AF5C-0364B1C28646";
paths = (
{
closed = 1;
nodes = (
"99 0 LINE",
"128 136 LINE",
"382 136 LINE SMOOTH",
"535 136 OFFCURVE",
"667 244 OFFCURVE",
"667 388 CURVE SMOOTH",
"667 488 OFFCURVE",
"589 556 OFFCURVE",
"467 556 CURVE SMOOTH",
"215 556 LINE",
"242 687 LINE",
"206 687 LINE",
"63 0 LINE"
);
},
{
closed = 1;
nodes = (
"208 520 LINE",
"455 520 LINE SMOOTH",
"563 520 OFFCURVE",
"631 465 OFFCURVE",
"631 383 CURVE SMOOTH",
"631 264 OFFCURVE",
"514 172 OFFCURVE",
"380 172 CURVE SMOOTH",
"135 172 LINE"
);
}
);
width = 725;
},
{
layerId = "119329DF-C854-46E0-93EC-7E8A22DFCA4F";
paths = (
{
closed = 1;
nodes = (
"125 0 LINE",
"152 126 LINE",
"355 126 LINE SMOOTH",
"513 126 OFFCURVE",
"655 237 OFFCURVE",
"655 385 CURVE SMOOTH",
"655 493 OFFCURVE",
"566 566 OFFCURVE",
"441 566 CURVE SMOOTH",
"245 566 LINE",
"270 687 LINE",
"190 687 LINE",
"47 0 LINE"
);
},
{
closed = 1;
nodes = (
"228 492 LINE",
"418 492 LINE SMOOTH",
"517 492 OFFCURVE",
"577 452 OFFCURVE",
"577 381 CURVE SMOOTH",
"577 274 OFFCURVE",
"474 200 OFFCURVE",
"351 200 CURVE SMOOTH",
"167 200 LINE"
);
}
);
width = 698;
},
{
layerId = "88AF04C7-891B-4BE3-8AB1-6195D630646B";
paths = (
{
closed = 1;
nodes = (
"208 0 LINE",
"230 105 LINE",
"372 105 LINE SMOOTH",
"544 105 OFFCURVE",
"681 222 OFFCURVE",
"681 385 CURVE SMOOTH",
"681 504 OFFCURVE",
"593 585 OFFCURVE",
"459 585 CURVE SMOOTH",
"325 585 LINE",
"346 687 LINE",
"157 687 LINE",
"14 0 LINE"
);
},
{
closed = 1;
nodes = (
"294 409 LINE",
"419 409 LINE SMOOTH",
"460 409 OFFCURVE",
"482 394 OFFCURVE",
"482 369 CURVE SMOOTH",
"482 327 OFFCURVE",
"432 281 OFFCURVE",
"380 281 CURVE SMOOTH",
"267 281 LINE"
);
}
);
width = 692;
}
);
leftKerningGroup = B;
rightKerningGroup = Thorn;
unicode = 00DE;
},
{
color = 1;
glyphname = Q;
lastChange = "2018-09-01 04:20:14 +0000";
layers = (
{
components = (
{
name = O;
}
);
layerId = "119329DF-C854-46E0-93EC-7E8A22DFCA4F";
paths = (
{
closed = 1;
nodes = (
"710 51 LINE",
"500 271 LINE",
"446 220 LINE",
"656 0 LINE"
);
}
);
width = 833;
},
{
components = (
{
name = O;
}
);
layerId = "84328D8E-4D54-44EF-AF5C-0364B1C28646";
paths = (
{
closed = 1;
nodes = (
"703 24 LINE",
"504 234 LINE",
"479 210 LINE",
"678 0 LINE"
);
}
);
width = 835;
},
{
components = (
{
name = O;
}
);
layerId = "88AF04C7-891B-4BE3-8AB1-6195D630646B";
paths = (
{
closed = 1;
nodes = (
"748 106 LINE",
"523 340 LINE",
"414 234 LINE",
"639 0 LINE"
);
}
);
width = 838;
}
);
leftKerningGroup = C;
rightKerningGroup = D;
unicode = 0051;
},
{
color = 1;
glyphname = R;
lastChange = "2018-09-01 04:43:02 +0000";
layers = (
{
anchors = (
{
name = bottom;
position = "{287, 0}";
},
{
name = top;
position = "{427, 687}";
}
);
components = (
{
name = P;
}
);
layerId = "119329DF-C854-46E0-93EC-7E8A22DFCA4F";
paths = (
{
closed = 1;
nodes = (
"573 0 LINE",
"410 269 LINE",
"323 269 LINE",
"487 0 LINE"
);
}
);
width = 692;
},
{
anchors = (
{
name = bottom;
position = "{302, 0}";
},
{
name = top;
position = "{441, 687}";
}
);
components = (
{
name = P;
}
);
layerId = "84328D8E-4D54-44EF-AF5C-0364B1C28646";
paths = (
{
closed = 1;
nodes = (
"527 0 LINE",
"353 291 LINE",
"311 291 LINE",
"484 0 LINE"
);
}
);
width = 700;
},
{
anchors = (
{
name = bottom;
position = "{307, 0}";
},
{
name = top;
position = "{447, 687}";
}
);
components = (
{
name = P;
}
);
layerId = "88AF04C7-891B-4BE3-8AB1-6195D630646B";
paths = (
{
closed = 1;
nodes = (
"650 0 LINE",
"487 269 LINE",
"271 269 LINE",
"434 0 LINE"
);
}
);
width = 730;
}
);
leftKerningGroup = B;
rightKerningGroup = R;
unicode = 0052;
},
{
color = 1;
glyphname = S;
lastChange = "2018-09-01 04:32:00 +0000";
layers = (
{
anchors = (
{
name = bottom;
position = "{259, 0}";
},
{
name = top;
position = "{398, 687}";
}
);
layerId = "119329DF-C854-46E0-93EC-7E8A22DFCA4F";
paths = (
{
closed = 1;
nodes = (
"432 -11 OFFCURVE",
"548 86 OFFCURVE",
"548 222 CURVE SMOOTH",
"548 305 OFFCURVE",
"493 352 OFFCURVE",
"355 385 CURVE SMOOTH",
"243 414 OFFCURVE",
"198 442 OFFCURVE",
"198 486 CURVE SMOOTH",
"198 570 OFFCURVE",
"273 629 OFFCURVE",
"379 629 CURVE SMOOTH",
"440 629 OFFCURVE",
"513 593 OFFCURVE",
"554 543 CURVE",
"611 600 LINE",
"558 659 OFFCURVE",
"466 700 OFFCURVE",
"387 700 CURVE SMOOTH",
"229 700 OFFCURVE",
"118 603 OFFCURVE",
"118 467 CURVE SMOOTH",
"118 388 OFFCURVE",
"173 344 OFFCURVE",
"312 311 CURVE SMOOTH",
"423 283 OFFCURVE",
"467 253 OFFCURVE",
"467 207 CURVE SMOOTH",
"467 121 OFFCURVE",
"387 60 OFFCURVE",
"273 60 CURVE SMOOTH",
"200 60 OFFCURVE",
"117 100 OFFCURVE",
"72 157 CURVE",
"14 100 LINE",
"68 35 OFFCURVE",
"172 -11 OFFCURVE",
"267 -11 CURVE SMOOTH"
);
}
);
width = 614;
},
{
anchors = (
{
name = bottom;
position = "{256, 0}";
},
{
name = top;
position = "{397, 687}";
}
);
layerId = "84328D8E-4D54-44EF-AF5C-0364B1C28646";
paths = (
{
closed = 1;
nodes = (
"409 -11 OFFCURVE",
"534 89 OFFCURVE",
"534 208 CURVE SMOOTH",
"534 294 OFFCURVE",
"474 327 OFFCURVE",
"340 365 CURVE SMOOTH",
"237 394 OFFCURVE",
"163 415 OFFCURVE",
"163 490 CURVE SMOOTH",
"163 584 OFFCURVE",
"265 664 OFFCURVE",
"387 664 CURVE SMOOTH",
"464 664 OFFCURVE",
"536 629 OFFCURVE",
"580 575 CURVE",
"606 601 LINE",
"551 663 OFFCURVE",
"472 700 OFFCURVE",
"389 700 CURVE SMOOTH",
"247 700 OFFCURVE",
"127 600 OFFCURVE",
"127 481 CURVE SMOOTH",
"127 397 OFFCURVE",
"191 369 OFFCURVE",
"322 332 CURVE SMOOTH",
"420 305 OFFCURVE",
"497 282 OFFCURVE",
"497 200 CURVE SMOOTH",
"497 105 OFFCURVE",
"390 25 OFFCURVE",
"262 25 CURVE SMOOTH",
"179 25 OFFCURVE",
"89 59 OFFCURVE",
"37 125 CURVE",
"12 99 LINE",
"71 26 OFFCURVE",
"168 -11 OFFCURVE",
"260 -11 CURVE SMOOTH"
);
}
);
width = 606;
},
{
anchors = (
{
name = bottom;
position = "{291, 0}";
},
{
name = top;
position = "{431, 687}";
}
);
layerId = "88AF04C7-891B-4BE3-8AB1-6195D630646B";
paths = (
{
closed = 1;
nodes = (
"489 -12 OFFCURVE",
"633 87 OFFCURVE",
"633 240 CURVE SMOOTH",
"633 349 OFFCURVE",
"561 387 OFFCURVE",
"401 424 CURVE SMOOTH",
"326 441 OFFCURVE",
"302 446 OFFCURVE",
"302 471 CURVE SMOOTH",
"302 500 OFFCURVE",
"335 538 OFFCURVE",
"402 538 CURVE SMOOTH",
"446 538 OFFCURVE",
"516 522 OFFCURVE",
"573 473 CURVE",
"689 601 LINE",
"620 666 OFFCURVE",
"524 699 OFFCURVE",
"420 699 CURVE SMOOTH",
"230 699 OFFCURVE",
"104 589 OFFCURVE",
"104 448 CURVE SMOOTH",
"104 320 OFFCURVE",
"207 293 OFFCURVE",
"338 260 CURVE SMOOTH",
"417 240 OFFCURVE",
"436 238 OFFCURVE",
"436 216 CURVE SMOOTH",
"436 186 OFFCURVE",
"399 149 OFFCURVE",
"321 149 CURVE SMOOTH",
"258 149 OFFCURVE",
"183 173 OFFCURVE",
"125 228 CURVE",
"-1 109 LINE",
"70 34 OFFCURVE",
"183 -12 OFFCURVE",
"307 -12 CURVE SMOOTH"
);
}
);
width = 679;
},
{
anchors = (
{
name = bottom;
position = "{291, 0}";
},
{
name = top;
position = "{431, 687}";
}
);
associatedMasterId = "88AF04C7-891B-4BE3-8AB1-6195D630646B";
layerId = "74BE7788-B7A3-41BB-B30A-DFF8F2651B60";
name = bubble;
paths = (
{
closed = 1;
nodes = (
"475 -69 OFFCURVE",
"628 29 OFFCURVE",
"652 131 CURVE",
"751 601 LINE",
"677 700 OFFCURVE",
"554 756 OFFCURVE",
"417 756 CURVE SMOOTH",
"239 756 OFFCURVE",
"102 661 OFFCURVE",
"67 520 CURVE",
"-39 81 LINE",
"40 -13 OFFCURVE",
"170 -69 OFFCURVE",
"308 -69 CURVE SMOOTH"
);
}
);
width = 679;
},
{
anchors = (
{
name = bottom;
position = "{259, 0}";
},
{
name = top;
position = "{398, 687}";
}
);
associatedMasterId = "119329DF-C854-46E0-93EC-7E8A22DFCA4F";
layerId = "556965E4-C4EE-4C93-8B69-7303319C815C";
name = bubble;
paths = (
{
closed = 1;
nodes = (
"459 -61 OFFCURVE",
"562 28 OFFCURVE",
"605 222 CURVE",
"684 595 LINE",
"631 684 OFFCURVE",
"496 750 OFFCURVE",
"387 750 CURVE SMOOTH",
"203 750 OFFCURVE",
"68 632 OFFCURVE",
"68 467 CURVE",
"-37 83 LINE",
"23 -1 OFFCURVE",
"152 -61 OFFCURVE",
"267 -61 CURVE SMOOTH"
);
}
);
width = 614;
},
{
anchors = (
{
name = bottom;
position = "{256, 0}";
},
{
name = top;
position = "{397, 687}";
}
);
associatedMasterId = "84328D8E-4D54-44EF-AF5C-0364B1C28646";
layerId = "E020F205-7926-4BE2-A370-679CA4C8F836";
name = bubble;
paths = (
{
closed = 1;
nodes = (
"437 -63 OFFCURVE",
"560 59 OFFCURVE",
"595 208 CURVE",
"668 619 LINE",
"603 703 OFFCURVE",
"493 752 OFFCURVE",
"389 752 CURVE SMOOTH",
"214 752 OFFCURVE",
"79 640 OFFCURVE",
"46 471 CURVE",
"-40 66 LINE",
"25 -14 OFFCURVE",
"146 -63 OFFCURVE",
"260 -63 CURVE SMOOTH"
);
}
);
width = 606;
}
);
leftKerningGroup = S;
rightKerningGroup = S;
unicode = 0053;
},
{
color = 1;
glyphname = T;
lastChange = "2018-09-01 04:26:12 +0000";
layers = (
{
anchors = (
{
name = bottom;
position = "{233, 0}";
},
{
name = top;
position = "{384, 687}";
}
);
layerId = "119329DF-C854-46E0-93EC-7E8A22DFCA4F";
paths = (
{
closed = 1;
nodes = (
"280 0 LINE",
"408 613 LINE",
"639 613 LINE",
"654 687 LINE",
"114 687 LINE",
"99 613 LINE",
"330 613 LINE",
"202 0 LINE"
);
}
);
width = 590;
},
{
anchors = (
{
name = bottom;
position = "{208, 0}";
},
{
name = top;
position = "{361, 687}";
}
);
layerId = "84328D8E-4D54-44EF-AF5C-0364B1C28646";
paths = (
{
closed = 1;
nodes = (
"235 0 LINE",
"371 651 LINE",
"623 651 LINE",
"630 687 LINE",
"90 687 LINE",
"83 651 LINE",
"335 651 LINE",
"199 0 LINE"
);
}
);
width = 542;
},
{
anchors = (
{
name = bottom;
position = "{276, 0}";
},
{
name = top;
position = "{425, 687}";
}
);
layerId = "88AF04C7-891B-4BE3-8AB1-6195D630646B";
paths = (
{
closed = 1;
nodes = (
"379 0 LINE",
"486 514 LINE",
"689 514 LINE",
"725 687 LINE",
"125 687 LINE",
"89 514 LINE",
"292 514 LINE",
"185 0 LINE"
);
}
);
width = 672;
},
{
anchors = (
{
name = bottom;
position = "{276, 0}";
},
{
name = top;
position = "{425, 687}";
}
);
associatedMasterId = "88AF04C7-891B-4BE3-8AB1-6195D630646B";
layerId = "8E99698E-1BFE-4269-BF25-E7D55490F24A";
name = bubble;
paths = (
{
closed = 1;
nodes = (
"475 -57 LINE",
"582 457 LINE",
"713 457 LINE",
"773 744 LINE",
"101 744 LINE",
"41 457 LINE",
"172 457 LINE",
"65 -57 LINE"
);
}
);
width = 672;
},
{
anchors = (
{
name = bottom;
position = "{233, 0}";
},
{
name = top;
position = "{384, 687}";
}
);
associatedMasterId = "119329DF-C854-46E0-93EC-7E8A22DFCA4F";
layerId = "A524EC73-937B-4541-9AA2-21BF25944FBB";
name = bubble;
paths = (
{
closed = 1;
nodes = (
"402 -88 LINE",
"530 525 LINE",
"645 525 LINE",
"696 775 LINE",
"107 775 LINE",
"56 525 LINE",
"172 525 LINE",
"44 -88 LINE"
);
}
);
width = 590;
},
{
anchors = (
{
name = bottom;
position = "{208, 0}";
},
{
name = top;
position = "{361, 687}";
}
);
associatedMasterId = "84328D8E-4D54-44EF-AF5C-0364B1C28646";
layerId = "2DD5B637-1562-4BB2-BC74-1D424FABB0A0";
name = bubble;
paths = (
{
closed = 1;
nodes = (
"378 -102 LINE",
"514 549 LINE",
"602 549 LINE",
"649 789 LINE",
"110 789 LINE",
"63 549 LINE",
"149 549 LINE",
"13 -102 LINE"
);
}
);
width = 542;
}
);
leftKerningGroup = T;
rightKerningGroup = T;
unicode = 0054;
},
{
color = 1;
glyphname = U;
lastChange = "2018-09-01 04:23:49 +0000";
layers = (
{
anchors = (
{
name = bottom;
position = "{339, 0}";
},
{
name = top;
position = "{464, 687}";
}
);
layerId = "119329DF-C854-46E0-93EC-7E8A22DFCA4F";
paths = (
{
closed = 1;
nodes = (
"490 -12 OFFCURVE",
"633 110 OFFCURVE",
"669 282 CURVE SMOOTH",
"753 687 LINE",
"675 687 LINE",
"592 288 LINE SMOOTH",
"565 154 OFFCURVE",
"459 59 OFFCURVE",
"336 59 CURVE SMOOTH",
"214 59 OFFCURVE",
"146 151 OFFCURVE",
"173 282 CURVE SMOOTH",
"257 687 LINE",
"179 687 LINE",
"96 288 LINE SMOOTH",
"60 112 OFFCURVE",
"153 -12 OFFCURVE",
"322 -12 CURVE SMOOTH"
);
}
);
width = 755;
},
{
anchors = (
{
name = bottom;
position = "{326, 0}";
},
{
name = top;
position = "{454, 687}";
}
);
layerId = "84328D8E-4D54-44EF-AF5C-0364B1C28646";
paths = (
{
closed = 1;
nodes = (
"471 -12 OFFCURVE",
"604 102 OFFCURVE",
"637 264 CURVE SMOOTH",
"725 687 LINE",
"689 687 LINE",
"602 266 LINE SMOOTH",
"573 125 OFFCURVE",
"455 24 OFFCURVE",
"319 24 CURVE SMOOTH",
"185 24 OFFCURVE",
"112 123 OFFCURVE",
"141 264 CURVE SMOOTH",
"229 687 LINE",
"193 687 LINE",
"106 266 LINE SMOOTH",
"72 104 OFFCURVE",
"159 -12 OFFCURVE",
"317 -12 CURVE SMOOTH"
);
}
);
width = 742;
},
{
anchors = (
{
name = bottom;
position = "{351, 0}";
},
{
name = top;
position = "{460, 687}";
}
);
layerId = "88AF04C7-891B-4BE3-8AB1-6195D630646B";
paths = (
{
closed = 1;
nodes = (
"528 -12 OFFCURVE",
"683 111 OFFCURVE",
"721 297 CURVE SMOOTH",
"802 687 LINE",
"608 687 LINE",
"533 323 LINE SMOOTH",
"514 235 OFFCURVE",
"438 164 OFFCURVE",
"354 164 CURVE SMOOTH",
"282 164 OFFCURVE",
"245 219 OFFCURVE",
"263 307 CURVE SMOOTH",
"342 687 LINE",
"148 687 LINE",
"70 313 LINE SMOOTH",
"32 127 OFFCURVE",
"144 -12 OFFCURVE",
"342 -12 CURVE SMOOTH"
);
}
);
width = 773;
},
{
anchors = (
{
name = bottom;
position = "{351, 0}";
},
{
name = top;
position = "{460, 687}";
}
);
associatedMasterId = "88AF04C7-891B-4BE3-8AB1-6195D630646B";
layerId = "F35A9367-791E-4D79-8BEA-09D6CAA0A005";
name = bubble;
paths = (
{
closed = 1;
nodes = (
"557 -68 OFFCURVE",
"734 76 OFFCURVE",
"777 286 CURVE SMOOTH",
"872 743 LINE",
"101 743 LINE",
"14 324 LINE SMOOTH",
"-31 101 OFFCURVE",
"110 -68 OFFCURVE",
"342 -68 CURVE SMOOTH"
);
}
);
width = 773;
},
{
anchors = (
{
name = bottom;
position = "{339, 0}";
},
{
name = top;
position = "{464, 687}";
}
);
associatedMasterId = "119329DF-C854-46E0-93EC-7E8A22DFCA4F";
layerId = "853183A3-548B-4C23-A6F2-FA401A467A27";
name = bubble;
paths = (
{
closed = 1;
nodes = (
"531 -100 OFFCURVE",
"711 51 OFFCURVE",
"755 264 CURVE SMOOTH",
"861 775 LINE",
"107 775 LINE",
"10 306 LINE SMOOTH",
"-37 75 OFFCURVE",
"97 -100 OFFCURVE",
"322 -100 CURVE SMOOTH"
);
}
);
width = 755;
},
{
anchors = (
{
name = bottom;
position = "{326, 0}";
},
{
name = top;
position = "{454, 687}";
}
);
associatedMasterId = "84328D8E-4D54-44EF-AF5C-0364B1C28646";
layerId = "1FA31EE6-7702-47F8-93C3-805A97128ED0";
name = bubble;
paths = (
{
closed = 1;
nodes = (
"520 -114 OFFCURVE",
"694 35 OFFCURVE",
"737 244 CURVE SMOOTH",
"850 789 LINE",
"110 789 LINE",
"6 287 LINE SMOOTH",
"-41 61 OFFCURVE",
"94 -114 OFFCURVE",
"317 -114 CURVE SMOOTH"
);
}
);
width = 742;
}
);
leftKerningGroup = U;
rightKerningGroup = J;
unicode = 0055;
},
{
color = 1;
glyphname = V;
lastChange = "2019-04-08 09:36:05 +0000";
layers = (
{
components = (
{
name = capital_V;
}
);
layerId = "119329DF-C854-46E0-93EC-7E8A22DFCA4F";
width = 741;
},
{
components = (
{
name = capital_V;
}
);
layerId = "84328D8E-4D54-44EF-AF5C-0364B1C28646";
width = 676;
},
{
components = (
{
name = capital_V;
}
);
layerId = "88AF04C7-891B-4BE3-8AB1-6195D630646B";
width = 801;
},
{
associatedMasterId = "84328D8E-4D54-44EF-AF5C-0364B1C28646";
layerId = "C74EC969-6AE2-4472-9645-B8A7DC490A27";
name = bubble;
paths = (
{
closed = 1;
nodes = (
"460 0 LINE",
"765 687 LINE",
"89 687 LINE",
"110 0 LINE"
);
}
);
width = 676;
},
{
associatedMasterId = "119329DF-C854-46E0-93EC-7E8A22DFCA4F";
layerId = "0BFAEB04-9A3B-4B68-8AE8-0D02E2BE59DC";
name = bubble;
paths = (
{
closed = 1;
nodes = (
"519 0 LINE",
"830 687 LINE",
"89 687 LINE",
"114 0 LINE"
);
}
);
width = 741;
},
{
associatedMasterId = "88AF04C7-891B-4BE3-8AB1-6195D630646B";
layerId = "5948B1E0-FDB0-4189-B502-5788D3CBB8A7";
name = bubble;
paths = (
{
closed = 1;
nodes = (
"619 0 LINE",
"890 687 LINE",
"89 687 LINE",
"76 0 LINE"
);
}
);
width = 801;
}
);
leftKerningGroup = V;
rightKerningGroup = V;
unicode = 0056;
},
{
color = 1;
glyphname = W;
lastChange = "2018-09-01 04:20:13 +0000";
layers = (
{
anchors = (
{
name = top;
position = "{622, 687}";
}
);
layerId = "119329DF-C854-46E0-93EC-7E8A22DFCA4F";
paths = (
{
closed = 1;
nodes = (
"288 0 LINE",
"603 585 LINE",
"671 0 LINE",
"748 0 LINE",
"1126 687 LINE",
"1037 687 LINE",
"730 131 LINE",
"665 687 LINE",
"578 687 LINE",
"279 131 LINE",
"206 687 LINE",
"119 687 LINE",
"211 0 LINE"
);
}
);
width = 1067;
},
{
anchors = (
{
name = top;
position = "{595, 687}";
}
);
layerId = "84328D8E-4D54-44EF-AF5C-0364B1C28646";
paths = (
{
closed = 1;
nodes = (
"242 0 LINE",
"584 629 LINE",
"663 0 LINE",
"702 0 LINE",
"1075 687 LINE",
"1035 687 LINE",
"694 58 LINE",
"614 687 LINE",
"575 687 LINE",
"234 58 LINE",
"154 687 LINE",
"116 687 LINE",
"203 0 LINE"
);
}
);
width = 1013;
},
{
anchors = (
{
name = top;
position = "{645, 687}";
}
);
layerId = "88AF04C7-891B-4BE3-8AB1-6195D630646B";
paths = (
{
closed = 1;
nodes = (
"361 0 LINE",
"590 397 LINE",
"648 0 LINE",
"844 0 LINE",
"1177 687 LINE",
"965 687 LINE",
"797 290 LINE",
"749 687 LINE",
"540 687 LINE",
"323 290 LINE",
"323 687 LINE",
"117 687 LINE",
"165 0 LINE"
);
}
);
width = 1117;
}
);
leftKerningGroup = W;
rightKerningGroup = W;
unicode = 0057;
},
{
color = 1;
glyphname = X;
lastChange = "2018-09-01 04:20:13 +0000";
layers = (
{
layerId = "84328D8E-4D54-44EF-AF5C-0364B1C28646";
paths = (
{
closed = 1;
nodes = (
"116 687 LINE",
"158 687 LINE",
"541 0 LINE",
"498 0 LINE"
);
},
{
closed = 1;
nodes = (
"640 687 LINE",
"687 687 LINE",
"18 0 LINE",
"-29 0 LINE"
);
}
);
width = 624;
},
{
layerId = "119329DF-C854-46E0-93EC-7E8A22DFCA4F";
paths = (
{
closed = 1;
nodes = (
"120 687 LINE",
"213 687 LINE",
"595 0 LINE",
"502 0 LINE"
);
},
{
closed = 1;
nodes = (
"643 687 LINE",
"741 687 LINE",
"72 0 LINE",
"-26 0 LINE"
);
}
);
width = 680;
},
{
layerId = "88AF04C7-891B-4BE3-8AB1-6195D630646B";
paths = (
{
closed = 1;
nodes = (
"128 687 LINE",
"346 687 LINE",
"689 0 LINE",
"471 0 LINE"
);
},
{
closed = 1;
nodes = (
"605 687 LINE",
"845 687 LINE",
"212 0 LINE",
"-28 0 LINE"
);
}
);
width = 782;
}
);
leftKerningGroup = X;
rightKerningGroup = X;
unicode = 0058;
},
{
color = 1;
glyphname = Y;
lastChange = "2018-09-01 04:20:13 +0000";
layers = (
{
anchors = (
{
name = top;
position = "{417, 687}";
}
);
layerId = "119329DF-C854-46E0-93EC-7E8A22DFCA4F";
paths = (
{
closed = 1;
nodes = (
"323 0 LINE",
"383 280 LINE",
"743 687 LINE",
"647 687 LINE",
"348 347 LINE",
"187 687 LINE",
"108 687 LINE",
"301 280 LINE",
"241 0 LINE"
);
}
);
width = 673;
},
{
anchors = (
{
name = top;
position = "{386, 687}";
}
);
layerId = "84328D8E-4D54-44EF-AF5C-0364B1C28646";
paths = (
{
closed = 1;
nodes = (
"263 0 LINE",
"322 279 LINE",
"687 687 LINE",
"640 687 LINE",
"308 317 LINE",
"131 687 LINE",
"91 687 LINE",
"286 279 LINE",
"227 0 LINE"
);
}
);
width = 600;
},
{
anchors = (
{
name = top;
position = "{456, 687}";
}
);
layerId = "88AF04C7-891B-4BE3-8AB1-6195D630646B";
paths = (
{
closed = 1;
nodes = (
"426 0 LINE",
"476 226 LINE",
"835 687 LINE",
"617 687 LINE",
"400 394 LINE",
"294 687 LINE",
"114 687 LINE",
"282 226 LINE",
"232 0 LINE"
);
}
);
width = 771;
}
);
leftKerningGroup = Y;
rightKerningGroup = Y;
unicode = 0059;
},
{
color = 1;
glyphname = Z;
lastChange = "2018-09-01 04:20:13 +0000";
layers = (
{
anchors = (
{
name = top;
position = "{398, 687}";
}
);
layerId = "119329DF-C854-46E0-93EC-7E8A22DFCA4F";
paths = (
{
closed = 1;
nodes = (
"516 0 LINE",
"532 74 LINE",
"114 74 LINE",
"643 625 LINE",
"655 687 LINE",
"141 687 LINE",
"126 613 LINE",
"532 613 LINE",
"3 62 LINE",
"-8 0 LINE"
);
}
);
width = 615;
},
{
anchors = (
{
name = top;
position = "{375, 687}";
}
);
layerId = "84328D8E-4D54-44EF-AF5C-0364B1C28646";
paths = (
{
closed = 1;
nodes = (
"483 0 LINE",
"491 36 LINE",
"31 36 LINE",
"617 657 LINE",
"622 687 LINE",
"128 687 LINE",
"121 651 LINE",
"570 651 LINE",
"-16 30 LINE",
"-21 0 LINE"
);
}
);
width = 571;
},
{
anchors = (
{
name = top;
position = "{437, 687}";
}
);
layerId = "88AF04C7-891B-4BE3-8AB1-6195D630646B";
paths = (
{
closed = 1;
nodes = (
"591 0 LINE",
"627 173 LINE",
"301 173 LINE",
"701 542 LINE",
"729 687 LINE",
"145 687 LINE",
"109 514 LINE",
"425 514 LINE",
"22 145 LINE",
"-4 0 LINE"
);
}
);
width = 693;
}
);
leftKerningGroup = Z;
rightKerningGroup = Z;
unicode = 005A;
},
{
color = 1;
glyphname = ae;
lastChange = "2018-09-01 04:06:20 +0000";
layers = (
{
components = (
{
name = e;
transform = "{1, 0, 0, 1, 387, 0}";
}
);
layerId = "84328D8E-4D54-44EF-AF5C-0364B1C28646";
paths = (
{
closed = 1;
nodes = (
"318 -12 OFFCURVE",
"431 81 OFFCURVE",
"459 215 CURVE",
"480 314 LINE SMOOTH",
"506 439 OFFCURVE",
"448 529 OFFCURVE",
"323 529 CURVE SMOOTH",
"270 529 OFFCURVE",
"200 513 OFFCURVE",
"136 480 CURVE",
"147 447 LINE",
"201 476 OFFCURVE",
"262 493 OFFCURVE",
"316 493 CURVE SMOOTH",
"437 493 OFFCURVE",
"462 403 OFFCURVE",
"444 316 CURVE SMOOTH",
"424 217 LINE",
"400 105 OFFCURVE",
"303 24 OFFCURVE",
"190 24 CURVE SMOOTH",
"95 24 OFFCURVE",
"39 77 OFFCURVE",
"55 152 CURVE SMOOTH",
"72 232 OFFCURVE",
"156 289 OFFCURVE",
"263 289 CURVE SMOOTH",
"326 289 OFFCURVE",
"394 269 OFFCURVE",
"445 249 CURVE",
"449 283 LINE",
"393 307 OFFCURVE",
"323 325 OFFCURVE",
"260 325 CURVE SMOOTH",
"137 325 OFFCURVE",
"41 255 OFFCURVE",
"20 157 CURVE SMOOTH",
"-1 58 OFFCURVE",
"68 -12 OFFCURVE",
"184 -12 CURVE SMOOTH"
);
}
);
width = 954;
},
{
components = (
{
name = e;
transform = "{1, 0, 0, 1, 363, 0}";
}
);
layerId = "119329DF-C854-46E0-93EC-7E8A22DFCA4F";
paths = (
{
closed = 1;
nodes = (
"315 -12 OFFCURVE",
"446 88 OFFCURVE",
"471 210 CURVE",
"492 312 LINE SMOOTH",
"518 437 OFFCURVE",
"466 529 OFFCURVE",
"322 529 CURVE SMOOTH",
"275 529 OFFCURVE",
"211 517 OFFCURVE",
"129 480 CURVE",
"152 417 LINE",
"203 441 OFFCURVE",
"260 465 OFFCURVE",
"315 465 CURVE SMOOTH",
"424 465 OFFCURVE",
"434 388 OFFCURVE",
"419 318 CURVE SMOOTH",
"395 206 LINE",
"379 125 OFFCURVE",
"288 54 OFFCURVE",
"199 54 CURVE SMOOTH",
"115 54 OFFCURVE",
"73 89 OFFCURVE",
"86 150 CURVE SMOOTH",
"100 215 OFFCURVE",
"177 262 OFFCURVE",
"256 262 CURVE SMOOTH",
"324 262 OFFCURVE",
"385 251 OFFCURVE",
"436 231 CURVE",
"442 283 LINE",
"386 307 OFFCURVE",
"317 325 OFFCURVE",
"247 325 CURVE SMOOTH",
"138 325 OFFCURVE",
"35 259 OFFCURVE",
"15 159 CURVE SMOOTH",
"-6 52 OFFCURVE",
"56 -12 OFFCURVE",
"183 -12 CURVE SMOOTH"
);
}
);
width = 921;
},
{
components = (
{
name = e;
transform = "{1, 0, 0, 1, 341, 0}";
}
);
layerId = "88AF04C7-891B-4BE3-8AB1-6195D630646B";
paths = (
{
closed = 1;
nodes = (
"352 -12 OFFCURVE",
"448 55 OFFCURVE",
"474 180 CURVE",
"507 337 LINE SMOOTH",
"530 445 OFFCURVE",
"454 529 OFFCURVE",
"325 529 CURVE SMOOTH",
"244 529 OFFCURVE",
"183 507 OFFCURVE",
"104 471 CURVE",
"152 343 LINE",
"191 362 OFFCURVE",
"235 376 OFFCURVE",
"286 376 CURVE SMOOTH",
"347 376 OFFCURVE",
"375 358 OFFCURVE",
"366 313 CURVE SMOOTH",
"337 171 LINE",
"330 138 OFFCURVE",
"287 112 OFFCURVE",
"226 112 CURVE SMOOTH",
"198 112 OFFCURVE",
"182 124 OFFCURVE",
"186 143 CURVE SMOOTH",
"194 179 OFFCURVE",
"232 208 OFFCURVE",
"275 208 CURVE SMOOTH",
"299 208 OFFCURVE",
"327 205 OFFCURVE",
"348 192 CURVE",
"407 270 LINE",
"360 304 OFFCURVE",
"304 325 OFFCURVE",
"248 325 CURVE SMOOTH",
"129 325 OFFCURVE",
"24 262 OFFCURVE",
"4 168 CURVE SMOOTH",
"-18 64 OFFCURVE",
"68 -12 OFFCURVE",
"208 -12 CURVE SMOOTH"
);
}
);
width = 881;
}
);
leftKerningGroup = a;
rightKerningGroup = e;
unicode = 00E6;
},
{
color = 1;
glyphname = c;
lastChange = "2018-09-01 04:20:13 +0000";
layers = (
{
anchors = (
{
name = bottom;
position = "{250, 0}";
},
{
name = top;
position = "{351, 517}";
}
);
layerId = "119329DF-C854-46E0-93EC-7E8A22DFCA4F";
paths = (
{
closed = 1;
nodes = (
"329 -12 OFFCURVE",
"397 13 OFFCURVE",
"459 65 CURVE",
"414 120 LINE",
"367 76 OFFCURVE",
"318 55 OFFCURVE",
"266 55 CURVE SMOOTH",
"185 55 OFFCURVE",
"116 127 OFFCURVE",
"116 213 CURVE SMOOTH",
"116 348 OFFCURVE",
"223 462 OFFCURVE",
"351 462 CURVE SMOOTH",
"399 462 OFFCURVE",
"450 438 OFFCURVE",
"474 404 CURVE",
"533 451 LINE",
"494 497 OFFCURVE",
"425 529 OFFCURVE",
"365 529 CURVE SMOOTH",
"187 529 OFFCURVE",
"38 382 OFFCURVE",
"38 208 CURVE SMOOTH",
"38 89 OFFCURVE",
"136 -12 OFFCURVE",
"253 -12 CURVE SMOOTH"
);
}
);
width = 521;
},
{
anchors = (
{
name = bottom;
position = "{250, 0}";
},
{
name = top;
position = "{351, 517}";
}
);
layerId = "84328D8E-4D54-44EF-AF5C-0364B1C28646";
paths = (
{
closed = 1;
nodes = (
"312 -12 OFFCURVE",
"391 19 OFFCURVE",
"443 63 CURVE",
"421 90 LINE",
"375 51 OFFCURVE",
"305 24 OFFCURVE",
"254 24 CURVE SMOOTH",
"150 24 OFFCURVE",
"77 96 OFFCURVE",
"77 198 CURVE SMOOTH",
"77 358 OFFCURVE",
"205 493 OFFCURVE",
"357 493 CURVE SMOOTH",
"408 493 OFFCURVE",
"464 466 OFFCURVE",
"493 429 CURVE",
"522 452 LINE",
"486 497 OFFCURVE",
"419 529 OFFCURVE",
"359 529 CURVE SMOOTH",
"186 529 OFFCURVE",
"41 376 OFFCURVE",
"41 195 CURVE SMOOTH",
"41 74 OFFCURVE",
"128 -12 OFFCURVE",
"252 -12 CURVE SMOOTH"
);
}
);
width = 507;
},
{
anchors = (
{
name = bottom;
position = "{257, 0}";
},
{
name = top;
position = "{350, 517}";
}
);
layerId = "88AF04C7-891B-4BE3-8AB1-6195D630646B";
paths = (
{
closed = 1;
nodes = (
"364 -12 OFFCURVE",
"442 21 OFFCURVE",
"506 81 CURVE",
"393 195 LINE",
"369 171 OFFCURVE",
"324 148 OFFCURVE",
"285 148 CURVE SMOOTH",
"239 148 OFFCURVE",
"207 181 OFFCURVE",
"207 225 CURVE SMOOTH",
"207 293 OFFCURVE",
"280 369 OFFCURVE",
"355 369 CURVE SMOOTH",
"381 369 OFFCURVE",
"414 358 OFFCURVE",
"429 335 CURVE",
"569 427 LINE",
"529 485 OFFCURVE",
"463 529 OFFCURVE",
"365 529 CURVE SMOOTH",
"198 529 OFFCURVE",
"26 391 OFFCURVE",
"26 222 CURVE SMOOTH",
"26 91 OFFCURVE",
"130 -12 OFFCURVE",
"274 -12 CURVE SMOOTH"
);
}
);
width = 560;
}
);
leftKerningGroup = c;
rightKerningGroup = c;
unicode = 0063;
},
{
color = 1;
glyphname = eth;
lastChange = "2018-05-31 09:24:17 +0000";
layers = (
{
layerId = "84328D8E-4D54-44EF-AF5C-0364B1C28646";
paths = (
{
closed = 1;
nodes = (
"157 24 OFFCURVE",
"93 90 OFFCURVE",
"93 188 CURVE SMOOTH",
"93 332 OFFCURVE",
"208 467 OFFCURVE",
"359 467 CURVE SMOOTH",
"464 467 OFFCURVE",
"526 403 OFFCURVE",
"526 306 CURVE SMOOTH",
"526 162 OFFCURVE",
"410 24 OFFCURVE",
"260 24 CURVE SMOOTH"
);
},
{
closed = 1;
nodes = (
"488 525 OFFCURVE",
"522 414 CURVE",
"487 478 OFFCURVE",
"427 503 OFFCURVE",
"360 503 CURVE SMOOTH",
"191 503 OFFCURVE",
"57 353 OFFCURVE",
"57 186 CURVE SMOOTH",
"57 67 OFFCURVE",
"134 -12 OFFCURVE",
"259 -12 CURVE SMOOTH",
"433 -12 OFFCURVE",
"564 149 OFFCURVE",
"564 325 CURVE SMOOTH",
"564 483 OFFCURVE",
"458 625 OFFCURVE",
"329 712 CURVE",
"295 697 LINE",
"399 623 OFFCURVE"
);
},
{
closed = 1;
nodes = (
"528 652 LINE",
"519 685 LINE",
"258 578 LINE",
"267 545 LINE"
);
}
);
width = 625;
},
{
layerId = "119329DF-C854-46E0-93EC-7E8A22DFCA4F";
paths = (
{
closed = 1;
nodes = (
"175 56 OFFCURVE",
"123 110 OFFCURVE",
"123 193 CURVE SMOOTH",
"123 320 OFFCURVE",
"223 432 OFFCURVE",
"347 432 CURVE SMOOTH",
"436 432 OFFCURVE",
"484 373 OFFCURVE",
"484 294 CURVE SMOOTH",
"484 170 OFFCURVE",
"382 56 OFFCURVE",
"261 56 CURVE SMOOTH"
);
},
{
closed = 1;
nodes = (
"456 522 OFFCURVE",
"486 417 CURVE",
"451 466 OFFCURVE",
"403 498 OFFCURVE",
"331 498 CURVE SMOOTH",
"171 498 OFFCURVE",
"45 352 OFFCURVE",
"45 192 CURVE SMOOTH",
"45 70 OFFCURVE",
"127 -12 OFFCURVE",
"257 -12 CURVE SMOOTH",
"437 -12 OFFCURVE",
"570 159 OFFCURVE",
"570 342 CURVE SMOOTH",
"570 477 OFFCURVE",
"489 584 OFFCURVE",
"348 714 CURVE",
"270 687 LINE",
"368 611 OFFCURVE"
);
},
{
closed = 1;
nodes = (
"533 640 LINE",
"518 702 LINE",
"238 587 LINE",
"253 525 LINE"
);
}
);
width = 616;
},
{
layerId = "88AF04C7-891B-4BE3-8AB1-6195D630646B";
paths = (
{
closed = 1;
nodes = (
"229 149 OFFCURVE",
"201 172 OFFCURVE",
"201 211 CURVE SMOOTH",
"201 275 OFFCURVE",
"265 338 OFFCURVE",
"338 338 CURVE SMOOTH",
"385 338 OFFCURVE",
"412 313 OFFCURVE",
"412 277 CURVE SMOOTH",
"412 211 OFFCURVE",
"349 149 OFFCURVE",
"275 149 CURVE SMOOTH"
);
},
{
closed = 1;
nodes = (
"402 520 OFFCURVE",
"421 427 CURVE",
"390 461 OFFCURVE",
"351 492 OFFCURVE",
"281 492 CURVE SMOOTH",
"132 492 OFFCURVE",
"20 355 OFFCURVE",
"20 205 CURVE SMOOTH",
"20 76 OFFCURVE",
"116 -12 OFFCURVE",
"265 -12 CURVE SMOOTH",
"461 -12 OFFCURVE",
"606 156 OFFCURVE",
"606 358 CURVE SMOOTH",
"606 492 OFFCURVE",
"528 594 OFFCURVE",
"384 727 CURVE",
"212 664 LINE",
"316 588 OFFCURVE"
);
},
{
closed = 1;
nodes = (
"547 638 LINE",
"524 726 LINE",
"217 599 LINE",
"240 511 LINE"
);
}
);
width = 622;
}
);
unicode = 00F0;
},
{
color = 1;
glyphname = dcroat;
lastChange = "2018-09-01 04:06:20 +0000";
layers = (
{
components = (
{
name = d;
}
);
layerId = "84328D8E-4D54-44EF-AF5C-0364B1C28646";
paths = (
{
closed = 1;
nodes = (
"659 592 LINE",
"666 628 LINE",
"376 628 LINE",
"369 592 LINE"
);
}
);
width = 633;
},
{
components = (
{
name = d;
}
);
layerId = "119329DF-C854-46E0-93EC-7E8A22DFCA4F";
paths = (
{
closed = 1;
nodes = (
"687 585 LINE",
"698 635 LINE",
"388 635 LINE",
"377 585 LINE"
);
}
);
width = 638;
},
{
components = (
{
name = d;
}
);
layerId = "88AF04C7-891B-4BE3-8AB1-6195D630646B";
paths = (
{
closed = 1;
nodes = (
"744 565 LINE",
"763 655 LINE",
"373 655 LINE",
"354 565 LINE"
);
}
);
width = 678;
}
);
unicode = 0111;
},
{
color = 1;
glyphname = e;
lastChange = "2018-09-01 07:20:42 +0000";
layers = (
{
anchors = (
{
name = bottom;
position = "{247, -12}";
},
{
name = top;
position = "{353, 517}";
}
);
layerId = "119329DF-C854-46E0-93EC-7E8A22DFCA4F";
paths = (
{
closed = 1;
nodes = (
"317 -12 OFFCURVE",
"420 17 OFFCURVE",
"475 66 CURVE",
"435 119 LINE",
"397 84 OFFCURVE",
"324 55 OFFCURVE",
"260 55 CURVE SMOOTH",
"168 55 OFFCURVE",
"112 116 OFFCURVE",
"112 210 CURVE SMOOTH",
"112 334 OFFCURVE",
"210 462 OFFCURVE",
"349 462 CURVE SMOOTH",
"416 462 OFFCURVE",
"466 432 OFFCURVE",
"466 382 CURVE SMOOTH",
"466 328 OFFCURVE",
"409 297 OFFCURVE",
"309 297 CURVE",
"102 297 LINE",
"88 230 LINE",
"295 230 LINE",
"449 230 OFFCURVE",
"540 295 OFFCURVE",
"540 386 CURVE SMOOTH",
"540 475 OFFCURVE",
"452 529 OFFCURVE",
"355 529 CURVE SMOOTH",
"192 529 OFFCURVE",
"38 376 OFFCURVE",
"38 204 CURVE SMOOTH",
"38 75 OFFCURVE",
"125 -12 OFFCURVE",
"247 -12 CURVE SMOOTH"
);
}
);
width = 558;
},
{
anchors = (
{
name = bottom;
position = "{246, -12}";
},
{
name = top;
position = "{353, 517}";
}
);
layerId = "84328D8E-4D54-44EF-AF5C-0364B1C28646";
paths = (
{
closed = 1;
nodes = (
"326 -12 OFFCURVE",
"424 20 OFFCURVE",
"476 67 CURVE",
"455 96 LINE",
"403 49 OFFCURVE",
"325 24 OFFCURVE",
"250 24 CURVE SMOOTH",
"148 24 OFFCURVE",
"76 105 OFFCURVE",
"76 209 CURVE SMOOTH",
"76 350 OFFCURVE",
"204 493 OFFCURVE",
"350 493 CURVE SMOOTH",
"441 493 OFFCURVE",
"505 448 OFFCURVE",
"505 385 CURVE SMOOTH",
"505 318 OFFCURVE",
"431 278 OFFCURVE",
"305 278 CURVE",
"70 278 LINE",
"63 242 LINE",
"298 242 LINE",
"451 242 OFFCURVE",
"541 296 OFFCURVE",
"541 387 CURVE SMOOTH",
"541 470 OFFCURVE",
"464 529 OFFCURVE",
"356 529 CURVE SMOOTH",
"191 529 OFFCURVE",
"40 371 OFFCURVE",
"40 205 CURVE SMOOTH",
"40 82 OFFCURVE",
"124 -12 OFFCURVE",
"245 -12 CURVE SMOOTH"
);
}
);
width = 567;
},
{
anchors = (
{
name = bottom;
position = "{267, -12}";
},
{
name = top;
position = "{349, 517}";
}
);
layerId = "88AF04C7-891B-4BE3-8AB1-6195D630646B";
paths = (
{
closed = 1;
nodes = (
"340 -12 OFFCURVE",
"432 16 OFFCURVE",
"488 63 CURVE",
"395 180 LINE",
"357 153 OFFCURVE",
"310 132 OFFCURVE",
"264 132 CURVE SMOOTH",
"217 132 OFFCURVE",
"189 163 OFFCURVE",
"189 213 CURVE SMOOTH",
"189 295 OFFCURVE",
"257 385 OFFCURVE",
"342 385 CURVE SMOOTH",
"372 385 OFFCURVE",
"394 374 OFFCURVE",
"394 359 CURVE SMOOTH",
"393 331 OFFCURVE",
"363 314 OFFCURVE",
"314 314 CURVE",
"96 314 LINE",
"75 213 LINE",
"293 213 LINE",
"454 207 OFFCURVE",
"549 272 OFFCURVE",
"549 388 CURVE SMOOTH",
"549 471 OFFCURVE",
"465 529 OFFCURVE",
"347 529 CURVE SMOOTH",
"167 529 OFFCURVE",
"27 387 OFFCURVE",
"27 210 CURVE SMOOTH",
"27 78 OFFCURVE",
"119 -12 OFFCURVE",
"267 -12 CURVE SMOOTH"
);
}
);
width = 556;
},
{
anchors = (
{
name = bottom;
position = "{251, -12}";
},
{
name = top;
position = "{333, 517}";
}
);
associatedMasterId = "88AF04C7-891B-4BE3-8AB1-6195D630646B";
layerId = "7FC9EBCD-26E6-4F9E-8182-21C2145997E2";
name = bubble;
paths = (
{
closed = 1;
nodes = (
"-3 60 OFFCURVE",
"107 -39 OFFCURVE",
"267 -39 CURVE SMOOTH",
"355 -39 OFFCURVE",
"457 -2 OFFCURVE",
"513 50 CURVE",
"571 334 LINE",
"598 461 OFFCURVE",
"503 556 OFFCURVE",
"347 556 CURVE SMOOTH",
"153 556 OFFCURVE",
"-3 403 OFFCURVE",
"-3 210 CURVE SMOOTH"
);
}
);
width = 556;
},
{
anchors = (
{
name = bottom;
position = "{227, -12}";
},
{
name = top;
position = "{333, 517}";
}
);
associatedMasterId = "119329DF-C854-46E0-93EC-7E8A22DFCA4F";
layerId = "BA2E4270-151E-4426-9B44-E4869079F37A";
name = bubble;
paths = (
{
closed = 1;
nodes = (
"-4 53 OFFCURVE",
"100 -54 OFFCURVE",
"247 -54 CURVE SMOOTH",
"343 -54 OFFCURVE",
"462 -11 OFFCURVE",
"514 45 CURVE",
"582 386 LINE",
"582 492 OFFCURVE",
"484 571 OFFCURVE",
"355 571 CURVE SMOOTH",
"166 571 OFFCURVE",
"-4 397 OFFCURVE",
"-4 204 CURVE SMOOTH"
);
}
);
width = 558;
},
{
anchors = (
{
name = bottom;
position = "{234, -12}";
},
{
name = top;
position = "{341, 517}";
}
);
associatedMasterId = "84328D8E-4D54-44EF-AF5C-0364B1C28646";
layerId = "A04CA428-1DB8-447C-89F0-D2A609024956";
name = bubble;
paths = (
{
closed = 1;
nodes = (
"-4 55 OFFCURVE",
"102 -56 OFFCURVE",
"245 -56 CURVE SMOOTH",
"349 -56 OFFCURVE",
"473 -9 OFFCURVE",
"524 54 CURVE",
"585 387 LINE",
"585 495 OFFCURVE",
"488 573 OFFCURVE",
"356 573 CURVE SMOOTH",
"168 573 OFFCURVE",
"-4 397 OFFCURVE",
"-4 205 CURVE SMOOTH"
);
}
);
width = 567;
}
);
leftKerningGroup = e;
rightKerningGroup = e;
unicode = 0065;
},
{
color = 1;
glyphname = f;
lastChange = "2018-09-01 04:20:13 +0000";
layers = (
{
layerId = "119329DF-C854-46E0-93EC-7E8A22DFCA4F";
paths = (
{
closed = 1;
nodes = (
"126 0 LINE",
"248 585 LINE SMOOTH",
"256 623 OFFCURVE",
"290 653 OFFCURVE",
"326 653 CURVE SMOOTH",
"343 653 OFFCURVE",
"362 646 OFFCURVE",
"370 634 CURVE",
"415 685 LINE",
"391 706 OFFCURVE",
"359 720 OFFCURVE",
"322 720 CURVE SMOOTH",
"250 720 OFFCURVE",
"190 668 OFFCURVE",
"174 591 CURVE SMOOTH",
"51 0 LINE"
);
},
{
closed = 1;
nodes = (
"347 450 LINE",
"361 517 LINE",
"78 517 LINE",
"64 450 LINE"
);
}
);
width = 315;
},
{
layerId = "84328D8E-4D54-44EF-AF5C-0364B1C28646";
paths = (
{
closed = 1;
nodes = (
"100 0 LINE",
"222 587 LINE SMOOTH",
"234 643 OFFCURVE",
"272 684 OFFCURVE",
"323 684 CURVE SMOOTH",
"344 684 OFFCURVE",
"368 677 OFFCURVE",
"385 660 CURVE",
"409 686 LINE",
"385 708 OFFCURVE",
"355 720 OFFCURVE",
"317 720 CURVE SMOOTH",
"257 720 OFFCURVE",
"203 666 OFFCURVE",
"187 589 CURVE SMOOTH",
"64 0 LINE"
);
},
{
closed = 1;
nodes = (
"346 481 LINE",
"353 517 LINE",
"81 517 LINE",
"74 481 LINE"
);
}
);
width = 289;
},
{
layerId = "88AF04C7-891B-4BE3-8AB1-6195D630646B";
paths = (
{
closed = 1;
nodes = (
"220 0 LINE",
"326 509 LINE SMOOTH",
"332 535 OFFCURVE",
"356 570 OFFCURVE",
"401 570 CURVE SMOOTH",
"409 570 OFFCURVE",
"422 569 OFFCURVE",
"433 560 CURVE",
"479 662 LINE",
"452 693 OFFCURVE",
"403 720 OFFCURVE",
"344 720 CURVE SMOOTH",
"254 720 OFFCURVE",
"173 656 OFFCURVE",
"151 553 CURVE SMOOTH",
"36 0 LINE"
);
},
{
closed = 1;
nodes = (
"398 365 LINE",
"430 517 LINE",
"79 517 LINE",
"47 365 LINE"
);
}
);
width = 401;
}
);
leftKerningGroup = f;
rightKerningGroup = f;
unicode = 0066;
},
{
color = 1;
glyphname = g;
lastChange = "2018-09-01 04:20:13 +0000";
layers = (
{
anchors = (
{
name = bottom;
position = "{204, -172}";
},
{
name = top;
position = "{361, 517}";
}
);
layerId = "119329DF-C854-46E0-93EC-7E8A22DFCA4F";
paths = (
{
closed = 1;
nodes = (
"427 58 LINE SMOOTH",
"406 -43 OFFCURVE",
"318 -105 OFFCURVE",
"202 -105 CURVE SMOOTH",
"135 -105 OFFCURVE",
"80 -84 OFFCURVE",
"48 -46 CURVE",
"7 -101 LINE",
"46 -141 OFFCURVE",
"118 -172 OFFCURVE",
"204 -172 CURVE SMOOTH",
"347 -172 OFFCURVE",
"471 -86 OFFCURVE",
"500 52 CURVE SMOOTH",
"597 517 LINE",
"522 517 LINE"
);
},
{
closed = 1;
nodes = (
"172 105 OFFCURVE",
"121 157 OFFCURVE",
"121 240 CURVE SMOOTH",
"121 356 OFFCURVE",
"222 462 OFFCURVE",
"343 462 CURVE SMOOTH",
"427 462 OFFCURVE",
"479 411 OFFCURVE",
"479 328 CURVE SMOOTH",
"479 215 OFFCURVE",
"381 105 OFFCURVE",
"257 105 CURVE SMOOTH"
);
},
{
closed = 1;
nodes = (
"511 398 LINE",
"491 473 OFFCURVE",
"432 529 OFFCURVE",
"330 529 CURVE SMOOTH",
"169 529 OFFCURVE",
"42 387 OFFCURVE",
"42 234 CURVE SMOOTH",
"42 114 OFFCURVE",
"119 38 OFFCURVE",
"238 38 CURVE SMOOTH",
"331 38 OFFCURVE",
"410 84 OFFCURVE",
"465 163 CURVE"
);
}
);
width = 630;
},
{
anchors = (
{
name = bottom;
position = "{198, -172}";
},
{
name = top;
position = "{343, 517}";
}
);
layerId = "84328D8E-4D54-44EF-AF5C-0364B1C28646";
paths = (
{
closed = 1;
nodes = (
"441 56 LINE SMOOTH",
"418 -56 OFFCURVE",
"315 -136 OFFCURVE",
"198 -136 CURVE SMOOTH",
"132 -136 OFFCURVE",
"60 -110 OFFCURVE",
"23 -72 CURVE",
"1 -102 LINE",
"40 -142 OFFCURVE",
"121 -172 OFFCURVE",
"198 -172 CURVE SMOOTH",
"334 -172 OFFCURVE",
"449 -79 OFFCURVE",
"477 54 CURVE SMOOTH",
"573 517 LINE",
"537 517 LINE"
);
},
{
closed = 1;
nodes = (
"139 74 OFFCURVE",
"77 145 OFFCURVE",
"77 237 CURVE SMOOTH",
"77 365 OFFCURVE",
"196 493 OFFCURVE",
"331 493 CURVE SMOOTH",
"428 493 OFFCURVE",
"494 426 OFFCURVE",
"494 332 CURVE SMOOTH",
"494 199 OFFCURVE",
"372 74 OFFCURVE",
"238 74 CURVE SMOOTH"
);
},
{
closed = 1;
nodes = (
"513 381 LINE",
"500 476 OFFCURVE",
"421 529 OFFCURVE",
"329 529 CURVE SMOOTH",
"178 529 OFFCURVE",
"41 385 OFFCURVE",
"41 232 CURVE SMOOTH",
"41 121 OFFCURVE",
"117 38 OFFCURVE",
"230 38 CURVE SMOOTH",
"315 38 OFFCURVE",
"418 86 OFFCURVE",
"473 185 CURVE"
);
}
);
width = 620;
},
{
anchors = (
{
name = bottom;
position = "{236, -172}";
},
{
name = top;
position = "{393, 517}";
}
);
layerId = "88AF04C7-891B-4BE3-8AB1-6195D630646B";
paths = (
{
closed = 1;
nodes = (
"375 73 LINE SMOOTH",
"365 28 OFFCURVE",
"296 -12 OFFCURVE",
"211 -12 CURVE SMOOTH",
"164 -12 OFFCURVE",
"107 0 OFFCURVE",
"82 25 CURVE",
"1 -99 LINE",
"50 -139 OFFCURVE",
"134 -172 OFFCURVE",
"236 -172 CURVE SMOOTH",
"400 -172 OFFCURVE",
"535 -88 OFFCURVE",
"563 47 CURVE SMOOTH",
"661 517 LINE",
"467 517 LINE"
);
},
{
closed = 1;
nodes = (
"256 198 OFFCURVE",
"228 216 OFFCURVE",
"228 256 CURVE SMOOTH",
"228 316 OFFCURVE",
"291 369 OFFCURVE",
"357 369 CURVE SMOOTH",
"398 369 OFFCURVE",
"423 349 OFFCURVE",
"423 312 CURVE SMOOTH",
"423 252 OFFCURVE",
"359 198 OFFCURVE",
"294 198 CURVE SMOOTH"
);
},
{
closed = 1;
nodes = (
"460 432 LINE",
"446 483 OFFCURVE",
"376 529 OFFCURVE",
"294 529 CURVE SMOOTH",
"147 529 OFFCURVE",
"31 385 OFFCURVE",
"31 238 CURVE SMOOTH",
"31 120 OFFCURVE",
"106 38 OFFCURVE",
"219 38 CURVE SMOOTH",
"284 38 OFFCURVE",
"356 66 OFFCURVE",
"408 123 CURVE"
);
}
);
width = 665;
}
);
leftKerningGroup = g;
rightKerningGroup = g;
unicode = 0067;
},
{
color = 1;
glyphname = idotless;
lastChange = "2018-06-01 02:49:54 +0000";
layers = (
{
anchors = (
{
name = bottom;
position = "{108, 0}";
},
{
name = loop_left;
position = "{88, 260}";
},
{
name = r_shoulder;
position = "{168, 287}";
},
{
name = shoulder;
position = "{176, 326}";
},
{
name = top;
position = "{179, 517}";
}
);
guideLines = (
{
position = "{298, 0}";
}
);
layerId = "119329DF-C854-46E0-93EC-7E8A22DFCA4F";
paths = (
{
closed = 1;
nodes = (
"108 0 LINE",
"216 517 LINE",
"141 517 LINE",
"33 0 LINE"
);
}
);
width = 249;
},
{
anchors = (
{
name = bottom;
position = "{82, 0}";
},
{
name = loop_left;
position = "{99, 249}";
},
{
name = r_shoulder;
position = "{142, 288}";
},
{
name = shoulder;
position = "{150, 329}";
},
{
name = top;
position = "{172, 517}";
}
);
guideLines = (
{
position = "{827, 0}";
}
);
layerId = "84328D8E-4D54-44EF-AF5C-0364B1C28646";
paths = (
{
closed = 1;
nodes = (
"82 0 LINE",
"190 517 LINE",
"154 517 LINE",
"46 0 LINE"
);
}
);
width = 236;
},
{
anchors = (
{
name = bottom;
position = "{197, 0}";
},
{
name = loop_left;
position = "{62, 275}";
},
{
name = r_shoulder;
position = "{241, 211}";
},
{
name = shoulder;
position = "{255, 282}";
},
{
name = top;
position = "{209, 517}";
}
);
guideLines = (
{
position = "{1708, 0}";
}
);
layerId = "88AF04C7-891B-4BE3-8AB1-6195D630646B";
paths = (
{
closed = 1;
nodes = (
"197 0 LINE",
"305 517 LINE",
"112 517 LINE",
"4 0 LINE"
);
}
);
width = 309;
},
{
anchors = (
{
name = bottom;
position = "{60, 0}";
},
{
name = loop_left;
position = "{83, 321}";
},
{
name = r_shoulder;
position = "{120, 288}";
},
{
name = shoulder;
position = "{128, 329}";
},
{
name = top;
position = "{150, 517}";
}
);
associatedMasterId = "84328D8E-4D54-44EF-AF5C-0364B1C28646";
guideLines = (
{
position = "{805, 0}";
}
);
layerId = "E72B2F10-6D7F-420B-8A9D-815E33EF9A0E";
name = bubble;
width = 192;
},
{
anchors = (
{
name = bottom;
position = "{89, 0}";
},
{
name = loop_left;
position = "{74, 318}";
},
{
name = r_shoulder;
position = "{149, 287}";
},
{
name = shoulder;
position = "{157, 326}";
},
{
name = top;
position = "{160, 517}";
}
);
associatedMasterId = "119329DF-C854-46E0-93EC-7E8A22DFCA4F";
guideLines = (
{
position = "{279, 0}";
}
);
layerId = "01914453-7DAC-49FA-A2C0-58DD7C72C777";
name = bubble;
width = 211;
},
{
anchors = (
{
name = bottom;
position = "{197, 0}";
},
{
name = loop_left;
position = "{63, 298}";
},
{
name = r_shoulder;
position = "{241, 211}";
},
{
name = shoulder;
position = "{255, 282}";
},
{
name = top;
position = "{209, 517}";
}
);
associatedMasterId = "88AF04C7-891B-4BE3-8AB1-6195D630646B";
guideLines = (
{
position = "{1708, 0}";
}
);
layerId = "344316F4-BF21-4E3C-A593-8AC3A2A98510";
name = bubble;
width = 309;
}
);
leftKerningGroup = i;
rightKerningGroup = i;
unicode = 0131;
},
{
color = 1;
glyphname = jdotless;
lastChange = "2018-05-26 03:55:59 +0000";
layers = (
{
anchors = (
{
name = top;
position = "{173, 517}";
}
);
layerId = "119329DF-C854-46E0-93EC-7E8A22DFCA4F";
paths = (
{
closed = 1;
nodes = (
"16 -178 OFFCURVE",
"76 -126 OFFCURVE",
"92 -49 CURVE SMOOTH",
"210 517 LINE",
"135 517 LINE",
"19 -43 LINE SMOOTH",
"11 -81 OFFCURVE",
"-21 -111 OFFCURVE",
"-57 -111 CURVE SMOOTH",
"-75 -111 OFFCURVE",
"-101 -107 OFFCURVE",
"-116 -101 CURVE",
"-136 -161 LINE",
"-117 -170 OFFCURVE",
"-86 -178 OFFCURVE",
"-55 -178 CURVE SMOOTH"
);
}
);
width = 237;
},
{
anchors = (
{
name = top;
position = "{166, 517}";
}
);
layerId = "84328D8E-4D54-44EF-AF5C-0364B1C28646";
paths = (
{
closed = 1;
nodes = (
"-3 -178 OFFCURVE",
"50 -128 OFFCURVE",
"65 -57 CURVE SMOOTH",
"184 517 LINE",
"148 517 LINE",
"29 -55 LINE SMOOTH",
"19 -105 OFFCURVE",
"-21 -142 OFFCURVE",
"-65 -142 CURVE SMOOTH",
"-88 -142 OFFCURVE",
"-116 -137 OFFCURVE",
"-133 -129 CURVE",
"-144 -161 LINE",
"-125 -170 OFFCURVE",
"-93 -178 OFFCURVE",
"-65 -178 CURVE SMOOTH"
);
}
);
width = 224;
},
{
anchors = (
{
name = top;
position = "{205, 517}";
}
);
layerId = "88AF04C7-891B-4BE3-8AB1-6195D630646B";
paths = (
{
closed = 1;
nodes = (
"87 -178 OFFCURVE",
"171 -110 OFFCURVE",
"193 -2 CURVE SMOOTH",
"301 517 LINE",
"108 517 LINE",
"8 38 LINE SMOOTH",
"2 7 OFFCURVE",
"-29 -23 OFFCURVE",
"-61 -23 CURVE SMOOTH",
"-71 -23 OFFCURVE",
"-89 -23 OFFCURVE",
"-100 -18 CURVE",
"-135 -151 LINE",
"-109 -165 OFFCURVE",
"-62 -178 OFFCURVE",
"-15 -178 CURVE SMOOTH"
);
}
);
width = 301;
}
);
leftKerningGroup = j;
rightKerningGroup = j;
unicode = 0237;
},
{
color = 1;
glyphname = k;
lastChange = "2018-09-01 04:20:13 +0000";
layers = (
{
anchors = (
{
name = bottom;
position = "{228, 0}";
}
);
layerId = "119329DF-C854-46E0-93EC-7E8A22DFCA4F";
paths = (
{
closed = 1;
nodes = (
"108 0 LINE",
"137 138 LINE",
"248 229 LINE",
"379 0 LINE",
"470 0 LINE",
"310 280 LINE",
"593 517 LINE",
"495 517 LINE",
"157 234 LINE",
"253 699 LINE",
"178 699 LINE",
"33 0 LINE"
);
}
);
width = 547;
},
{
anchors = (
{
name = bottom;
position = "{233, 0}";
}
);
layerId = "84328D8E-4D54-44EF-AF5C-0364B1C28646";
paths = (
{
closed = 1;
nodes = (
"83 0 LINE",
"111 134 LINE",
"254 255 LINE",
"399 0 LINE",
"444 0 LINE",
"283 280 LINE",
"565 517 LINE",
"513 517 LINE",
"122 187 LINE",
"228 699 LINE",
"192 699 LINE",
"47 0 LINE"
);
}
);
width = 517;
},
{
anchors = (
{
name = bottom;
position = "{265, 0}";
}
);
layerId = "88AF04C7-891B-4BE3-8AB1-6195D630646B";
paths = (
{
closed = 1;
nodes = (
"197 0 LINE",
"222 120 LINE",
"276 171 LINE",
"333 0 LINE",
"544 0 LINE",
"423 294 LINE",
"652 517 LINE",
"432 517 LINE",
"268 343 LINE",
"342 699 LINE",
"149 699 LINE",
"4 0 LINE"
);
}
);
width = 612;
}
);
leftKerningGroup = l;
rightKerningGroup = k;
unicode = 006B;
},
{
color = 1;
glyphname = lslash;
lastChange = "2018-09-01 04:07:59 +0000";
layers = (
{
components = (
{
name = l;
transform = "{1, 0, 0, 1, 39, 0}";
}
);
layerId = "84328D8E-4D54-44EF-AF5C-0364B1C28646";
paths = (
{
closed = 1;
nodes = (
"266 349 LINE",
"274 390 LINE",
"59 290 LINE",
"51 249 LINE"
);
}
);
width = 299;
},
{
components = (
{
name = l;
transform = "{1, 0, 0, 1, 42, 0}";
}
);
layerId = "119329DF-C854-46E0-93EC-7E8A22DFCA4F";
paths = (
{
closed = 1;
nodes = (
"297 354 LINE",
"311 429 LINE",
"53 309 LINE",
"39 234 LINE"
);
}
);
width = 318;
},
{
components = (
{
name = l;
transform = "{1, 0, 0, 1, 48, 0}";
}
);
layerId = "88AF04C7-891B-4BE3-8AB1-6195D630646B";
paths = (
{
closed = 1;
nodes = (
"393 350 LINE",
"426 517 LINE",
"42 345 LINE",
"10 178 LINE"
);
}
);
width = 396;
}
);
unicode = 0142;
},
{
color = 1;
glyphname = o;
lastChange = "2018-09-01 04:20:13 +0000";
layers = (
{
anchors = (
{
name = top;
position = "{360, 517}";
}
);
layerId = "119329DF-C854-46E0-93EC-7E8A22DFCA4F";
paths = (
{
closed = 1;
nodes = (
"431 -12 OFFCURVE",
"582 135 OFFCURVE",
"582 309 CURVE SMOOTH",
"582 428 OFFCURVE",
"482 529 OFFCURVE",
"364 529 CURVE SMOOTH",
"187 529 OFFCURVE",
"38 382 OFFCURVE",
"38 208 CURVE SMOOTH",
"38 89 OFFCURVE",
"136 -12 OFFCURVE",
"252 -12 CURVE SMOOTH"
);
},
{
closed = 1;
nodes = (
"185 55 OFFCURVE",
"116 127 OFFCURVE",
"116 213 CURVE SMOOTH",
"116 348 OFFCURVE",
"223 462 OFFCURVE",
"350 462 CURVE SMOOTH",
"434 462 OFFCURVE",
"504 389 OFFCURVE",
"504 303 CURVE SMOOTH",
"504 168 OFFCURVE",
"395 55 OFFCURVE",
"266 55 CURVE SMOOTH"
);
}
);
width = 620;
},
{
anchors = (
{
name = top;
position = "{366, 517}";
}
);
layerId = "84328D8E-4D54-44EF-AF5C-0364B1C28646";
paths = (
{
closed = 1;
nodes = (
"436 -12 OFFCURVE",
"585 136 OFFCURVE",
"585 311 CURVE SMOOTH",
"585 429 OFFCURVE",
"485 529 OFFCURVE",
"366 529 CURVE SMOOTH",
"188 529 OFFCURVE",
"39 382 OFFCURVE",
"39 207 CURVE SMOOTH",
"39 88 OFFCURVE",
"140 -12 OFFCURVE",
"259 -12 CURVE SMOOTH"
);
},
{
closed = 1;
nodes = (
"160 24 OFFCURVE",
"75 109 OFFCURVE",
"75 209 CURVE SMOOTH",
"75 363 OFFCURVE",
"207 493 OFFCURVE",
"364 493 CURVE SMOOTH",
"464 493 OFFCURVE",
"549 408 OFFCURVE",
"549 308 CURVE SMOOTH",
"549 154 OFFCURVE",
"417 24 OFFCURVE",
"261 24 CURVE SMOOTH"
);
}
);
width = 625;
},
{
anchors = (
{
name = top;
position = "{367, 517}";
}
);
layerId = "88AF04C7-891B-4BE3-8AB1-6195D630646B";
paths = (
{
closed = 1;
nodes = (
"465 -12 OFFCURVE",
"618 127 OFFCURVE",
"618 296 CURVE SMOOTH",
"618 434 OFFCURVE",
"515 529 OFFCURVE",
"366 529 CURVE SMOOTH",
"179 529 OFFCURVE",
"26 391 OFFCURVE",
"26 222 CURVE SMOOTH",
"26 83 OFFCURVE",
"129 -12 OFFCURVE",
"278 -12 CURVE SMOOTH"
);
},
{
closed = 1;
nodes = (
"240 148 OFFCURVE",
"208 179 OFFCURVE",
"208 225 CURVE SMOOTH",
"208 304 OFFCURVE",
"275 369 OFFCURVE",
"358 369 CURVE SMOOTH",
"404 369 OFFCURVE",
"436 338 OFFCURVE",
"436 293 CURVE SMOOTH",
"436 213 OFFCURVE",
"369 148 OFFCURVE",
"287 148 CURVE SMOOTH"
);
}
);
width = 644;
},
{
anchors = (
{
name = top;
position = "{354, 517}";
}
);
associatedMasterId = "84328D8E-4D54-44EF-AF5C-0364B1C28646";
layerId = "9A3CE048-6346-46DA-A4DB-168529C11F2F";
name = bubble;
width = 601;
},
{
anchors = (
{
name = top;
position = "{339, 517}";
}
);
associatedMasterId = "119329DF-C854-46E0-93EC-7E8A22DFCA4F";
layerId = "4DC55FF7-6432-48C5-A409-A51757B73B51";
name = bubble;
width = 578;
},
{
anchors = (
{
name = top;
position = "{348, 517}";
}
);
associatedMasterId = "88AF04C7-891B-4BE3-8AB1-6195D630646B";
layerId = "A1C581AF-3D27-48BE-9D1E-4E81DA9ABD46";
name = bubble;
width = 607;
}
);
leftKerningGroup = o;
rightKerningGroup = o;
unicode = 006F;
},
{
color = 1;
glyphname = oslash;
lastChange = "2018-09-01 04:06:09 +0000";
layers = (
{
components = (
{
name = o;
transform = "{1, 0, 0, 1, 3, 0}";
}
);
layerId = "119329DF-C854-46E0-93EC-7E8A22DFCA4F";
paths = (
{
closed = 1;
nodes = (
"88 0 LINE",
"637 517 LINE",
"550 517 LINE",
"1 0 LINE"
);
}
);
width = 644;
},
{
components = (
{
name = o;
transform = "{1, 0, 0, 1, 2, 0}";
}
);
layerId = "84328D8E-4D54-44EF-AF5C-0364B1C28646";
paths = (
{
closed = 1;
nodes = (
"68 0 LINE",
"617 517 LINE",
"567 517 LINE",
"19 0 LINE"
);
}
);
width = 670;
},
{
components = (
{
name = o;
transform = "{1, 0, 0, 1, 3, 0}";
}
);
layerId = "88AF04C7-891B-4BE3-8AB1-6195D630646B";
paths = (
{
closed = 1;
nodes = (
"105 0 LINE",
"662 517 LINE",
"538 517 LINE",
"-20 0 LINE"
);
}
);
width = 635;
}
);
leftKerningGroup = o;
rightKerningGroup = o;
unicode = 00F8;
},
{
color = 1;
glyphname = s;
lastChange = "2018-09-01 04:20:13 +0000";
layers = (
{
anchors = (
{
name = bottom;
position = "{188, 0}";
},
{
name = top;
position = "{296, 517}";
}
);
layerId = "119329DF-C854-46E0-93EC-7E8A22DFCA4F";
paths = (
{
closed = 1;
nodes = (
"313 -12 OFFCURVE",
"413 70 OFFCURVE",
"413 168 CURVE SMOOTH",
"413 226 OFFCURVE",
"372 262 OFFCURVE",
"268 294 CURVE SMOOTH",
"188 324 OFFCURVE",
"156 345 OFFCURVE",
"156 369 CURVE SMOOTH",
"156 423 OFFCURVE",
"210 462 OFFCURVE",
"286 462 CURVE SMOOTH",
"331 462 OFFCURVE",
"382 445 OFFCURVE",
"422 415 CURVE",
"466 469 LINE",
"415 507 OFFCURVE",
"349 529 OFFCURVE",
"289 529 CURVE SMOOTH",
"167 529 OFFCURVE",
"80 457 OFFCURVE",
"80 354 CURVE SMOOTH",
"80 298 OFFCURVE",
"123 263 OFFCURVE",
"230 232 CURVE SMOOTH",
"306 207 OFFCURVE",
"337 185 OFFCURVE",
"337 155 CURVE SMOOTH",
"337 101 OFFCURVE",
"273 55 OFFCURVE",
"198 55 CURVE SMOOTH",
"145 55 OFFCURVE",
"86 78 OFFCURVE",
"40 118 CURVE",
"-7 67 LINE",
"46 17 OFFCURVE",
"121 -12 OFFCURVE",
"195 -12 CURVE SMOOTH"
);
}
);
width = 476;
},
{
anchors = (
{
name = bottom;
position = "{185, 0}";
},
{
name = top;
position = "{293, 517}";
}
);
layerId = "84328D8E-4D54-44EF-AF5C-0364B1C28646";
paths = (
{
closed = 1;
nodes = (
"287 -12 OFFCURVE",
"397 53 OFFCURVE",
"397 149 CURVE SMOOTH",
"397 208 OFFCURVE",
"354 246 OFFCURVE",
"255 278 CURVE SMOOTH",
"165 310 OFFCURVE",
"127 341 OFFCURVE",
"127 382 CURVE SMOOTH",
"127 441 OFFCURVE",
"205 493 OFFCURVE",
"287 493 CURVE SMOOTH",
"338 493 OFFCURVE",
"394 475 OFFCURVE",
"438 444 CURVE",
"464 470 LINE",
"415 506 OFFCURVE",
"351 529 OFFCURVE",
"289 529 CURVE SMOOTH",
"196 529 OFFCURVE",
"91 466 OFFCURVE",
"91 373 CURVE SMOOTH",
"91 318 OFFCURVE",
"135 280 OFFCURVE",
"237 248 CURVE SMOOTH",
"323 218 OFFCURVE",
"360 188 OFFCURVE",
"360 143 CURVE SMOOTH",
"360 70 OFFCURVE",
"270 24 OFFCURVE",
"192 24 CURVE SMOOTH",
"132 24 OFFCURVE",
"66 49 OFFCURVE",
"15 92 CURVE",
"-10 66 LINE",
"40 18 OFFCURVE",
"114 -12 OFFCURVE",
"190 -12 CURVE SMOOTH"
);
}
);
width = 470;
},
{
anchors = (
{
name = bottom;
position = "{207, 0}";
},
{
name = top;
position = "{315, 517}";
}
);
layerId = "88AF04C7-891B-4BE3-8AB1-6195D630646B";
paths = (
{
closed = 1;
nodes = (
"361 -12 OFFCURVE",
"471 61 OFFCURVE",
"471 181 CURVE SMOOTH",
"471 288 OFFCURVE",
"382 309 OFFCURVE",
"292 330 CURVE SMOOTH",
"240 342 OFFCURVE",
"233 347 OFFCURVE",
"233 356 CURVE SMOOTH",
"233 375 OFFCURVE",
"264 398 OFFCURVE",
"303 398 CURVE SMOOTH",
"341 398 OFFCURVE",
"396 375 OFFCURVE",
"433 347 CURVE",
"513 457 LINE",
"459 496 OFFCURVE",
"388 529 OFFCURVE",
"303 529 CURVE SMOOTH",
"170 529 OFFCURVE",
"61 449 OFFCURVE",
"61 332 CURVE SMOOTH",
"61 230 OFFCURVE",
"143 211 OFFCURVE",
"239 189 CURVE SMOOTH",
"296 176 OFFCURVE",
"299 169 OFFCURVE",
"299 162 CURVE SMOOTH",
"299 140 OFFCURVE",
"273 122 OFFCURVE",
"229 122 CURVE SMOOTH",
"181 122 OFFCURVE",
"112 144 OFFCURVE",
"70 179 CURVE",
"-17 71 LINE",
"38 22 OFFCURVE",
"125 -12 OFFCURVE",
"221 -12 CURVE SMOOTH"
);
}
);
width = 517;
}
);
leftKerningGroup = s;
rightKerningGroup = s;
unicode = 0073;
},
{
color = 1;
glyphname = germandbls;
lastChange = "2018-06-01 02:38:35 +0000";
layers = (
{
layerId = "119329DF-C854-46E0-93EC-7E8A22DFCA4F";
paths = (
{
closed = 1;
nodes = (
"104 0 LINE",
"211 510 LINE SMOOTH",
"226 582 OFFCURVE",
"294 636 OFFCURVE",
"372 636 CURVE SMOOTH",
"436 636 OFFCURVE",
"476 600 OFFCURVE",
"476 547 CURVE SMOOTH",
"476 470 OFFCURVE",
"399 396 OFFCURVE",
"314 396 CURVE SMOOTH",
"262 396 LINE",
"247 325 LINE",
"317 325 LINE SMOOTH",
"391 325 OFFCURVE",
"437 287 OFFCURVE",
"437 229 CURVE SMOOTH",
"437 145 OFFCURVE",
"354 71 OFFCURVE",
"258 71 CURVE SMOOTH",
"194 71 LINE",
"179 0 LINE",
"269 0 LINE SMOOTH",
"400 0 OFFCURVE",
"512 95 OFFCURVE",
"512 220 CURVE SMOOTH",
"512 281 OFFCURVE",
"478 330 OFFCURVE",
"421 362 CURVE",
"502 404 OFFCURVE",
"556 472 OFFCURVE",
"556 558 CURVE SMOOTH",
"556 647 OFFCURVE",
"487 707 OFFCURVE",
"377 707 CURVE SMOOTH",
"258 707 OFFCURVE",
"159 635 OFFCURVE",
"137 529 CURVE SMOOTH",
"26 0 LINE"
);
}
);
width = 574;
},
{
layerId = "84328D8E-4D54-44EF-AF5C-0364B1C28646";
paths = (
{
closed = 1;
nodes = (
"76 0 LINE",
"184 516 LINE SMOOTH",
"201 600 OFFCURVE",
"287 671 OFFCURVE",
"371 671 CURVE SMOOTH",
"442 671 OFFCURVE",
"491 619 OFFCURVE",
"491 552 CURVE SMOOTH",
"491 459 OFFCURVE",
"409 379 OFFCURVE",
"308 379 CURVE SMOOTH",
"241 379 LINE",
"234 343 LINE",
"309 343 LINE SMOOTH",
"397 343 OFFCURVE",
"451 296 OFFCURVE",
"451 228 CURVE SMOOTH",
"451 132 OFFCURVE",
"349 36 OFFCURVE",
"245 36 CURVE SMOOTH",
"170 36 LINE",
"162 0 LINE",
"261 0 LINE SMOOTH",
"374 0 OFFCURVE",
"486 113 OFFCURVE",
"486 224 CURVE SMOOTH",
"486 285 OFFCURVE",
"454 340 OFFCURVE",
"404 364 CURVE",
"472 392 OFFCURVE",
"528 482 OFFCURVE",
"528 557 CURVE SMOOTH",
"528 641 OFFCURVE",
"464 707 OFFCURVE",
"373 707 CURVE SMOOTH",
"272 707 OFFCURVE",
"170 624 OFFCURVE",
"150 524 CURVE SMOOTH",
"40 0 LINE"
);
}
);
width = 560;
},
{
layerId = "88AF04C7-891B-4BE3-8AB1-6195D630646B";
paths = (
{
closed = 1;
nodes = (
"193 0 LINE",
"288 455 LINE SMOOTH",
"296 494 OFFCURVE",
"339 524 OFFCURVE",
"385 524 CURVE SMOOTH",
"419 524 OFFCURVE",
"435 512 OFFCURVE",
"435 493 CURVE SMOOTH",
"435 460 OFFCURVE",
"390 420 OFFCURVE",
"345 420 CURVE SMOOTH",
"350 420 LINE",
"319 273 LINE",
"355 273 LINE SMOOTH",
"397 273 OFFCURVE",
"418 258 OFFCURVE",
"413 233 CURVE SMOOTH",
"405 194 OFFCURVE",
"362 163 OFFCURVE",
"320 163 CURVE SMOOTH",
"296 163 LINE",
"262 0 LINE",
"331 0 LINE SMOOTH",
"475 0 OFFCURVE",
"604 76 OFFCURVE",
"604 209 CURVE SMOOTH",
"604 274 OFFCURVE",
"568 328 OFFCURVE",
"511 354 CURVE",
"593 390 OFFCURVE",
"641 459 OFFCURVE",
"641 542 CURVE SMOOTH",
"641 649 OFFCURVE",
"549 724 OFFCURVE",
"405 724 CURVE SMOOTH",
"255 724 OFFCURVE",
"135 645 OFFCURVE",
"109 522 CURVE SMOOTH",
"0 0 LINE"
);
}
);
width = 640;
}
);
leftKerningGroup = B;
rightKerningGroup = B;
unicode = 00DF;
},
{
color = 1;
glyphname = t;
lastChange = "2018-09-01 04:20:13 +0000";
layers = (
{
anchors = (
{
name = bottom;
position = "{180, 0}";
}
);
layerId = "119329DF-C854-46E0-93EC-7E8A22DFCA4F";
paths = (
{
closed = 1;
nodes = (
"210 -12 OFFCURVE",
"245 -2 OFFCURVE",
"277 19 CURVE",
"247 78 LINE",
"235 66 OFFCURVE",
"211 55 OFFCURVE",
"185 55 CURVE SMOOTH",
"162 55 OFFCURVE",
"146 72 OFFCURVE",
"146 100 CURVE SMOOTH",
"146 110 OFFCURVE",
"141 82 OFFCURVE",
"261 659 CURVE",
"186 659 LINE",
"77 138 OFFCURVE",
"71 121 OFFCURVE",
"71 92 CURVE SMOOTH",
"71 31 OFFCURVE",
"112 -12 OFFCURVE",
"177 -12 CURVE SMOOTH"
);
},
{
closed = 1;
nodes = (
"344 450 LINE",
"358 517 LINE",
"75 517 LINE",
"61 450 LINE"
);
}
);
width = 347;
},
{
anchors = (
{
name = bottom;
position = "{167, 0}";
}
);
layerId = "84328D8E-4D54-44EF-AF5C-0364B1C28646";
paths = (
{
closed = 1;
nodes = (
"197 -12 OFFCURVE",
"234 -1 OFFCURVE",
"266 20 CURVE",
"249 51 LINE",
"226 35 OFFCURVE",
"196 24 OFFCURVE",
"169 24 CURVE SMOOTH",
"136 24 OFFCURVE",
"116 50 OFFCURVE",
"116 89 CURVE SMOOTH",
"116 115 OFFCURVE",
"121 126 OFFCURVE",
"232 659 CURVE",
"196 659 LINE",
"87 135 OFFCURVE",
"80 115 OFFCURVE",
"80 84 CURVE SMOOTH",
"80 27 OFFCURVE",
"112 -12 OFFCURVE",
"165 -12 CURVE SMOOTH"
);
},
{
closed = 1;
nodes = (
"331 481 LINE",
"338 517 LINE",
"75 517 LINE",
"68 481 LINE"
);
}
);
width = 325;
},
{
anchors = (
{
name = bottom;
position = "{239, 0}";
}
);
layerId = "88AF04C7-891B-4BE3-8AB1-6195D630646B";
paths = (
{
closed = 1;
nodes = (
"266 -12 OFFCURVE",
"319 7 OFFCURVE",
"355 36 CURVE",
"340 169 LINE",
"330 160 OFFCURVE",
"305 148 OFFCURVE",
"283 148 CURVE SMOOTH",
"267 148 OFFCURVE",
"258 155 OFFCURVE",
"258 175 CURVE SMOOTH",
"258 193 OFFCURVE",
"265 219 OFFCURVE",
"357 659 CURVE",
"173 659 LINE",
"77 198 OFFCURVE",
"67 167 OFFCURVE",
"67 132 CURVE SMOOTH",
"67 48 OFFCURVE",
"127 -12 OFFCURVE",
"216 -12 CURVE SMOOTH"
);
},
{
closed = 1;
nodes = (
"397 365 LINE",
"429 517 LINE",
"78 517 LINE",
"46 365 LINE"
);
}
);
width = 427;
}
);
leftKerningGroup = t;
rightKerningGroup = t;
unicode = 0074;
},
{
color = 1;
glyphname = v;
lastChange = "2018-09-01 04:20:13 +0000";
layers = (
{
layerId = "119329DF-C854-46E0-93EC-7E8A22DFCA4F";
paths = (
{
closed = 1;
nodes = (
"248 0 LINE",
"573 517 LINE",
"487 517 LINE",
"228 88 LINE",
"146 517 LINE",
"64 517 LINE",
"176 0 LINE"
);
}
);
width = 529;
},
{
layerId = "84328D8E-4D54-44EF-AF5C-0364B1C28646";
paths = (
{
closed = 1;
nodes = (
"205 0 LINE",
"550 517 LINE",
"509 517 LINE",
"205 61 LINE",
"91 517 LINE",
"54 517 LINE",
"183 0 LINE"
);
}
);
width = 496;
},
{
layerId = "88AF04C7-891B-4BE3-8AB1-6195D630646B";
paths = (
{
closed = 1;
nodes = (
"364 0 LINE",
"694 517 LINE",
"492 517 LINE",
"315 221 LINE",
"261 517 LINE",
"67 517 LINE",
"186 0 LINE"
);
}
);
width = 653;
}
);
leftKerningGroup = v;
rightKerningGroup = v;
unicode = 0076;
},
{
color = 1;
glyphname = w;
lastChange = "2018-09-01 04:20:13 +0000";
layers = (
{
anchors = (
{
name = top;
position = "{451, 517}";
}
);
layerId = "119329DF-C854-46E0-93EC-7E8A22DFCA4F";
paths = (
{
closed = 1;
nodes = (
"206 0 LINE",
"432 413 LINE",
"482 0 LINE",
"553 0 LINE",
"835 517 LINE",
"753 517 LINE",
"537 100 LINE",
"483 517 LINE",
"418 517 LINE",
"190 100 LINE",
"148 517 LINE",
"70 517 LINE",
"135 0 LINE"
);
}
);
width = 797;
},
{
anchors = (
{
name = top;
position = "{435, 517}";
}
);
layerId = "84328D8E-4D54-44EF-AF5C-0364B1C28646";
paths = (
{
closed = 1;
nodes = (
"179 0 LINE",
"421 450 LINE",
"475 0 LINE",
"520 0 LINE",
"797 517 LINE",
"760 517 LINE",
"507 48 LINE",
"450 517 LINE",
"419 517 LINE",
"166 48 LINE",
"109 517 LINE",
"72 517 LINE",
"134 0 LINE"
);
}
);
width = 761;
},
{
anchors = (
{
name = top;
position = "{483, 517}";
}
);
layerId = "88AF04C7-891B-4BE3-8AB1-6195D630646B";
paths = (
{
closed = 1;
nodes = (
"310 0 LINE",
"435 266 LINE",
"448 0 LINE",
"619 0 LINE",
"903 517 LINE",
"714 517 LINE",
"583 259 LINE",
"562 517 LINE",
"404 517 LINE",
"272 259 LINE",
"250 517 LINE",
"69 517 LINE",
"139 0 LINE"
);
}
);
width = 864;
}
);
leftKerningGroup = w;
rightKerningGroup = w;
unicode = 0077;
},
{
color = 1;
glyphname = x;
lastChange = "2018-09-01 04:20:13 +0000";
layers = (
{
layerId = "119329DF-C854-46E0-93EC-7E8A22DFCA4F";
paths = (
{
closed = 1;
nodes = (
"444 0 LINE",
"161 517 LINE",
"75 517 LINE",
"359 0 LINE"
);
},
{
closed = 1;
nodes = (
"48 0 LINE",
"546 517 LINE",
"456 517 LINE",
"-43 0 LINE"
);
}
);
width = 511;
},
{
layerId = "84328D8E-4D54-44EF-AF5C-0364B1C28646";
paths = (
{
closed = 1;
nodes = (
"402 0 LINE",
"118 517 LINE",
"76 517 LINE",
"359 0 LINE"
);
},
{
closed = 1;
nodes = (
"4 0 LINE",
"503 517 LINE",
"457 517 LINE",
"-41 0 LINE"
);
}
);
width = 470;
},
{
layerId = "88AF04C7-891B-4BE3-8AB1-6195D630646B";
paths = (
{
closed = 1;
nodes = (
"529 0 LINE",
"280 517 LINE",
"80 517 LINE",
"330 0 LINE"
);
},
{
closed = 1;
nodes = (
"163 0 LINE",
"631 517 LINE",
"428 517 LINE",
"-41 0 LINE"
);
}
);
width = 597;
}
);
leftKerningGroup = x;
rightKerningGroup = x;
unicode = 0078;
},
{
color = 1;
glyphname = y;
lastChange = "2018-09-01 04:20:13 +0000";
layers = (
{
anchors = (
{
name = top;
position = "{325, 517}";
}
);
layerId = "119329DF-C854-46E0-93EC-7E8A22DFCA4F";
paths = (
{
closed = 1;
nodes = (
"112 -180 OFFCURVE",
"169 -149 OFFCURVE",
"223 -61 CURVE SMOOTH",
"579 517 LINE",
"496 517 LINE",
"235 87 LINE",
"144 517 LINE",
"63 517 LINE",
"179 -2 LINE",
"134 -63 LINE",
"107 -99 OFFCURVE",
"81 -112 OFFCURVE",
"45 -112 CURVE SMOOTH",
"27 -112 OFFCURVE",
"6 -109 OFFCURVE",
"-10 -100 CURVE",
"-36 -162 LINE",
"-14 -173 OFFCURVE",
"13 -180 OFFCURVE",
"45 -180 CURVE SMOOTH"
);
}
);
width = 536;
},
{
anchors = (
{
name = top;
position = "{307, 517}";
}
);
layerId = "84328D8E-4D54-44EF-AF5C-0364B1C28646";
paths = (
{
closed = 1;
nodes = (
"82 -180 OFFCURVE",
"140 -146 OFFCURVE",
"182 -77 CURVE SMOOTH",
"548 517 LINE",
"509 517 LINE",
"204 25 LINE",
"97 517 LINE",
"58 517 LINE",
"176 -21 LINE",
"129 -93 LINE",
"105 -124 OFFCURVE",
"61 -144 OFFCURVE",
"16 -144 CURVE SMOOTH",
"-8 -144 OFFCURVE",
"-31 -138 OFFCURVE",
"-52 -127 CURVE",
"-67 -162 LINE",
"-46 -173 OFFCURVE",
"-17 -180 OFFCURVE",
"14 -180 CURVE SMOOTH"
);
}
);
width = 500;
},
{
anchors = (
{
name = top;
position = "{367, 517}";
}
);
layerId = "88AF04C7-891B-4BE3-8AB1-6195D630646B";
paths = (
{
closed = 1;
nodes = (
"211 -180 OFFCURVE",
"295 -123 OFFCURVE",
"360 -11 CURVE SMOOTH",
"665 517 LINE",
"467 517 LINE",
"299 198 LINE",
"261 517 LINE",
"68 517 LINE",
"166 -7 LINE",
"149 -20 LINE",
"144 -29 OFFCURVE",
"110 -43 OFFCURVE",
"89 -43 CURVE SMOOTH",
"72 -43 OFFCURVE",
"48 -34 OFFCURVE",
"23 -18 CURVE",
"-31 -134 LINE",
"8 -159 OFFCURVE",
"73 -180 OFFCURVE",
"125 -180 CURVE SMOOTH"
);
}
);
width = 625;
}
);
leftKerningGroup = y;
rightKerningGroup = y;
unicode = 0079;
},
{
color = 1;
glyphname = z;
lastChange = "2018-09-01 04:20:14 +0000";
layers = (
{
anchors = (
{
name = top;
position = "{298, 517}";
}
);
layerId = "119329DF-C854-46E0-93EC-7E8A22DFCA4F";
paths = (
{
closed = 1;
nodes = (
"388 0 LINE",
"403 71 LINE",
"96 71 LINE",
"483 458 LINE",
"494 517 LINE",
"94 517 LINE",
"79 446 LINE",
"377 446 LINE",
"-8 59 LINE",
"-19 0 LINE"
);
}
);
width = 477;
},
{
anchors = (
{
name = top;
position = "{282, 517}";
}
);
layerId = "84328D8E-4D54-44EF-AF5C-0364B1C28646";
paths = (
{
closed = 1;
nodes = (
"377 0 LINE",
"385 36 LINE",
"25 36 LINE",
"477 487 LINE",
"483 517 LINE",
"83 517 LINE",
"76 481 LINE",
"428 481 LINE",
"-25 30 LINE",
"-30 0 LINE"
);
}
);
width = 456;
},
{
anchors = (
{
name = top;
position = "{339, 517}";
}
);
layerId = "88AF04C7-891B-4BE3-8AB1-6195D630646B";
paths = (
{
closed = 1;
nodes = (
"466 0 LINE",
"500 160 LINE",
"270 160 LINE",
"545 384 LINE",
"572 517 LINE",
"100 517 LINE",
"67 357 LINE",
"287 357 LINE",
"11 133 LINE",
"-14 0 LINE"
);
}
);
width = 561;
}
);
leftKerningGroup = z;
rightKerningGroup = z;
unicode = 007A;
},
{
color = 1;
glyphname = a.alt;
lastChange = "2018-09-01 04:07:59 +0000";
layers = (
{
anchors = (
{
name = bottom;
position = "{427, 0}";
},
{
name = top;
position = "{324, 517}";
}
);
layerId = "119329DF-C854-46E0-93EC-7E8A22DFCA4F";
paths = (
{
closed = 1;
nodes = (
"427 0 LINE",
"491 311 OFFCURVE",
"498 328 OFFCURVE",
"498 371 CURVE SMOOTH",
"498 465 OFFCURVE",
"442 529 OFFCURVE",
"322 529 CURVE SMOOTH",
"275 529 OFFCURVE",
"211 517 OFFCURVE",
"129 480 CURVE",
"152 417 LINE",
"203 441 OFFCURVE",
"260 465 OFFCURVE",
"315 465 CURVE SMOOTH",
"400 465 OFFCURVE",
"424 418 OFFCURVE",
"424 365 CURVE SMOOTH",
"424 333 OFFCURVE",
"421 331 OFFCURVE",
"352 0 CURVE"
);
},
{
closed = 1;
nodes = (
"253 -12 OFFCURVE",
"356 32 OFFCURVE",
"395 120 CURVE",
"385 165 LINE",
"351 92 OFFCURVE",
"260 54 OFFCURVE",
"189 54 CURVE SMOOTH",
"127 54 OFFCURVE",
"84 81 OFFCURVE",
"84 130 CURVE SMOOTH",
"84 205 OFFCURVE",
"169 262 OFFCURVE",
"256 262 CURVE SMOOTH",
"324 262 OFFCURVE",
"385 251 OFFCURVE",
"436 231 CURVE",
"442 283 LINE",
"386 307 OFFCURVE",
"317 325 OFFCURVE",
"247 325 CURVE SMOOTH",
"126 325 OFFCURVE",
"11 243 OFFCURVE",
"11 121 CURVE SMOOTH",
"11 39 OFFCURVE",
"76 -12 OFFCURVE",
"173 -12 CURVE SMOOTH"
);
}
);
width = 555;
},
{
anchors = (
{
name = bottom;
position = "{414, 0}";
},
{
name = top;
position = "{320, 517}";
}
);
layerId = "84328D8E-4D54-44EF-AF5C-0364B1C28646";
paths = (
{
closed = 1;
nodes = (
"414 0 LINE",
"479 311 OFFCURVE",
"486 331 OFFCURVE",
"486 370 CURVE SMOOTH",
"486 465 OFFCURVE",
"428 529 OFFCURVE",
"323 529 CURVE SMOOTH",
"270 529 OFFCURVE",
"200 513 OFFCURVE",
"136 480 CURVE",
"147 447 LINE",
"201 476 OFFCURVE",
"262 493 OFFCURVE",
"316 493 CURVE SMOOTH",
"414 493 OFFCURVE",
"449 434 OFFCURVE",
"449 365 CURVE SMOOTH",
"449 329 OFFCURVE",
"445 320 OFFCURVE",
"378 0 CURVE"
);
},
{
closed = 1;
nodes = (
"261 -12 OFFCURVE",
"382 35 OFFCURVE",
"421 122 CURVE",
"412 163 LINE",
"373 70 OFFCURVE",
"260 24 OFFCURVE",
"180 24 CURVE SMOOTH",
"105 24 OFFCURVE",
"52 66 OFFCURVE",
"52 127 CURVE SMOOTH",
"52 221 OFFCURVE",
"151 289 OFFCURVE",
"263 289 CURVE SMOOTH",
"326 289 OFFCURVE",
"394 269 OFFCURVE",
"445 249 CURVE",
"449 283 LINE",
"393 307 OFFCURVE",
"323 325 OFFCURVE",
"260 325 CURVE SMOOTH",
"130 325 OFFCURVE",
"16 241 OFFCURVE",
"16 121 CURVE SMOOTH",
"16 41 OFFCURVE",
"79 -12 OFFCURVE",
"174 -12 CURVE SMOOTH"
);
}
);
width = 553;
},
{
anchors = (
{
name = bottom;
position = "{486, 0}";
},
{
name = top;
position = "{334, 517}";
}
);
layerId = "88AF04C7-891B-4BE3-8AB1-6195D630646B";
paths = (
{
closed = 1;
nodes = (
"486 0 LINE",
"547 292 OFFCURVE",
"554 316 OFFCURVE",
"554 347 CURVE SMOOTH",
"554 459 OFFCURVE",
"465 529 OFFCURVE",
"345 529 CURVE SMOOTH",
"264 529 OFFCURVE",
"183 507 OFFCURVE",
"104 471 CURVE",
"152 343 LINE",
"191 362 OFFCURVE",
"235 376 OFFCURVE",
"286 376 CURVE SMOOTH",
"339 376 OFFCURVE",
"368 362 OFFCURVE",
"368 329 CURVE SMOOTH",
"368 322 OFFCURVE",
"376 362 OFFCURVE",
"301 0 CURVE"
);
},
{
closed = 1;
nodes = (
"252 -12 OFFCURVE",
"335 27 OFFCURVE",
"371 106 CURVE",
"334 171 LINE",
"326 141 OFFCURVE",
"280 112 OFFCURVE",
"226 112 CURVE SMOOTH",
"201 112 OFFCURVE",
"185 121 OFFCURVE",
"185 137 CURVE SMOOTH",
"185 171 OFFCURVE",
"229 208 OFFCURVE",
"275 208 CURVE SMOOTH",
"299 208 OFFCURVE",
"327 205 OFFCURVE",
"348 192 CURVE",
"407 270 LINE",
"360 304 OFFCURVE",
"304 325 OFFCURVE",
"248 325 CURVE SMOOTH",
"122 325 OFFCURVE",
"1 252 OFFCURVE",
"1 135 CURVE SMOOTH",
"1 48 OFFCURVE",
"74 -12 OFFCURVE",
"178 -12 CURVE SMOOTH"
);
}
);
width = 587;
}
);
leftKerningGroup = d;
rightKerningGroup = d;
},
{
color = 1;
export = 0;
glyphname = ae_upper;
lastChange = "2018-05-29 05:09:05 +0000";
layers = (
{
anchors = (
{
name = _ae_upper;
position = "{497, 687}";
}
);
layerId = "84328D8E-4D54-44EF-AF5C-0364B1C28646";
paths = (
{
closed = 1;
nodes = (
"-20 0 LINE",
"519 687 LINE",
"477 687 LINE",
"-63 0 LINE"
);
},
{
closed = 1;
nodes = (
"408 175 LINE",
"415 211 LINE",
"111 211 LINE",
"104 175 LINE"
);
}
);
width = 434;
},
{
anchors = (
{
name = _ae_upper;
position = "{483, 687}";
}
);
layerId = "119329DF-C854-46E0-93EC-7E8A22DFCA4F";
paths = (
{
closed = 1;
nodes = (
"42 0 LINE",
"581 687 LINE",
"489 687 LINE",
"-51 0 LINE"
);
},
{
closed = 1;
nodes = (
"448 156 LINE",
"463 230 LINE",
"144 230 LINE",
"129 156 LINE"
);
}
);
width = 489;
},
{
anchors = (
{
name = _ae_upper;
position = "{552, 687}";
}
);
layerId = "88AF04C7-891B-4BE3-8AB1-6195D630646B";
paths = (
{
closed = 1;
nodes = (
"185 0 LINE",
"725 687 LINE",
"497 687 LINE",
"-43 0 LINE"
);
},
{
closed = 1;
nodes = (
"531 92 LINE",
"560 235 LINE",
"241 235 LINE",
"212 92 LINE"
);
}
);
width = 593;
}
);
},
{
color = 1;
export = 0;
glyphname = k_arms;
lastChange = "2018-05-29 05:09:05 +0000";
layers = (
{
anchors = (
{
name = k_arms;
position = "{-24, 125}";
}
);
layerId = "84328D8E-4D54-44EF-AF5C-0364B1C28646";
paths = (
{
closed = 1;
nodes = (
"320 0 LINE",
"159 280 LINE",
"441 517 LINE",
"389 517 LINE",
"-14 177 LINE",
"-24 125 LINE",
"130 255 LINE",
"275 0 LINE"
);
}
);
width = 393;
},
{
anchors = (
{
name = k_arms;
position = "{-5, 127}";
}
);
layerId = "119329DF-C854-46E0-93EC-7E8A22DFCA4F";
paths = (
{
closed = 1;
nodes = (
"342 0 LINE",
"182 280 LINE",
"465 517 LINE",
"367 517 LINE",
"13 221 LINE",
"-5 127 LINE",
"120 229 LINE",
"251 0 LINE"
);
}
);
width = 419;
},
{
anchors = (
{
name = k_arms;
position = "{6, 108}";
}
);
layerId = "88AF04C7-891B-4BE3-8AB1-6195D630646B";
paths = (
{
closed = 1;
nodes = (
"341 0 LINE",
"220 294 LINE",
"449 517 LINE",
"229 517 LINE",
"47 324 LINE",
"6 108 LINE",
"73 171 LINE",
"130 0 LINE"
);
}
);
width = 409;
}
);
},
{
color = 1;
export = 0;
glyphname = thorn_stem;
lastChange = "2018-06-01 02:28:22 +0000";
layers = (
{
anchors = (
{
name = loop_right;
position = "{138, 257}";
}
);
layerId = "84328D8E-4D54-44EF-AF5C-0364B1C28646";
paths = (
{
closed = 1;
nodes = (
"48 -172 LINE",
"229 699 LINE",
"193 699 LINE",
"12 -172 LINE"
);
}
);
width = 239;
},
{
anchors = (
{
name = loop_right;
position = "{160, 253}";
}
);
layerId = "119329DF-C854-46E0-93EC-7E8A22DFCA4F";
paths = (
{
closed = 1;
nodes = (
"72 -172 LINE",
"253 699 LINE",
"178 699 LINE",
"-3 -172 LINE"
);
}
);
width = 248;
},
{
anchors = (
{
name = loop_right;
position = "{248, 247}";
}
);
layerId = "88AF04C7-891B-4BE3-8AB1-6195D630646B";
paths = (
{
closed = 1;
nodes = (
"161 -172 LINE",
"342 699 LINE",
"149 699 LINE",
"-32 -172 LINE"
);
}
);
width = 308;
}
);
},
{
color = 1;
glyphname = zero;
lastChange = "2018-08-19 07:59:41 +0000";
layers = (
{
layerId = "119329DF-C854-46E0-93EC-7E8A22DFCA4F";
paths = (
{
closed = 1;
nodes = (
"507 -12 OFFCURVE",
"659 218 OFFCURVE",
"659 440 CURVE SMOOTH",
"659 596 OFFCURVE",
"573 699 OFFCURVE",
"432 699 CURVE SMOOTH",
"221 699 OFFCURVE",
"68 469 OFFCURVE",
"68 248 CURVE SMOOTH",
"68 91 OFFCURVE",
"154 -12 OFFCURVE",
"295 -12 CURVE SMOOTH"
);
},
{
closed = 1;
nodes = (
"203 60 OFFCURVE",
"146 136 OFFCURVE",
"146 251 CURVE SMOOTH",
"146 422 OFFCURVE",
"263 627 OFFCURVE",
"428 627 CURVE SMOOTH",
"524 627 OFFCURVE",
"581 552 OFFCURVE",
"581 438 CURVE SMOOTH",
"581 265 OFFCURVE",
"465 60 OFFCURVE",
"299 60 CURVE SMOOTH"
);
}
);
width = 692;
},
{
layerId = "84328D8E-4D54-44EF-AF5C-0364B1C28646";
paths = (
{
closed = 1;
nodes = (
"481 -12 OFFCURVE",
"625 233 OFFCURVE",
"625 450 CURVE SMOOTH",
"625 600 OFFCURVE",
"548 699 OFFCURVE",
"421 699 CURVE SMOOTH",
"218 699 OFFCURVE",
"75 455 OFFCURVE",
"75 237 CURVE SMOOTH",
"75 86 OFFCURVE",
"151 -12 OFFCURVE",
"279 -12 CURVE SMOOTH"
);
},
{
closed = 1;
nodes = (
"173 24 OFFCURVE",
"110 110 OFFCURVE",
"110 242 CURVE SMOOTH",
"110 433 OFFCURVE",
"237 663 OFFCURVE",
"419 663 CURVE SMOOTH",
"527 663 OFFCURVE",
"590 577 OFFCURVE",
"590 446 CURVE SMOOTH",
"590 255 OFFCURVE",
"463 24 OFFCURVE",
"281 24 CURVE SMOOTH"
);
}
);
width = 664;
},
{
layerId = "88AF04C7-891B-4BE3-8AB1-6195D630646B";
paths = (
{
closed = 1;
nodes = (
"544 -12 OFFCURVE",
"712 194 OFFCURVE",
"712 422 CURVE SMOOTH",
"712 588 OFFCURVE",
"609 699 OFFCURVE",
"442 699 CURVE SMOOTH",
"218 699 OFFCURVE",
"50 494 OFFCURVE",
"50 265 CURVE SMOOTH",
"50 99 OFFCURVE",
"153 -12 OFFCURVE",
"319 -12 CURVE SMOOTH"
);
},
{
closed = 1;
nodes = (
"278 164 OFFCURVE",
"248 206 OFFCURVE",
"248 273 CURVE SMOOTH",
"248 388 OFFCURVE",
"327 523 OFFCURVE",
"431 523 CURVE SMOOTH",
"484 523 OFFCURVE",
"514 481 OFFCURVE",
"514 414 CURVE SMOOTH",
"514 300 OFFCURVE",
"434 164 OFFCURVE",
"331 164 CURVE SMOOTH"
);
}
);
width = 727;
}
);
unicode = 0030;
},
{
color = 1;
glyphname = one;
lastChange = "2018-08-19 07:59:42 +0000";
layers = (
{
layerId = "119329DF-C854-46E0-93EC-7E8A22DFCA4F";
paths = (
{
closed = 1;
nodes = (
"197 0 LINE",
"340 687 LINE",
"277 687 LINE",
"85 572 LINE",
"108 514 LINE",
"243 592 LINE",
"119 0 LINE"
);
}
);
width = 356;
},
{
layerId = "84328D8E-4D54-44EF-AF5C-0364B1C28646";
paths = (
{
closed = 1;
nodes = (
"158 0 LINE",
"301 687 LINE",
"272 687 LINE",
"67 572 LINE",
"80 542 LINE",
"256 640 LINE",
"122 0 LINE"
);
}
);
width = 333;
},
{
layerId = "88AF04C7-891B-4BE3-8AB1-6195D630646B";
paths = (
{
closed = 1;
nodes = (
"354 0 LINE",
"497 687 LINE",
"341 687 LINE",
"81 533 LINE",
"132 399 LINE",
"259 469 LINE",
"160 0 LINE"
);
}
);
width = 478;
}
);
unicode = 0031;
},
{
color = 1;
glyphname = two;
lastChange = "2018-08-19 07:59:41 +0000";
layers = (
{
layerId = "119329DF-C854-46E0-93EC-7E8A22DFCA4F";
paths = (
{
closed = 1;
nodes = (
"455 0 LINE",
"471 74 LINE",
"123 74 LINE",
"337 228 LINE SMOOTH",
"456 316 OFFCURVE",
"556 411 OFFCURVE",
"556 535 CURVE SMOOTH",
"556 636 OFFCURVE",
"476 699 OFFCURVE",
"369 699 CURVE SMOOTH",
"264 699 OFFCURVE",
"178 651 OFFCURVE",
"104 570 CURVE",
"153 520 LINE",
"212 584 OFFCURVE",
"280 629 OFFCURVE",
"363 629 CURVE SMOOTH",
"425 629 OFFCURVE",
"477 593 OFFCURVE",
"477 529 CURVE SMOOTH",
"477 438 OFFCURVE",
"386 352 OFFCURVE",
"289 281 CURVE SMOOTH",
"-6 65 LINE",
"-18 0 LINE"
);
}
);
width = 566;
},
{
layerId = "84328D8E-4D54-44EF-AF5C-0364B1C28646";
paths = (
{
closed = 1;
nodes = (
"438 0 LINE",
"446 36 LINE",
"32 36 LINE",
"316 240 LINE SMOOTH",
"430 323 OFFCURVE",
"528 425 OFFCURVE",
"528 538 CURVE SMOOTH",
"528 626 OFFCURVE",
"465 699 OFFCURVE",
"356 699 CURVE SMOOTH",
"275 699 OFFCURVE",
"179 659 OFFCURVE",
"98 568 CURVE",
"123 544 LINE",
"195 623 OFFCURVE",
"281 665 OFFCURVE",
"357 665 CURVE SMOOTH",
"445 665 OFFCURVE",
"492 604 OFFCURVE",
"492 535 CURVE SMOOTH",
"492 436 OFFCURVE",
"401 346 OFFCURVE",
"296 269 CURVE SMOOTH",
"-18 39 LINE",
"-26 0 LINE"
);
}
);
width = 544;
},
{
layerId = "88AF04C7-891B-4BE3-8AB1-6195D630646B";
paths = (
{
closed = 1;
nodes = (
"544 0 LINE",
"580 173 LINE",
"329 173 LINE",
"434 226 LINE SMOOTH",
"556 296 OFFCURVE",
"638 374 OFFCURVE",
"638 502 CURVE SMOOTH",
"638 617 OFFCURVE",
"547 699 OFFCURVE",
"398 699 CURVE SMOOTH",
"291 699 OFFCURVE",
"191 659 OFFCURVE",
"97 569 CURVE",
"200 437 LINE",
"262 490 OFFCURVE",
"316 523 OFFCURVE",
"382 523 CURVE SMOOTH",
"416 523 OFFCURVE",
"438 510 OFFCURVE",
"438 485 CURVE SMOOTH",
"438 432 OFFCURVE",
"379 385 OFFCURVE",
"316 345 CURVE SMOOTH",
"25 157 LINE",
"-5 0 LINE"
);
}
);
width = 644;
}
);
unicode = 0032;
},
{
color = 1;
glyphname = three;
lastChange = "2018-08-19 07:59:42 +0000";
layers = (
{
layerId = "119329DF-C854-46E0-93EC-7E8A22DFCA4F";
paths = (
{
closed = 1;
nodes = (
"374 -12 OFFCURVE",
"506 82 OFFCURVE",
"506 216 CURVE SMOOTH",
"506 295 OFFCURVE",
"446 337 OFFCURVE",
"389 350 CURVE",
"486 377 OFFCURVE",
"559 446 OFFCURVE",
"559 544 CURVE SMOOTH",
"559 637 OFFCURVE",
"481 699 OFFCURVE",
"362 699 CURVE SMOOTH",
"258 699 OFFCURVE",
"173 649 OFFCURVE",
"107 580 CURVE",
"152 529 LINE",
"212 588 OFFCURVE",
"276 628 OFFCURVE",
"355 628 CURVE SMOOTH",
"429 628 OFFCURVE",
"479 589 OFFCURVE",
"479 532 CURVE SMOOTH",
"479 442 OFFCURVE",
"387 382 OFFCURVE",
"286 383 CURVE SMOOTH",
"215 384 LINE",
"200 312 LINE",
"276 312 LINE SMOOTH",
"372 312 OFFCURVE",
"429 282 OFFCURVE",
"429 220 CURVE SMOOTH",
"429 129 OFFCURVE",
"338 59 OFFCURVE",
"232 59 CURVE SMOOTH",
"151 59 OFFCURVE",
"93 97 OFFCURVE",
"60 155 CURVE",
"-1 108 LINE",
"36 42 OFFCURVE",
"113 -12 OFFCURVE",
"228 -12 CURVE SMOOTH"
);
}
);
width = 581;
},
{
layerId = "84328D8E-4D54-44EF-AF5C-0364B1C28646";
paths = (
{
closed = 1;
nodes = (
"343 -12 OFFCURVE",
"474 99 OFFCURVE",
"474 226 CURVE SMOOTH",
"474 291 OFFCURVE",
"438 337 OFFCURVE",
"377 351 CURVE",
"465 377 OFFCURVE",
"525 457 OFFCURVE",
"525 543 CURVE SMOOTH",
"525 631 OFFCURVE",
"452 699 OFFCURVE",
"352 699 CURVE SMOOTH",
"268 699 OFFCURVE",
"187 657 OFFCURVE",
"103 569 CURVE",
"127 543 LINE",
"199 623 OFFCURVE",
"272 663 OFFCURVE",
"346 663 CURVE SMOOTH",
"429 663 OFFCURVE",
"489 607 OFFCURVE",
"489 537 CURVE SMOOTH",
"489 432 OFFCURVE",
"393 366 OFFCURVE",
"271 366 CURVE SMOOTH",
"210 366 LINE",
"202 330 LINE",
"266 330 LINE SMOOTH",
"376 330 OFFCURVE",
"437 290 OFFCURVE",
"437 221 CURVE SMOOTH",
"437 117 OFFCURVE",
"326 24 OFFCURVE",
"215 24 CURVE SMOOTH",
"129 24 OFFCURVE",
"69 63 OFFCURVE",
"33 144 CURVE",
"3 121 LINE",
"52 32 OFFCURVE",
"120 -12 OFFCURVE",
"213 -12 CURVE SMOOTH"
);
}
);
width = 561;
},
{
layerId = "88AF04C7-891B-4BE3-8AB1-6195D630646B";
paths = (
{
closed = 1;
nodes = (
"436 -13 OFFCURVE",
"587 73 OFFCURVE",
"587 216 CURVE SMOOTH",
"587 289 OFFCURVE",
"537 336 OFFCURVE",
"477 350 CURVE",
"572 377 OFFCURVE",
"637 439 OFFCURVE",
"637 532 CURVE SMOOTH",
"637 629 OFFCURVE",
"552 699 OFFCURVE",
"395 699 CURVE SMOOTH",
"270 699 OFFCURVE",
"176 652 OFFCURVE",
"102 583 CURVE",
"192 453 LINE",
"243 494 OFFCURVE",
"300 526 OFFCURVE",
"363 526 CURVE SMOOTH",
"413 526 OFFCURVE",
"439 515 OFFCURVE",
"434 488 CURVE SMOOTH",
"426 450 OFFCURVE",
"386 425 OFFCURVE",
"322 425 CURVE SMOOTH",
"246 425 LINE",
"212 263 LINE",
"302 264 LINE SMOOTH",
"375 265 OFFCURVE",
"394 257 OFFCURVE",
"394 237 CURVE SMOOTH",
"394 192 OFFCURVE",
"337 160 OFFCURVE",
"273 160 CURVE SMOOTH",
"221 160 OFFCURVE",
"162 177 OFFCURVE",
"121 225 CURVE",
"-6 106 LINE",
"46 38 OFFCURVE",
"136 -13 OFFCURVE",
"273 -13 CURVE SMOOTH"
);
}
);
width = 638;
}
);
unicode = 0033;
},
{
color = 1;
glyphname = four;
lastChange = "2018-08-19 07:59:42 +0000";
layers = (
{
layerId = "119329DF-C854-46E0-93EC-7E8A22DFCA4F";
paths = (
{
closed = 1;
nodes = (
"404 0 LINE",
"439 167 LINE",
"542 167 LINE",
"557 238 LINE",
"454 238 LINE",
"547 687 LINE",
"456 687 LINE",
"21 232 LINE",
"19 167 LINE",
"361 167 LINE",
"326 0 LINE"
);
},
{
closed = 1;
nodes = (
"451 593 LINE",
"376 238 LINE",
"113 238 LINE"
);
}
);
width = 587;
},
{
layerId = "84328D8E-4D54-44EF-AF5C-0364B1C28646";
paths = (
{
closed = 1;
nodes = (
"347 0 LINE",
"386 185 LINE",
"500 185 LINE",
"507 221 LINE",
"393 221 LINE",
"490 687 LINE",
"440 687 LINE",
"4 222 LINE",
"3 185 LINE",
"350 185 LINE",
"311 0 LINE"
);
},
{
closed = 1;
nodes = (
"446 644 LINE",
"357 221 LINE",
"50 221 LINE"
);
}
);
width = 545;
},
{
layerId = "88AF04C7-891B-4BE3-8AB1-6195D630646B";
paths = (
{
closed = 1;
nodes = (
"519 0 LINE",
"545 122 LINE",
"628 122 LINE",
"661 282 LINE",
"578 282 LINE",
"662 686 LINE",
"422 686 LINE",
"33 268 LINE",
"21 122 LINE",
"351 122 LINE",
"325 0 LINE"
);
},
{
closed = 1;
nodes = (
"429 488 LINE",
"384 282 LINE",
"239 282 LINE"
);
}
);
width = 690;
}
);
unicode = 0034;
},
{
color = 1;
glyphname = five;
lastChange = "2018-08-19 07:59:42 +0000";
layers = (
{
layerId = "119329DF-C854-46E0-93EC-7E8A22DFCA4F";
paths = (
{
closed = 1;
nodes = (
"404 -12 OFFCURVE",
"536 107 OFFCURVE",
"536 259 CURVE SMOOTH",
"536 366 OFFCURVE",
"454 428 OFFCURVE",
"343 428 CURVE SMOOTH",
"283 428 OFFCURVE",
"232 409 OFFCURVE",
"190 384 CURVE",
"247 613 LINE",
"577 613 LINE",
"592 687 LINE",
"186 687 LINE",
"103 334 LINE",
"156 304 LINE",
"206 336 OFFCURVE",
"262 359 OFFCURVE",
"324 359 CURVE SMOOTH",
"405 359 OFFCURVE",
"456 315 OFFCURVE",
"456 247 CURVE SMOOTH",
"456 147 OFFCURVE",
"362 58 OFFCURVE",
"252 58 CURVE SMOOTH",
"179 58 OFFCURVE",
"122 94 OFFCURVE",
"81 152 CURVE",
"22 99 LINE",
"66 35 OFFCURVE",
"137 -12 OFFCURVE",
"245 -12 CURVE SMOOTH"
);
}
);
width = 593;
},
{
layerId = "84328D8E-4D54-44EF-AF5C-0364B1C28646";
paths = (
{
closed = 1;
nodes = (
"377 -12 OFFCURVE",
"512 119 OFFCURVE",
"512 251 CURVE SMOOTH",
"512 346 OFFCURVE",
"440 418 OFFCURVE",
"338 418 CURVE SMOOTH",
"277 418 OFFCURVE",
"211 399 OFFCURVE",
"164 365 CURVE",
"232 651 LINE",
"574 651 LINE",
"581 687 LINE",
"204 687 LINE",
"124 341 LINE",
"157 322 LINE",
"213 359 OFFCURVE",
"276 382 OFFCURVE",
"329 382 CURVE SMOOTH",
"415 382 OFFCURVE",
"476 322 OFFCURVE",
"476 245 CURVE SMOOTH",
"476 137 OFFCURVE",
"361 24 OFFCURVE",
"246 24 CURVE SMOOTH",
"164 24 OFFCURVE",
"90 60 OFFCURVE",
"48 123 CURVE",
"20 98 LINE",
"66 29 OFFCURVE",
"149 -12 OFFCURVE",
"244 -12 CURVE SMOOTH"
);
}
);
width = 573;
},
{
layerId = "88AF04C7-891B-4BE3-8AB1-6195D630646B";
paths = (
{
closed = 1;
nodes = (
"453 -13 OFFCURVE",
"600 97 OFFCURVE",
"600 274 CURVE SMOOTH",
"600 389 OFFCURVE",
"514 454 OFFCURVE",
"403 454 CURVE SMOOTH",
"358 454 OFFCURVE",
"315 443 OFFCURVE",
"278 420 CURVE",
"306 514 LINE",
"617 514 LINE",
"653 687 LINE",
"164 687 LINE",
"75 304 LINE",
"196 251 LINE",
"234 277 OFFCURVE",
"279 296 OFFCURVE",
"333 296 CURVE SMOOTH",
"381 296 OFFCURVE",
"407 281 OFFCURVE",
"407 253 CURVE SMOOTH",
"407 199 OFFCURVE",
"344 154 OFFCURVE",
"275 154 CURVE SMOOTH",
"222 154 OFFCURVE",
"168 178 OFFCURVE",
"126 221 CURVE",
"-4 95 LINE",
"55 31 OFFCURVE",
"138 -13 OFFCURVE",
"265 -13 CURVE SMOOTH"
);
}
);
width = 640;
}
);
unicode = 0035;
},
{
color = 1;
glyphname = six;
lastChange = "2018-08-19 07:59:42 +0000";
layers = (
{
layerId = "119329DF-C854-46E0-93EC-7E8A22DFCA4F";
paths = (
{
closed = 1;
nodes = (
"427 -12 OFFCURVE",
"561 108 OFFCURVE",
"561 259 CURVE SMOOTH",
"561 367 OFFCURVE",
"478 429 OFFCURVE",
"366 429 CURVE SMOOTH",
"280 429 OFFCURVE",
"195 385 OFFCURVE",
"139 306 CURVE",
"136 200 LINE",
"159 293 OFFCURVE",
"249 362 OFFCURVE",
"349 362 CURVE SMOOTH",
"428 362 OFFCURVE",
"483 321 OFFCURVE",
"483 250 CURVE SMOOTH",
"483 151 OFFCURVE",
"385 55 OFFCURVE",
"275 55 CURVE SMOOTH",
"183 55 OFFCURVE",
"144 125 OFFCURVE",
"144 224 CURVE SMOOTH",
"144 402 OFFCURVE",
"266 628 OFFCURVE",
"422 628 CURVE SMOOTH",
"485 628 OFFCURVE",
"523 600 OFFCURVE",
"558 558 CURVE",
"609 615 LINE",
"568 664 OFFCURVE",
"514 699 OFFCURVE",
"427 699 CURVE SMOOTH",
"223 699 OFFCURVE",
"66 446 OFFCURVE",
"66 216 CURVE SMOOTH",
"66 82 OFFCURVE",
"126 -12 OFFCURVE",
"273 -12 CURVE SMOOTH"
);
}
);
width = 616;
},
{
layerId = "84328D8E-4D54-44EF-AF5C-0364B1C28646";
paths = (
{
closed = 1;
nodes = (
"394 -12 OFFCURVE",
"527 121 OFFCURVE",
"527 255 CURVE SMOOTH",
"527 353 OFFCURVE",
"454 429 OFFCURVE",
"353 429 CURVE SMOOTH",
"235 429 OFFCURVE",
"121 352 OFFCURVE",
"101 259 CURVE",
"100 207 LINE",
"124 307 OFFCURVE",
"237 393 OFFCURVE",
"344 393 CURVE SMOOTH",
"430 393 OFFCURVE",
"491 330 OFFCURVE",
"491 249 CURVE SMOOTH",
"491 140 OFFCURVE",
"379 24 OFFCURVE",
"260 24 CURVE SMOOTH",
"161 24 OFFCURVE",
"109 93 OFFCURVE",
"109 213 CURVE SMOOTH",
"109 416 OFFCURVE",
"235 663 OFFCURVE",
"413 663 CURVE SMOOTH",
"475 663 OFFCURVE",
"535 636 OFFCURVE",
"573 589 CURVE",
"597 616 LINE",
"553 668 OFFCURVE",
"487 699 OFFCURVE",
"417 699 CURVE SMOOTH",
"217 699 OFFCURVE",
"74 439 OFFCURVE",
"74 209 CURVE SMOOTH",
"74 68 OFFCURVE",
"138 -12 OFFCURVE",
"258 -12 CURVE SMOOTH"
);
}
);
width = 595;
},
{
layerId = "88AF04C7-891B-4BE3-8AB1-6195D630646B";
paths = (
{
closed = 1;
nodes = (
"484 -12 OFFCURVE",
"630 107 OFFCURVE",
"630 271 CURVE SMOOTH",
"630 384 OFFCURVE",
"545 454 OFFCURVE",
"427 454 CURVE SMOOTH",
"357 454 OFFCURVE",
"274 426 OFFCURVE",
"228 377 CURVE",
"211 173 LINE",
"228 242 OFFCURVE",
"291 299 OFFCURVE",
"358 299 CURVE SMOOTH",
"397 299 OFFCURVE",
"429 284 OFFCURVE",
"429 252 CURVE SMOOTH",
"429 199 OFFCURVE",
"371 152 OFFCURVE",
"308 152 CURVE SMOOTH",
"258 152 OFFCURVE",
"239 169 OFFCURVE",
"239 214 CURVE SMOOTH",
"239 362 OFFCURVE",
"315 530 OFFCURVE",
"454 530 CURVE SMOOTH",
"500 530 OFFCURVE",
"534 518 OFFCURVE",
"569 488 CURVE",
"678 626 LINE",
"624 669 OFFCURVE",
"556 699 OFFCURVE",
"462 699 CURVE SMOOTH",
"216 699 OFFCURVE",
"48 491 OFFCURVE",
"48 240 CURVE SMOOTH",
"48 88 OFFCURVE",
"133 -12 OFFCURVE",
"311 -12 CURVE SMOOTH"
);
}
);
width = 668;
}
);
unicode = 0036;
},
{
color = 1;
glyphname = seven;
lastChange = "2018-08-19 07:59:42 +0000";
layers = (
{
layerId = "119329DF-C854-46E0-93EC-7E8A22DFCA4F";
paths = (
{
closed = 1;
nodes = (
"138 0 LINE",
"565 628 LINE",
"576 687 LINE",
"111 687 LINE",
"96 613 LINE",
"467 613 LINE",
"47 0 LINE"
);
}
);
width = 516;
},
{
layerId = "84328D8E-4D54-44EF-AF5C-0364B1C28646";
paths = (
{
closed = 1;
nodes = (
"94 0 LINE",
"540 658 LINE",
"545 687 LINE",
"90 687 LINE",
"83 651 LINE",
"495 651 LINE",
"53 0 LINE"
);
}
);
width = 470;
},
{
layerId = "88AF04C7-891B-4BE3-8AB1-6195D630646B";
paths = (
{
closed = 1;
nodes = (
"259 0 LINE",
"636 541 LINE",
"664 687 LINE",
"122 687 LINE",
"86 514 LINE",
"403 514 LINE",
"36 0 LINE"
);
}
);
width = 610;
}
);
unicode = 0037;
},
{
color = 1;
glyphname = eight;
lastChange = "2018-08-19 07:59:42 +0000";
layers = (
{
layerId = "119329DF-C854-46E0-93EC-7E8A22DFCA4F";
paths = (
{
closed = 1;
nodes = (
"405 -12 OFFCURVE",
"547 74 OFFCURVE",
"547 206 CURVE SMOOTH",
"547 278 OFFCURVE",
"496 329 OFFCURVE",
"430 353 CURVE",
"526 386 OFFCURVE",
"601 450 OFFCURVE",
"601 544 CURVE SMOOTH",
"601 640 OFFCURVE",
"509 699 OFFCURVE",
"396 699 CURVE SMOOTH",
"268 699 OFFCURVE",
"129 619 OFFCURVE",
"129 490 CURVE SMOOTH",
"129 426 OFFCURVE",
"172 382 OFFCURVE",
"232 357 CURVE",
"126 325 OFFCURVE",
"40 252 OFFCURVE",
"40 149 CURVE SMOOTH",
"40 51 OFFCURVE",
"130 -12 OFFCURVE",
"259 -12 CURVE SMOOTH"
);
},
{
closed = 1;
nodes = (
"180 59 OFFCURVE",
"120 98 OFFCURVE",
"120 159 CURVE SMOOTH",
"120 248 OFFCURVE",
"238 316 OFFCURVE",
"328 318 CURVE",
"391 316 OFFCURVE",
"470 278 OFFCURVE",
"470 211 CURVE SMOOTH",
"470 123 OFFCURVE",
"366 59 OFFCURVE",
"263 59 CURVE SMOOTH"
);
},
{
closed = 1;
nodes = (
"275 390 OFFCURVE",
"205 420 OFFCURVE",
"205 483 CURVE SMOOTH",
"205 564 OFFCURVE",
"298 628 OFFCURVE",
"393 628 CURVE SMOOTH",
"468 628 OFFCURVE",
"521 590 OFFCURVE",
"521 534 CURVE SMOOTH",
"521 450 OFFCURVE",
"417 391 OFFCURVE",
"331 386 CURVE"
);
}
);
width = 622;
},
{
layerId = "84328D8E-4D54-44EF-AF5C-0364B1C28646";
paths = (
{
closed = 1;
nodes = (
"373 -12 OFFCURVE",
"514 85 OFFCURVE",
"514 205 CURVE SMOOTH",
"514 272 OFFCURVE",
"469 331 OFFCURVE",
"398 353 CURVE",
"495 383 OFFCURVE",
"568 467 OFFCURVE",
"568 547 CURVE SMOOTH",
"568 632 OFFCURVE",
"492 699 OFFCURVE",
"387 699 CURVE SMOOTH",
"261 699 OFFCURVE",
"139 601 OFFCURVE",
"139 493 CURVE SMOOTH",
"139 432 OFFCURVE",
"179 377 OFFCURVE",
"239 355 CURVE",
"143 328 OFFCURVE",
"50 247 OFFCURVE",
"50 148 CURVE SMOOTH",
"50 58 OFFCURVE",
"132 -12 OFFCURVE",
"245 -12 CURVE SMOOTH"
);
},
{
closed = 1;
nodes = (
"153 24 OFFCURVE",
"86 81 OFFCURVE",
"86 152 CURVE SMOOTH",
"86 254 OFFCURVE",
"197 328 OFFCURVE",
"316 331 CURVE",
"416 328 OFFCURVE",
"479 279 OFFCURVE",
"479 209 CURVE SMOOTH",
"479 112 OFFCURVE",
"364 24 OFFCURVE",
"247 24 CURVE SMOOTH"
);
},
{
closed = 1;
nodes = (
"230 378 OFFCURVE",
"173 425 OFFCURVE",
"173 489 CURVE SMOOTH",
"173 581 OFFCURVE",
"280 663 OFFCURVE",
"385 663 CURVE SMOOTH",
"470 663 OFFCURVE",
"532 610 OFFCURVE",
"532 543 CURVE SMOOTH",
"532 450 OFFCURVE",
"430 379 OFFCURVE",
"319 373 CURVE"
);
}
);
width = 599;
},
{
layerId = "88AF04C7-891B-4BE3-8AB1-6195D630646B";
paths = (
{
closed = 1;
nodes = (
"450 -12 OFFCURVE",
"609 60 OFFCURVE",
"609 210 CURVE SMOOTH",
"609 273 OFFCURVE",
"574 322 OFFCURVE",
"518 349 CURVE",
"603 386 OFFCURVE",
"658 442 OFFCURVE",
"658 531 CURVE SMOOTH",
"658 637 OFFCURVE",
"548 699 OFFCURVE",
"409 699 CURVE SMOOTH",
"261 699 OFFCURVE",
"107 630 OFFCURVE",
"107 486 CURVE SMOOTH",
"107 423 OFFCURVE",
"141 383 OFFCURVE",
"183 361 CURVE",
"91 325 OFFCURVE",
"22 261 OFFCURVE",
"22 164 CURVE SMOOTH",
"22 51 OFFCURVE",
"137 -12 OFFCURVE",
"286 -12 CURVE SMOOTH"
);
},
{
closed = 1;
nodes = (
"248 148 OFFCURVE",
"220 161 OFFCURVE",
"220 185 CURVE SMOOTH",
"220 232 OFFCURVE",
"286 269 OFFCURVE",
"345 272 CURVE",
"386 270 OFFCURVE",
"421 256 OFFCURVE",
"421 232 CURVE SMOOTH",
"421 185 OFFCURVE",
"357 148 OFFCURVE",
"295 148 CURVE SMOOTH"
);
},
{
closed = 1;
nodes = (
"316 422 OFFCURVE",
"290 436 OFFCURVE",
"290 459 CURVE SMOOTH",
"290 502 OFFCURVE",
"344 540 OFFCURVE",
"401 540 CURVE SMOOTH",
"442 540 OFFCURVE",
"465 526 OFFCURVE",
"465 505 CURVE SMOOTH",
"465 463 OFFCURVE",
"406 423 OFFCURVE",
"351 420 CURVE"
);
}
);
width = 661;
}
);
unicode = 0038;
},
{
color = 1;
glyphname = period;
lastChange = "2018-05-30 02:38:43 +0000";
layers = (
{
layerId = "119329DF-C854-46E0-93EC-7E8A22DFCA4F";
paths = (
{
closed = 1;
nodes = (
"142 -12 OFFCURVE",
"170 17 OFFCURVE",
"170 49 CURVE SMOOTH",
"170 75 OFFCURVE",
"151 96 OFFCURVE",
"123 96 CURVE SMOOTH",
"93 96 OFFCURVE",
"63 72 OFFCURVE",
"63 36 CURVE SMOOTH",
"63 9 OFFCURVE",
"82 -12 OFFCURVE",
"111 -12 CURVE SMOOTH"
);
}
);
width = 323;
},
{
layerId = "84328D8E-4D54-44EF-AF5C-0364B1C28646";
paths = (
{
closed = 1;
nodes = (
"117 -12 OFFCURVE",
"133 4 OFFCURVE",
"133 22 CURVE SMOOTH",
"133 36 OFFCURVE",
"123 48 OFFCURVE",
"107 48 CURVE SMOOTH",
"88 48 OFFCURVE",
"73 29 OFFCURVE",
"73 14 CURVE SMOOTH",
"73 -1 OFFCURVE",
"84 -12 OFFCURVE",
"101 -12 CURVE SMOOTH"
);
}
);
width = 307;
},
{
layerId = "88AF04C7-891B-4BE3-8AB1-6195D630646B";
paths = (
{
closed = 1;
nodes = (
"197 -12 OFFCURVE",
"258 46 OFFCURVE",
"258 116 CURVE SMOOTH",
"258 172 OFFCURVE",
"216 219 OFFCURVE",
"157 219 CURVE SMOOTH",
"90 219 OFFCURVE",
"28 165 OFFCURVE",
"28 93 CURVE SMOOTH",
"28 34 OFFCURVE",
"70 -12 OFFCURVE",
"133 -12 CURVE SMOOTH"
);
}
);
width = 351;
}
);
unicode = 002E;
},
{
color = 1;
glyphname = comma;
lastChange = "2018-05-30 02:40:29 +0000";
layers = (
{
layerId = "119329DF-C854-46E0-93EC-7E8A22DFCA4F";
paths = (
{
closed = 1;
nodes = (
"121 -75 OFFCURVE",
"169 -25 OFFCURVE",
"169 35 CURVE SMOOTH",
"169 71 OFFCURVE",
"151 96 OFFCURVE",
"117 96 CURVE SMOOTH",
"87 96 OFFCURVE",
"57 73 OFFCURVE",
"57 36 CURVE SMOOTH",
"57 9 OFFCURVE",
"76 -9 OFFCURVE",
"101 -9 CURVE",
"84 -40 OFFCURVE",
"60 -72 OFFCURVE",
"26 -103 CURVE",
"61 -135 LINE"
);
}
);
width = 315;
},
{
layerId = "84328D8E-4D54-44EF-AF5C-0364B1C28646";
paths = (
{
closed = 1;
nodes = (
"117 -65 OFFCURVE",
"146 -17 OFFCURVE",
"146 18 CURVE SMOOTH",
"146 37 OFFCURVE",
"135 48 OFFCURVE",
"118 48 CURVE SMOOTH",
"99 48 OFFCURVE",
"84 32 OFFCURVE",
"84 13 CURVE SMOOTH",
"84 -2 OFFCURVE",
"94 -11 OFFCURVE",
"110 -11 CURVE",
"96 -39 OFFCURVE",
"69 -73 OFFCURVE",
"37 -103 CURVE",
"61 -124 LINE"
);
}
);
width = 314;
},
{
layerId = "88AF04C7-891B-4BE3-8AB1-6195D630646B";
paths = (
{
closed = 1;
nodes = (
"164 -95 OFFCURVE",
"241 -6 OFFCURVE",
"241 98 CURVE SMOOTH",
"241 170 OFFCURVE",
"203 219 OFFCURVE",
"141 219 CURVE SMOOTH",
"78 219 OFFCURVE",
"16 159 OFFCURVE",
"16 90 CURVE SMOOTH",
"16 33 OFFCURVE",
"56 -5 OFFCURVE",
"107 -5 CURVE",
"85 -38 OFFCURVE",
"51 -75 OFFCURVE",
"11 -102 CURVE",
"74 -160 LINE"
);
}
);
width = 335;
}
);
unicode = 002C;
},
{
color = 1;
glyphname = colon;
lastChange = "2018-05-30 02:41:06 +0000";
layers = (
{
layerId = "119329DF-C854-46E0-93EC-7E8A22DFCA4F";
paths = (
{
closed = 1;
nodes = (
"219 403 OFFCURVE",
"247 432 OFFCURVE",
"247 464 CURVE SMOOTH",
"247 490 OFFCURVE",
"228 511 OFFCURVE",
"200 511 CURVE SMOOTH",
"170 511 OFFCURVE",
"140 487 OFFCURVE",
"140 451 CURVE SMOOTH",
"140 424 OFFCURVE",
"159 403 OFFCURVE",
"189 403 CURVE SMOOTH"
);
},
{
closed = 1;
nodes = (
"133 -12 OFFCURVE",
"161 17 OFFCURVE",
"161 49 CURVE SMOOTH",
"161 75 OFFCURVE",
"142 96 OFFCURVE",
"114 96 CURVE SMOOTH",
"84 96 OFFCURVE",
"54 72 OFFCURVE",
"54 36 CURVE SMOOTH",
"54 9 OFFCURVE",
"73 -12 OFFCURVE",
"102 -12 CURVE SMOOTH"
);
}
);
width = 306;
},
{
layerId = "84328D8E-4D54-44EF-AF5C-0364B1C28646";
paths = (
{
closed = 1;
nodes = (
"213 437 OFFCURVE",
"229 454 OFFCURVE",
"229 472 CURVE SMOOTH",
"229 486 OFFCURVE",
"218 497 OFFCURVE",
"203 497 CURVE SMOOTH",
"183 497 OFFCURVE",
"169 480 OFFCURVE",
"169 465 CURVE SMOOTH",
"169 449 OFFCURVE",
"179 437 OFFCURVE",
"196 437 CURVE SMOOTH"
);
},
{
closed = 1;
nodes = (
"119 -12 OFFCURVE",
"135 4 OFFCURVE",
"135 22 CURVE SMOOTH",
"135 36 OFFCURVE",
"125 48 OFFCURVE",
"109 48 CURVE SMOOTH",
"90 48 OFFCURVE",
"75 29 OFFCURVE",
"75 14 CURVE SMOOTH",
"75 -1 OFFCURVE",
"86 -12 OFFCURVE",
"103 -12 CURVE SMOOTH"
);
}
);
width = 311;
},
{
layerId = "88AF04C7-891B-4BE3-8AB1-6195D630646B";
paths = (
{
closed = 1;
nodes = (
"261 313 OFFCURVE",
"322 371 OFFCURVE",
"322 440 CURVE SMOOTH",
"322 497 OFFCURVE",
"280 544 OFFCURVE",
"220 544 CURVE SMOOTH",
"154 544 OFFCURVE",
"91 490 OFFCURVE",
"91 419 CURVE SMOOTH",
"91 359 OFFCURVE",
"133 313 OFFCURVE",
"197 313 CURVE SMOOTH"
);
},
{
closed = 1;
nodes = (
"193 -12 OFFCURVE",
"254 46 OFFCURVE",
"254 116 CURVE SMOOTH",
"254 172 OFFCURVE",
"212 219 OFFCURVE",
"153 219 CURVE SMOOTH",
"86 219 OFFCURVE",
"24 165 OFFCURVE",
"24 93 CURVE SMOOTH",
"24 34 OFFCURVE",
"66 -12 OFFCURVE",
"129 -12 CURVE SMOOTH"
);
}
);
width = 342;
}
);
unicode = 003A;
},
{
color = 1;
glyphname = exclam;
lastChange = "2018-09-01 04:08:58 +0000";
layers = (
{
components = (
{
name = period;
transform = "{1, 0, 0, 1, -1, 0}";
}
);
layerId = "119329DF-C854-46E0-93EC-7E8A22DFCA4F";
paths = (
{
closed = 1;
nodes = (
"171 193 LINE",
"293 687 LINE",
"201 687 LINE",
"118 193 LINE"
);
}
);
width = 317;
},
{
components = (
{
name = period;
transform = "{1, 0, 0, 1, 4, 0}";
}
);
layerId = "84328D8E-4D54-44EF-AF5C-0364B1C28646";
paths = (
{
closed = 1;
nodes = (
"164 193 LINE",
"266 687 LINE",
"230 687 LINE",
"128 193 LINE"
);
}
);
width = 318;
},
{
components = (
{
name = period;
transform = "{1, 0, 0, 1, -4, 0}";
}
);
layerId = "88AF04C7-891B-4BE3-8AB1-6195D630646B";
paths = (
{
closed = 1;
nodes = (
"235 274 LINE",
"363 687 LINE",
"148 687 LINE",
"105 274 LINE"
);
}
);
width = 337;
}
);
unicode = 0021;
},
{
color = 1;
glyphname = question;
lastChange = "2018-09-01 04:08:58 +0000";
layers = (
{
components = (
{
name = period;
transform = "{1, 0, 0, 1, 78, 0}";
}
);
layerId = "119329DF-C854-46E0-93EC-7E8A22DFCA4F";
paths = (
{
closed = 1;
nodes = (
"262 193 LINE",
"288 320 LINE",
"409 345 OFFCURVE",
"529 430 OFFCURVE",
"529 547 CURVE SMOOTH",
"529 634 OFFCURVE",
"462 699 OFFCURVE",
"348 699 CURVE SMOOTH",
"250 699 OFFCURVE",
"169 652 OFFCURVE",
"103 586 CURVE",
"147 531 LINE",
"201 585 OFFCURVE",
"263 628 OFFCURVE",
"341 628 CURVE SMOOTH",
"412 628 OFFCURVE",
"449 586 OFFCURVE",
"449 536 CURVE SMOOTH",
"449 447 OFFCURVE",
"328 389 OFFCURVE",
"216 380 CURVE",
"178 193 LINE"
);
}
);
width = 524;
},
{
components = (
{
name = period;
transform = "{1, 0, 0, 1, 64, 0}";
}
);
layerId = "84328D8E-4D54-44EF-AF5C-0364B1C28646";
paths = (
{
closed = 1;
nodes = (
"225 193 LINE",
"252 326 LINE",
"376 347 OFFCURVE",
"493 432 OFFCURVE",
"493 547 CURVE SMOOTH",
"493 632 OFFCURVE",
"427 699 OFFCURVE",
"335 699 CURVE SMOOTH",
"247 699 OFFCURVE",
"166 662 OFFCURVE",
"88 585 CURVE",
"111 558 LINE",
"175 628 OFFCURVE",
"248 663 OFFCURVE",
"331 663 CURVE SMOOTH",
"405 663 OFFCURVE",
"456 611 OFFCURVE",
"456 543 CURVE SMOOTH",
"456 447 OFFCURVE",
"351 366 OFFCURVE",
"219 356 CURVE",
"186 193 LINE"
);
}
);
width = 482;
},
{
components = (
{
name = period;
transform = "{1, 0, 0, 1, 107, 0}";
}
);
layerId = "88AF04C7-891B-4BE3-8AB1-6195D630646B";
paths = (
{
closed = 1;
nodes = (
"361 264 LINE",
"368 298 LINE",
"476 323 OFFCURVE",
"565 412 OFFCURVE",
"565 525 CURVE SMOOTH",
"565 628 OFFCURVE",
"485 699 OFFCURVE",
"358 699 CURVE SMOOTH",
"268 699 OFFCURVE",
"178 663 OFFCURVE",
"105 601 CURVE",
"197 482 LINE",
"225 505 OFFCURVE",
"271 526 OFFCURVE",
"309 526 CURVE SMOOTH",
"344 526 OFFCURVE",
"367 515 OFFCURVE",
"367 488 CURVE SMOOTH",
"367 448 OFFCURVE",
"284 414 OFFCURVE",
"215 414 CURVE",
"185 264 LINE"
);
}
);
width = 557;
}
);
unicode = 003F;
},
{
color = 1;
glyphname = periodcentered;
lastChange = "2018-05-30 02:56:33 +0000";
layers = (
{
layerId = "84328D8E-4D54-44EF-AF5C-0364B1C28646";
paths = (
{
closed = 1;
nodes = (
"166 241 OFFCURVE",
"181 255 OFFCURVE",
"181 272 CURVE SMOOTH",
"181 286 OFFCURVE",
"171 296 OFFCURVE",
"156 296 CURVE SMOOTH",
"139 296 OFFCURVE",
"125 281 OFFCURVE",
"125 265 CURVE SMOOTH",
"125 251 OFFCURVE",
"135 241 OFFCURVE",
"151 241 CURVE SMOOTH"
);
}
);
width = 303;
},
{
layerId = "119329DF-C854-46E0-93EC-7E8A22DFCA4F";
paths = (
{
closed = 1;
nodes = (
"187 221 OFFCURVE",
"214 246 OFFCURVE",
"214 279 CURVE SMOOTH",
"214 305 OFFCURVE",
"195 324 OFFCURVE",
"168 324 CURVE SMOOTH",
"138 324 OFFCURVE",
"112 299 OFFCURVE",
"112 266 CURVE SMOOTH",
"112 240 OFFCURVE",
"130 221 OFFCURVE",
"158 221 CURVE SMOOTH"
);
}
);
width = 320;
},
{
layerId = "88AF04C7-891B-4BE3-8AB1-6195D630646B";
paths = (
{
closed = 1;
nodes = (
"221 177 OFFCURVE",
"271 229 OFFCURVE",
"271 288 CURVE SMOOTH",
"271 340 OFFCURVE",
"232 381 OFFCURVE",
"178 381 CURVE SMOOTH",
"118 381 OFFCURVE",
"68 330 OFFCURVE",
"68 269 CURVE SMOOTH",
"68 217 OFFCURVE",
"106 177 OFFCURVE",
"161 177 CURVE SMOOTH"
);
}
);
width = 330;
}
);
unicode = 00B7;
},
{
color = 1;
glyphname = bullet;
lastChange = "2018-05-30 02:57:34 +0000";
layers = (
{
layerId = "84328D8E-4D54-44EF-AF5C-0364B1C28646";
paths = (
{
closed = 1;
nodes = (
"263 196 OFFCURVE",
"323 253 OFFCURVE",
"323 316 CURVE SMOOTH",
"323 363 OFFCURVE",
"288 399 OFFCURVE",
"239 399 CURVE SMOOTH",
"177 399 OFFCURVE",
"117 341 OFFCURVE",
"117 280 CURVE SMOOTH",
"117 232 OFFCURVE",
"152 196 OFFCURVE",
"202 196 CURVE SMOOTH"
);
}
);
width = 424;
},
{
layerId = "119329DF-C854-46E0-93EC-7E8A22DFCA4F";
paths = (
{
closed = 1;
nodes = (
"274 178 OFFCURVE",
"344 243 OFFCURVE",
"344 317 CURVE SMOOTH",
"344 373 OFFCURVE",
"302 417 OFFCURVE",
"243 417 CURVE SMOOTH",
"170 417 OFFCURVE",
"102 351 OFFCURVE",
"102 278 CURVE SMOOTH",
"102 221 OFFCURVE",
"144 178 OFFCURVE",
"204 178 CURVE SMOOTH"
);
}
);
width = 429;
},
{
layerId = "88AF04C7-891B-4BE3-8AB1-6195D630646B";
paths = (
{
closed = 1;
nodes = (
"288 148 OFFCURVE",
"366 228 OFFCURVE",
"366 316 CURVE SMOOTH",
"366 390 OFFCURVE",
"312 447 OFFCURVE",
"235 447 CURVE SMOOTH",
"144 447 OFFCURVE",
"66 369 OFFCURVE",
"66 279 CURVE SMOOTH",
"66 205 OFFCURVE",
"120 148 OFFCURVE",
"198 148 CURVE SMOOTH"
);
}
);
width = 414;
}
);
unicode = 2022;
},
{
color = 1;
glyphname = asterisk;
lastChange = "2018-06-01 02:55:49 +0000";
layers = (
{
layerId = "119329DF-C854-46E0-93EC-7E8A22DFCA4F";
paths = (
{
closed = 1;
nodes = (
"269 376 OFFCURVE",
"282 386 OFFCURVE",
"284 398 CURVE SMOOTH",
"293 440 OFFCURVE",
"291 481 OFFCURVE",
"294 523 CURVE",
"323 498 OFFCURVE",
"347 468 OFFCURVE",
"378 447 CURVE SMOOTH",
"387 441 OFFCURVE",
"403 446 OFFCURVE",
"413 458 CURVE SMOOTH",
"422 470 OFFCURVE",
"421 484 OFFCURVE",
"412 490 CURVE SMOOTH",
"381 511 OFFCURVE",
"342 522 OFFCURVE",
"307 539 CURVE",
"349 556 OFFCURVE",
"392 567 OFFCURVE",
"433 588 CURVE SMOOTH",
"444 594 OFFCURVE",
"451 608 OFFCURVE",
"446 620 CURVE SMOOTH",
"442 632 OFFCURVE",
"428 637 OFFCURVE",
"417 631 CURVE SMOOTH",
"376 610 OFFCURVE",
"340 580 OFFCURVE",
"301 555 CURVE",
"315 597 OFFCURVE",
"334 638 OFFCURVE",
"343 680 CURVE SMOOTH",
"345 692 OFFCURVE",
"336 702 OFFCURVE",
"322 702 CURVE SMOOTH",
"308 702 OFFCURVE",
"295 692 OFFCURVE",
"293 680 CURVE SMOOTH",
"284 638 OFFCURVE",
"287 597 OFFCURVE",
"283 555 CURVE",
"254 580 OFFCURVE",
"230 610 OFFCURVE",
"199 631 CURVE SMOOTH",
"190 637 OFFCURVE",
"174 632 OFFCURVE",
"164 620 CURVE SMOOTH",
"155 608 OFFCURVE",
"156 594 OFFCURVE",
"165 588 CURVE SMOOTH",
"196 567 OFFCURVE",
"235 556 OFFCURVE",
"271 539 CURVE",
"228 522 OFFCURVE",
"185 511 OFFCURVE",
"144 490 CURVE SMOOTH",
"133 484 OFFCURVE",
"126 470 OFFCURVE",
"131 458 CURVE SMOOTH",
"135 446 OFFCURVE",
"149 441 OFFCURVE",
"160 447 CURVE SMOOTH",
"201 468 OFFCURVE",
"237 498 OFFCURVE",
"276 523 CURVE",
"263 481 OFFCURVE",
"243 440 OFFCURVE",
"234 398 CURVE SMOOTH",
"232 386 OFFCURVE",
"241 376 OFFCURVE",
"255 376 CURVE SMOOTH"
);
}
);
width = 462;
},
{
layerId = "84328D8E-4D54-44EF-AF5C-0364B1C28646";
paths = (
{
closed = 1;
nodes = (
"264 404 OFFCURVE",
"274 412 OFFCURVE",
"276 421 CURVE SMOOTH",
"282 452 OFFCURVE",
"282 489 OFFCURVE",
"286 529 CURVE",
"315 505 OFFCURVE",
"338 480 OFFCURVE",
"360 464 CURVE SMOOTH",
"367 459 OFFCURVE",
"380 463 OFFCURVE",
"385 471 CURVE SMOOTH",
"393 480 OFFCURVE",
"392 491 OFFCURVE",
"384 495 CURVE SMOOTH",
"360 509 OFFCURVE",
"328 522 OFFCURVE",
"295 539 CURVE",
"335 556 OFFCURVE",
"374 567 OFFCURVE",
"403 583 CURVE SMOOTH",
"412 588 OFFCURVE",
"418 598 OFFCURVE",
"414 607 CURVE SMOOTH",
"411 615 OFFCURVE",
"400 618 OFFCURVE",
"391 614 CURVE SMOOTH",
"361 600 OFFCURVE",
"329 573 OFFCURVE",
"291 549 CURVE",
"303 589 OFFCURVE",
"319 626 OFFCURVE",
"325 657 CURVE SMOOTH",
"327 666 OFFCURVE",
"321 674 OFFCURVE",
"311 674 CURVE SMOOTH",
"301 674 OFFCURVE",
"291 666 OFFCURVE",
"289 657 CURVE SMOOTH",
"283 626 OFFCURVE",
"283 589 OFFCURVE",
"279 549 CURVE",
"251 573 OFFCURVE",
"228 598 OFFCURVE",
"205 614 CURVE SMOOTH",
"198 619 OFFCURVE",
"186 615 OFFCURVE",
"180 607 CURVE SMOOTH",
"173 598 OFFCURVE",
"175 587 OFFCURVE",
"181 583 CURVE SMOOTH",
"206 569 OFFCURVE",
"237 556 OFFCURVE",
"271 539 CURVE",
"230 522 OFFCURVE",
"192 511 OFFCURVE",
"162 495 CURVE SMOOTH",
"153 490 OFFCURVE",
"148 480 OFFCURVE",
"151 471 CURVE SMOOTH",
"155 463 OFFCURVE",
"166 460 OFFCURVE",
"174 464 CURVE SMOOTH",
"205 478 OFFCURVE",
"237 505 OFFCURVE",
"274 529 CURVE",
"262 489 OFFCURVE",
"246 452 OFFCURVE",
"240 421 CURVE SMOOTH",
"238 412 OFFCURVE",
"244 404 OFFCURVE",
"254 404 CURVE SMOOTH"
);
}
);
width = 448;
},
{
layerId = "88AF04C7-891B-4BE3-8AB1-6195D630646B";
paths = (
{
closed = 1;
nodes = (
"264 325 OFFCURVE",
"289 345 OFFCURVE",
"294 368 CURVE SMOOTH",
"301 400 OFFCURVE",
"289 444 OFFCURVE",
"290 476 CURVE",
"311 456 OFFCURVE",
"331 416 OFFCURVE",
"355 400 CURVE SMOOTH",
"372 388 OFFCURVE",
"402 396 OFFCURVE",
"420 419 CURVE SMOOTH",
"437 442 OFFCURVE",
"436 470 OFFCURVE",
"419 481 CURVE SMOOTH",
"395 497 OFFCURVE",
"348 502 OFFCURVE",
"319 514 CURVE",
"352 526 OFFCURVE",
"402 530 OFFCURVE",
"432 546 CURVE SMOOTH",
"454 557 OFFCURVE",
"467 585 OFFCURVE",
"459 608 CURVE SMOOTH",
"451 631 OFFCURVE",
"424 639 OFFCURVE",
"402 627 CURVE SMOOTH",
"372 611 OFFCURVE",
"335 572 OFFCURVE",
"305 552 CURVE",
"317 584 OFFCURVE",
"347 628 OFFCURVE",
"354 660 CURVE SMOOTH",
"359 683 OFFCURVE",
"342 703 OFFCURVE",
"316 703 CURVE SMOOTH",
"290 703 OFFCURVE",
"265 683 OFFCURVE",
"260 660 CURVE SMOOTH",
"253 628 OFFCURVE",
"264 584 OFFCURVE",
"262 552 CURVE",
"241 572 OFFCURVE",
"222 612 OFFCURVE",
"198 628 CURVE SMOOTH",
"181 640 OFFCURVE",
"151 632 OFFCURVE",
"133 609 CURVE SMOOTH",
"115 586 OFFCURVE",
"117 558 OFFCURVE",
"134 547 CURVE SMOOTH",
"158 531 OFFCURVE",
"204 526 OFFCURVE",
"232 514 CURVE",
"200 502 OFFCURVE",
"151 498 OFFCURVE",
"121 482 CURVE SMOOTH",
"98 471 OFFCURVE",
"86 443 OFFCURVE",
"94 420 CURVE SMOOTH",
"102 397 OFFCURVE",
"128 389 OFFCURVE",
"151 401 CURVE SMOOTH",
"181 417 OFFCURVE",
"216 456 OFFCURVE",
"246 476 CURVE",
"235 444 OFFCURVE",
"207 400 OFFCURVE",
"200 368 CURVE SMOOTH",
"195 345 OFFCURVE",
"212 325 OFFCURVE",
"238 325 CURVE SMOOTH"
);
}
);
width = 448;
}
);
unicode = 002A;
},
{
color = 1;
glyphname = numbersign;
lastChange = "2018-06-01 02:56:56 +0000";
layers = (
{
layerId = "119329DF-C854-46E0-93EC-7E8A22DFCA4F";
paths = (
{
closed = 1;
nodes = (
"128 0 LINE",
"444 687 LINE",
"377 687 LINE",
"61 0 LINE"
);
},
{
closed = 1;
nodes = (
"344 0 LINE",
"660 687 LINE",
"593 687 LINE",
"277 0 LINE"
);
},
{
closed = 1;
nodes = (
"544 179 LINE",
"572 240 LINE",
"58 240 LINE",
"30 179 LINE"
);
},
{
closed = 1;
nodes = (
"667 446 LINE",
"695 507 LINE",
"179 507 LINE",
"152 446 LINE"
);
}
);
width = 689;
},
{
layerId = "84328D8E-4D54-44EF-AF5C-0364B1C28646";
paths = (
{
closed = 1;
nodes = (
"111 0 LINE",
"427 687 LINE",
"389 687 LINE",
"73 0 LINE"
);
},
{
closed = 1;
nodes = (
"327 0 LINE",
"643 687 LINE",
"605 687 LINE",
"289 0 LINE"
);
},
{
closed = 1;
nodes = (
"547 192 LINE",
"563 228 LINE",
"50 228 LINE",
"33 192 LINE"
);
},
{
closed = 1;
nodes = (
"669 459 LINE",
"686 495 LINE",
"171 495 LINE",
"155 459 LINE"
);
}
);
width = 683;
},
{
layerId = "88AF04C7-891B-4BE3-8AB1-6195D630646B";
paths = (
{
closed = 1;
nodes = (
"167 0 LINE",
"483 687 LINE",
"345 687 LINE",
"29 0 LINE"
);
},
{
closed = 1;
nodes = (
"394 0 LINE",
"710 687 LINE",
"572 687 LINE",
"256 0 LINE"
);
},
{
closed = 1;
nodes = (
"545 147 LINE",
"606 281 LINE",
"77 281 LINE",
"16 147 LINE"
);
},
{
closed = 1;
nodes = (
"663 404 LINE",
"724 538 LINE",
"191 538 LINE",
"130 404 LINE"
);
}
);
width = 705;
}
);
unicode = 0023;
},
{
color = 1;
glyphname = slash;
lastChange = "2018-06-01 02:57:40 +0000";
layers = (
{
layerId = "119329DF-C854-46E0-93EC-7E8A22DFCA4F";
paths = (
{
closed = 1;
nodes = (
"18 -74 LINE",
"539 743 LINE",
"452 743 LINE",
"-69 -74 LINE"
);
}
);
width = 438;
},
{
layerId = "84328D8E-4D54-44EF-AF5C-0364B1C28646";
paths = (
{
closed = 1;
nodes = (
"-45 -74 LINE",
"476 743 LINE",
"436 743 LINE",
"-85 -74 LINE"
);
}
);
width = 359;
},
{
layerId = "88AF04C7-891B-4BE3-8AB1-6195D630646B";
paths = (
{
closed = 1;
nodes = (
"146 -74 LINE",
"656 743 LINE",
"452 743 LINE",
"-58 -74 LINE"
);
}
);
width = 566;
}
);
unicode = 002F;
},
{
color = 1;
glyphname = backslash;
lastChange = "2018-06-01 02:58:05 +0000";
layers = (
{
layerId = "119329DF-C854-46E0-93EC-7E8A22DFCA4F";
paths = (
{
closed = 1;
nodes = (
"365 -74 LINE",
"184 743 LINE",
"101 743 LINE",
"282 -74 LINE"
);
}
);
width = 434;
},
{
layerId = "84328D8E-4D54-44EF-AF5C-0364B1C28646";
paths = (
{
closed = 1;
nodes = (
"304 -74 LINE",
"123 743 LINE",
"85 743 LINE",
"266 -74 LINE"
);
}
);
width = 357;
},
{
layerId = "88AF04C7-891B-4BE3-8AB1-6195D630646B";
paths = (
{
closed = 1;
nodes = (
"478 -74 LINE",
"308 743 LINE",
"112 743 LINE",
"282 -74 LINE"
);
}
);
width = 558;
}
);
unicode = 005C;
},
{
color = 1;
glyphname = parenleft;
lastChange = "2018-06-01 02:58:38 +0000";
layers = (
{
layerId = "119329DF-C854-46E0-93EC-7E8A22DFCA4F";
paths = (
{
closed = 1;
nodes = (
"221 -129 LINE",
"156 -46 OFFCURVE",
"121 40 OFFCURVE",
"121 145 CURVE SMOOTH",
"121 350 OFFCURVE",
"223 518 OFFCURVE",
"387 656 CURVE",
"351 702 LINE",
"166 569 OFFCURVE",
"43 369 OFFCURVE",
"43 155 CURVE SMOOTH",
"43 29 OFFCURVE",
"90 -82 OFFCURVE",
"176 -168 CURVE"
);
}
);
width = 329;
},
{
layerId = "84328D8E-4D54-44EF-AF5C-0364B1C28646";
paths = (
{
closed = 1;
nodes = (
"191 -144 LINE",
"119 -51 OFFCURVE",
"81 61 OFFCURVE",
"81 170 CURVE SMOOTH",
"81 358 OFFCURVE",
"207 541 OFFCURVE",
"362 673 CURVE",
"341 701 LINE",
"179 563 OFFCURVE",
"45 368 OFFCURVE",
"45 168 CURVE SMOOTH",
"45 49 OFFCURVE",
"86 -71 OFFCURVE",
"162 -169 CURVE"
);
}
);
width = 293;
},
{
layerId = "88AF04C7-891B-4BE3-8AB1-6195D630646B";
paths = (
{
closed = 1;
nodes = (
"297 -72 LINE",
"238 2 OFFCURVE",
"213 72 OFFCURVE",
"213 152 CURVE SMOOTH",
"213 322 OFFCURVE",
"298 470 OFFCURVE",
"442 593 CURVE",
"356 704 LINE",
"160 589 OFFCURVE",
"30 385 OFFCURVE",
"30 168 CURVE SMOOTH",
"30 28 OFFCURVE",
"88 -90 OFFCURVE",
"188 -166 CURVE"
);
}
);
width = 396;
}
);
unicode = 0028;
},
{
color = 1;
glyphname = parenright;
lastChange = "2018-06-01 02:59:04 +0000";
layers = (
{
layerId = "119329DF-C854-46E0-93EC-7E8A22DFCA4F";
paths = (
{
closed = 1;
nodes = (
"165 -39 OFFCURVE",
"288 162 OFFCURVE",
"288 376 CURVE SMOOTH",
"288 502 OFFCURVE",
"241 612 OFFCURVE",
"156 698 CURVE",
"111 660 LINE",
"175 576 OFFCURVE",
"210 491 OFFCURVE",
"210 385 CURVE SMOOTH",
"210 185 OFFCURVE",
"112 15 OFFCURVE",
"-55 -125 CURVE",
"-20 -172 LINE"
);
}
);
width = 328;
},
{
layerId = "84328D8E-4D54-44EF-AF5C-0364B1C28646";
paths = (
{
closed = 1;
nodes = (
"117 -35 OFFCURVE",
"251 161 OFFCURVE",
"251 360 CURVE SMOOTH",
"251 478 OFFCURVE",
"210 599 OFFCURVE",
"134 699 CURVE",
"105 675 LINE",
"177 582 OFFCURVE",
"215 469 OFFCURVE",
"215 360 CURVE SMOOTH",
"215 172 OFFCURVE",
"90 -11 OFFCURVE",
"-66 -142 CURVE",
"-45 -171 LINE"
);
}
);
width = 294;
},
{
layerId = "88AF04C7-891B-4BE3-8AB1-6195D630646B";
paths = (
{
closed = 1;
nodes = (
"239 -59 OFFCURVE",
"370 144 OFFCURVE",
"370 364 CURVE SMOOTH",
"370 503 OFFCURVE",
"312 620 OFFCURVE",
"212 696 CURVE",
"103 603 LINE",
"161 529 OFFCURVE",
"187 459 OFFCURVE",
"187 379 CURVE SMOOTH",
"187 205 OFFCURVE",
"102 60 OFFCURVE",
"-42 -62 CURVE",
"44 -174 LINE"
);
}
);
width = 397;
}
);
unicode = 0029;
},
{
color = 1;
glyphname = braceleft;
lastChange = "2018-06-01 03:00:16 +0000";
layers = (
{
layerId = "119329DF-C854-46E0-93EC-7E8A22DFCA4F";
paths = (
{
closed = 1;
nodes = (
"247 -113 LINE",
"157 -99 OFFCURVE",
"127 -84 OFFCURVE",
"127 -37 CURVE SMOOTH",
"127 12 OFFCURVE",
"167 137 OFFCURVE",
"167 183 CURVE SMOOTH",
"167 225 OFFCURVE",
"147 250 OFFCURVE",
"112 264 CURVE",
"168 282 OFFCURVE",
"198 314 OFFCURVE",
"211 377 CURVE SMOOTH",
"240 521 LINE SMOOTH",
"256 600 OFFCURVE",
"287 626 OFFCURVE",
"410 644 CURVE",
"409 697 LINE",
"252 680 OFFCURVE",
"199 635 OFFCURVE",
"177 531 CURVE SMOOTH",
"148 391 LINE SMOOTH",
"134 325 OFFCURVE",
"99 293 OFFCURVE",
"27 293 CURVE",
"21 238 LINE",
"78 238 OFFCURVE",
"101 223 OFFCURVE",
"101 182 CURVE SMOOTH",
"101 138 OFFCURVE",
"62 8 OFFCURVE",
"62 -42 CURVE SMOOTH",
"62 -114 OFFCURVE",
"110 -152 OFFCURVE",
"236 -166 CURVE"
);
}
);
width = 357;
},
{
layerId = "84328D8E-4D54-44EF-AF5C-0364B1C28646";
paths = (
{
closed = 1;
nodes = (
"238 -131 LINE",
"147 -121 OFFCURVE",
"108 -92 OFFCURVE",
"108 -33 CURVE SMOOTH",
"108 12 OFFCURVE",
"149 147 OFFCURVE",
"149 193 CURVE SMOOTH",
"149 232 OFFCURVE",
"132 254 OFFCURVE",
"98 265 CURVE",
"152 280 OFFCURVE",
"177 312 OFFCURVE",
"191 379 CURVE SMOOTH",
"220 523 LINE SMOOTH",
"238 609 OFFCURVE",
"292 650 OFFCURVE",
"406 662 CURVE",
"406 697 LINE",
"270 682 OFFCURVE",
"209 635 OFFCURVE",
"187 529 CURVE SMOOTH",
"157 389 LINE SMOOTH",
"142 315 OFFCURVE",
"102 284 OFFCURVE",
"21 284 CURVE",
"17 248 LINE",
"83 248 OFFCURVE",
"111 229 OFFCURVE",
"111 181 CURVE SMOOTH",
"111 128 OFFCURVE",
"72 24 OFFCURVE",
"72 -43 CURVE SMOOTH",
"72 -117 OFFCURVE",
"121 -153 OFFCURVE",
"229 -166 CURVE"
);
}
);
width = 335;
},
{
layerId = "88AF04C7-891B-4BE3-8AB1-6195D630646B";
paths = (
{
closed = 1;
nodes = (
"324 -54 LINE",
"246 -44 OFFCURVE",
"221 -37 OFFCURVE",
"221 -1 CURVE SMOOTH",
"221 34 OFFCURVE",
"253 131 OFFCURVE",
"253 175 CURVE SMOOTH",
"253 218 OFFCURVE",
"231 249 OFFCURVE",
"195 261 CURVE",
"258 281 OFFCURVE",
"285 313 OFFCURVE",
"297 370 CURVE SMOOTH",
"319 485 LINE SMOOTH",
"333 548 OFFCURVE",
"364 571 OFFCURVE",
"468 583 CURVE",
"463 698 LINE",
"281 686 OFFCURVE",
"204 637 OFFCURVE",
"179 516 CURVE SMOOTH",
"159 410 LINE SMOOTH",
"147 353 OFFCURVE",
"108 321 OFFCURVE",
"40 321 CURVE",
"30 211 LINE",
"84 211 OFFCURVE",
"105 200 OFFCURVE",
"105 166 CURVE SMOOTH",
"105 126 OFFCURVE",
"73 36 OFFCURVE",
"73 -15 CURVE SMOOTH",
"73 -106 OFFCURVE",
"142 -156 OFFCURVE",
"297 -166 CURVE"
);
}
);
width = 432;
}
);
unicode = 007B;
},
{
color = 1;
glyphname = braceright;
lastChange = "2018-06-01 03:01:15 +0000";
layers = (
{
layerId = "119329DF-C854-46E0-93EC-7E8A22DFCA4F";
paths = (
{
closed = 1;
nodes = (
"109 -149 OFFCURVE",
"162 -103 OFFCURVE",
"183 0 CURVE SMOOTH",
"213 141 LINE SMOOTH",
"227 208 OFFCURVE",
"263 238 OFFCURVE",
"334 238 CURVE",
"340 293 LINE",
"283 293 OFFCURVE",
"260 309 OFFCURVE",
"260 349 CURVE SMOOTH",
"260 398 OFFCURVE",
"298 519 OFFCURVE",
"298 572 CURVE SMOOTH",
"298 645 OFFCURVE",
"250 683 OFFCURVE",
"125 697 CURVE",
"113 644 LINE",
"204 630 OFFCURVE",
"234 614 OFFCURVE",
"234 569 CURVE SMOOTH",
"234 534 OFFCURVE",
"193 393 OFFCURVE",
"193 349 CURVE SMOOTH",
"193 307 OFFCURVE",
"214 281 OFFCURVE",
"248 268 CURVE",
"192 249 OFFCURVE",
"163 217 OFFCURVE",
"150 154 CURVE SMOOTH",
"121 11 LINE SMOOTH",
"104 -70 OFFCURVE",
"71 -95 OFFCURVE",
"-50 -113 CURVE",
"-49 -166 LINE"
);
}
);
width = 358;
},
{
layerId = "84328D8E-4D54-44EF-AF5C-0364B1C28646";
paths = (
{
closed = 1;
nodes = (
"67 -151 OFFCURVE",
"129 -104 OFFCURVE",
"151 2 CURVE SMOOTH",
"180 143 LINE SMOOTH",
"196 217 OFFCURVE",
"236 248 OFFCURVE",
"317 248 CURVE",
"321 284 LINE",
"255 284 OFFCURVE",
"226 303 OFFCURVE",
"226 350 CURVE SMOOTH",
"226 385 OFFCURVE",
"265 525 OFFCURVE",
"265 574 CURVE SMOOTH",
"265 648 OFFCURVE",
"217 684 OFFCURVE",
"108 697 CURVE",
"100 662 LINE",
"190 652 OFFCURVE",
"229 623 OFFCURVE",
"229 564 CURVE SMOOTH",
"229 517 OFFCURVE",
"189 389 OFFCURVE",
"189 337 CURVE SMOOTH",
"189 299 OFFCURVE",
"205 277 OFFCURVE",
"240 267 CURVE",
"185 251 OFFCURVE",
"160 219 OFFCURVE",
"146 152 CURVE SMOOTH",
"117 9 LINE SMOOTH",
"99 -78 OFFCURVE",
"45 -119 OFFCURVE",
"-68 -131 CURVE",
"-68 -166 LINE"
);
}
);
width = 335;
},
{
layerId = "88AF04C7-891B-4BE3-8AB1-6195D630646B";
paths = (
{
closed = 1;
nodes = (
"155 -154 OFFCURVE",
"231 -105 OFFCURVE",
"256 15 CURVE SMOOTH",
"276 122 LINE SMOOTH",
"288 179 OFFCURVE",
"329 211 OFFCURVE",
"395 211 CURVE",
"405 321 LINE",
"350 321 OFFCURVE",
"329 331 OFFCURVE",
"329 365 CURVE SMOOTH",
"329 395 OFFCURVE",
"362 502 OFFCURVE",
"362 546 CURVE SMOOTH",
"362 637 OFFCURVE",
"292 687 OFFCURVE",
"137 697 CURVE",
"111 585 LINE",
"190 575 OFFCURVE",
"214 568 OFFCURVE",
"214 533 CURVE SMOOTH",
"214 501 OFFCURVE",
"182 395 OFFCURVE",
"182 357 CURVE SMOOTH",
"182 314 OFFCURVE",
"204 283 OFFCURVE",
"240 271 CURVE",
"177 251 OFFCURVE",
"150 219 OFFCURVE",
"138 161 CURVE SMOOTH",
"115 47 LINE SMOOTH",
"102 -17 OFFCURVE",
"68 -40 OFFCURVE",
"-34 -52 CURVE",
"-29 -166 LINE"
);
}
);
width = 432;
}
);
unicode = 007D;
},
{
color = 1;
glyphname = bracketleft;
lastChange = "2018-06-01 03:17:20 +0000";
layers = (
{
layerId = "119329DF-C854-46E0-93EC-7E8A22DFCA4F";
paths = (
{
closed = 1;
nodes = (
"264 -115 LINE",
"275 -58 LINE",
"105 -58 LINE",
"258 677 LINE",
"428 677 LINE",
"440 734 LINE",
"204 734 LINE",
"28 -115 LINE"
);
}
);
width = 371;
},
{
layerId = "84328D8E-4D54-44EF-AF5C-0364B1C28646";
paths = (
{
closed = 1;
nodes = (
"265 -115 LINE",
"272 -79 LINE",
"87 -79 LINE",
"249 698 LINE",
"434 698 LINE",
"441 734 LINE",
"220 734 LINE",
"44 -115 LINE"
);
}
);
width = 358;
},
{
layerId = "88AF04C7-891B-4BE3-8AB1-6195D630646B";
paths = (
{
closed = 1;
nodes = (
"278 -160 LINE",
"303 -39 LINE",
"155 -39 LINE",
"282 568 LINE",
"430 568 LINE",
"455 689 LINE",
"160 689 LINE",
"-17 -160 LINE"
);
}
);
width = 402;
}
);
unicode = 005B;
},
{
color = 1;
glyphname = bracketright;
lastChange = "2018-06-01 03:17:55 +0000";
layers = (
{
layerId = "119329DF-C854-46E0-93EC-7E8A22DFCA4F";
paths = (
{
closed = 1;
nodes = (
"188 -115 LINE",
"364 734 LINE",
"128 734 LINE",
"116 677 LINE",
"286 677 LINE",
"133 -58 LINE",
"-37 -58 LINE",
"-48 -115 LINE"
);
}
);
width = 371;
},
{
layerId = "84328D8E-4D54-44EF-AF5C-0364B1C28646";
paths = (
{
closed = 1;
nodes = (
"159 -115 LINE",
"335 734 LINE",
"114 734 LINE",
"107 698 LINE",
"292 698 LINE",
"130 -79 LINE",
"-55 -79 LINE",
"-62 -115 LINE"
);
}
);
width = 358;
},
{
layerId = "88AF04C7-891B-4BE3-8AB1-6195D630646B";
paths = (
{
closed = 1;
nodes = (
"244 -160 LINE",
"421 689 LINE",
"126 689 LINE",
"101 568 LINE",
"249 568 LINE",
"122 -39 LINE",
"-26 -39 LINE",
"-51 -160 LINE"
);
}
);
width = 401;
}
);
unicode = 005D;
},
{
color = 1;
glyphname = hyphen;
lastChange = "2018-06-01 03:18:34 +0000";
layers = (
{
layerId = "119329DF-C854-46E0-93EC-7E8A22DFCA4F";
paths = (
{
closed = 1;
nodes = (
"340 235 LINE",
"356 308 LINE",
"97 308 LINE",
"81 235 LINE"
);
}
);
width = 432;
},
{
layerId = "84328D8E-4D54-44EF-AF5C-0364B1C28646";
paths = (
{
closed = 1;
nodes = (
"350 254 LINE",
"358 290 LINE",
"99 290 LINE",
"91 254 LINE"
);
}
);
width = 443;
},
{
layerId = "88AF04C7-891B-4BE3-8AB1-6195D630646B";
paths = (
{
closed = 1;
nodes = (
"330 199 LINE",
"363 357 LINE",
"79 357 LINE",
"46 199 LINE"
);
}
);
width = 401;
}
);
unicode = 002D;
},
{
color = 1;
glyphname = endash;
lastChange = "2018-06-01 03:18:57 +0000";
layers = (
{
layerId = "119329DF-C854-46E0-93EC-7E8A22DFCA4F";
paths = (
{
closed = 1;
nodes = (
"547 236 LINE",
"561 307 LINE",
"96 307 LINE",
"82 236 LINE"
);
}
);
width = 638;
},
{
layerId = "84328D8E-4D54-44EF-AF5C-0364B1C28646";
paths = (
{
closed = 1;
nodes = (
"556 254 LINE",
"564 290 LINE",
"99 290 LINE",
"91 254 LINE"
);
}
);
width = 649;
},
{
layerId = "88AF04C7-891B-4BE3-8AB1-6195D630646B";
paths = (
{
closed = 1;
nodes = (
"537 200 LINE",
"570 356 LINE",
"79 356 LINE",
"46 200 LINE"
);
}
);
width = 608;
}
);
unicode = 2013;
},
{
color = 1;
glyphname = emdash;
lastChange = "2018-06-01 03:19:25 +0000";
layers = (
{
layerId = "119329DF-C854-46E0-93EC-7E8A22DFCA4F";
paths = (
{
closed = 1;
nodes = (
"852 236 LINE",
"866 307 LINE",
"96 307 LINE",
"82 236 LINE"
);
}
);
width = 943;
},
{
layerId = "84328D8E-4D54-44EF-AF5C-0364B1C28646";
paths = (
{
closed = 1;
nodes = (
"861 254 LINE",
"869 290 LINE",
"99 290 LINE",
"91 254 LINE"
);
}
);
width = 954;
},
{
layerId = "88AF04C7-891B-4BE3-8AB1-6195D630646B";
paths = (
{
closed = 1;
nodes = (
"842 200 LINE",
"875 356 LINE",
"79 356 LINE",
"46 200 LINE"
);
}
);
width = 913;
}
);
unicode = 2014;
},
{
color = 1;
glyphname = underscore;
lastChange = "2018-06-01 03:19:47 +0000";
layers = (
{
layerId = "119329DF-C854-46E0-93EC-7E8A22DFCA4F";
paths = (
{
closed = 1;
nodes = (
"599 -142 LINE",
"613 -75 LINE",
"17 -75 LINE",
"3 -142 LINE"
);
}
);
width = 768;
},
{
layerId = "84328D8E-4D54-44EF-AF5C-0364B1C28646";
paths = (
{
closed = 1;
nodes = (
"608 -127 LINE",
"616 -91 LINE",
"20 -91 LINE",
"12 -127 LINE"
);
}
);
width = 781;
},
{
layerId = "88AF04C7-891B-4BE3-8AB1-6195D630646B";
paths = (
{
closed = 1;
nodes = (
"567 -159 LINE",
"588 -61 LINE",
"-8 -61 LINE",
"-29 -159 LINE"
);
}
);
width = 712;
}
);
unicode = 005F;
},
{
color = 1;
glyphname = guilsinglleft;
lastChange = "2018-06-01 03:20:40 +0000";
layers = (
{
layerId = "84328D8E-4D54-44EF-AF5C-0364B1C28646";
paths = (
{
closed = 1;
nodes = (
"190 60 LINE",
"68 249 LINE",
"270 437 LINE",
"236 442 LINE",
"28 249 LINE",
"157 55 LINE"
);
}
);
width = 285;
},
{
layerId = "119329DF-C854-46E0-93EC-7E8A22DFCA4F";
paths = (
{
closed = 1;
nodes = (
"229 69 LINE",
"121 252 LINE",
"306 432 LINE",
"232 448 LINE",
"32 251 LINE",
"152 52 LINE"
);
}
);
width = 314;
},
{
layerId = "88AF04C7-891B-4BE3-8AB1-6195D630646B";
paths = (
{
closed = 1;
nodes = (
"296 79 LINE",
"196 256 LINE",
"373 432 LINE",
"233 462 LINE",
"26 256 LINE",
"152 48 LINE"
);
}
);
width = 369;
}
);
unicode = 2039;
},
{
color = 1;
glyphname = guilsinglright;
lastChange = "2018-06-01 03:21:00 +0000";
layers = (
{
layerId = "84328D8E-4D54-44EF-AF5C-0364B1C28646";
paths = (
{
closed = 1;
nodes = (
"244 249 LINE",
"116 442 LINE",
"90 437 LINE",
"212 249 LINE",
"10 60 LINE",
"37 55 LINE"
);
}
);
width = 277;
},
{
layerId = "119329DF-C854-46E0-93EC-7E8A22DFCA4F";
paths = (
{
closed = 1;
nodes = (
"273 251 LINE",
"151 448 LINE",
"83 432 LINE",
"192 252 LINE",
"6 69 LINE",
"71 52 LINE"
);
}
);
width = 309;
},
{
layerId = "88AF04C7-891B-4BE3-8AB1-6195D630646B";
paths = (
{
closed = 1;
nodes = (
"343 256 LINE",
"216 462 LINE",
"72 432 LINE",
"173 256 LINE",
"-5 79 LINE",
"135 48 LINE"
);
}
);
width = 371;
}
);
unicode = 203A;
},
{
color = 1;
glyphname = quotesingle;
lastChange = "2018-06-01 03:21:38 +0000";
layers = (
{
layerId = "119329DF-C854-46E0-93EC-7E8A22DFCA4F";
paths = (
{
closed = 1;
nodes = (
"198 429 LINE",
"215 478 OFFCURVE",
"264 626 OFFCURVE",
"264 638 CURVE SMOOTH",
"264 659 OFFCURVE",
"249 675 OFFCURVE",
"227 675 CURVE SMOOTH",
"170 675 OFFCURVE",
"165 613 OFFCURVE",
"161 544 CURVE SMOOTH",
"158 504 OFFCURVE",
"156 461 OFFCURVE",
"154 429 CURVE"
);
}
);
width = 278;
},
{
layerId = "84328D8E-4D54-44EF-AF5C-0364B1C28646";
paths = (
{
closed = 1;
nodes = (
"194 456 LINE",
"238 593 OFFCURVE",
"244 609 OFFCURVE",
"244 622 CURVE SMOOTH",
"244 636 OFFCURVE",
"234 646 OFFCURVE",
"220 646 CURVE SMOOTH",
"180 646 OFFCURVE",
"180 600 OFFCURVE",
"174 544 CURVE SMOOTH",
"172 515 OFFCURVE",
"169 484 OFFCURVE",
"166 456 CURVE"
);
}
);
width = 278;
},
{
layerId = "88AF04C7-891B-4BE3-8AB1-6195D630646B";
paths = (
{
closed = 1;
nodes = (
"200 370 LINE",
"241 441 OFFCURVE",
"314 569 OFFCURVE",
"314 626 CURVE SMOOTH",
"314 671 OFFCURVE",
"282 705 OFFCURVE",
"236 705 CURVE SMOOTH",
"159 705 OFFCURVE",
"114 636 OFFCURVE",
"114 544 CURVE SMOOTH",
"114 492 OFFCURVE",
"123 429 OFFCURVE",
"132 370 CURVE"
);
}
);
width = 286;
}
);
unicode = 0027;
},
{
color = 1;
glyphname = cent;
lastChange = "2018-09-01 04:10:29 +0000";
layers = (
{
components = (
{
name = c;
transform = "{1, 0, 0, 1, 53, 0}";
}
);
layerId = "84328D8E-4D54-44EF-AF5C-0364B1C28646";
paths = (
{
closed = 1;
nodes = (
"294 -74 LINE",
"432 589 LINE",
"396 589 LINE",
"258 -74 LINE"
);
}
);
width = 601;
},
{
components = (
{
name = c;
transform = "{1, 0, 0, 1, 61, 0}";
}
);
layerId = "119329DF-C854-46E0-93EC-7E8A22DFCA4F";
paths = (
{
closed = 1;
nodes = (
"334 -74 LINE",
"472 589 LINE",
"394 589 LINE",
"256 -74 LINE"
);
}
);
width = 606;
},
{
associatedMasterId = "119329DF-C854-46E0-93EC-7E8A22DFCA4F";
components = (
{
name = c;
transform = "{1, 0, 0, 1, 43, 0}";
}
);
layerId = "CD90DB56-FE36-4467-BA7E-FAF58F97F182";
name = "Regular Italic[700]";
paths = (
{
closed = 1;
nodes = (
"316 -74 LINE",
"334 13 LINE",
"256 13 LINE",
"238 -74 LINE"
);
},
{
closed = 1;
nodes = (
"436 504 LINE",
"454 589 LINE",
"376 589 LINE",
"358 504 LINE"
);
}
);
width = 637;
},
{
components = (
{
name = c;
transform = "{1, 0, 0, 1, 51, 0}";
}
);
layerId = "88AF04C7-891B-4BE3-8AB1-6195D630646B";
paths = (
{
closed = 1;
nodes = (
"345 -74 LINE",
"483 589 LINE",
"373 589 LINE",
"235 -74 LINE"
);
}
);
width = 622;
},
{
associatedMasterId = "88AF04C7-891B-4BE3-8AB1-6195D630646B";
components = (
{
name = c;
transform = "{1, 0, 0, 1, 28, 0}";
}
);
layerId = "D724E45A-51D9-4A7B-8555-EA409F132820";
name = "Bold Italic[700]";
paths = (
{
closed = 1;
nodes = (
"322 -74 LINE",
"346 43 LINE",
"236 43 LINE",
"212 -74 LINE"
);
},
{
closed = 1;
nodes = (
"436 473 LINE",
"460 589 LINE",
"350 589 LINE",
"326 473 LINE"
);
}
);
width = 608;
}
);
unicode = 00A2;
},
{
color = 1;
glyphname = dollar;
lastChange = "2018-09-01 04:09:18 +0000";
layers = (
{
components = (
{
name = S;
transform = "{1, 0, 0, 1, -3, 0}";
}
);
layerId = "84328D8E-4D54-44EF-AF5C-0364B1C28646";
paths = (
{
closed = 1;
nodes = (
"270 -74 LINE",
"443 759 LINE",
"407 759 LINE",
"234 -74 LINE"
);
}
);
width = 653;
},
{
components = (
{
name = S;
transform = "{1, 0, 0, 1, 54, 0}";
}
);
layerId = "119329DF-C854-46E0-93EC-7E8A22DFCA4F";
paths = (
{
closed = 1;
nodes = (
"339 -74 LINE",
"512 759 LINE",
"434 759 LINE",
"261 -74 LINE"
);
}
);
width = 659;
},
{
associatedMasterId = "119329DF-C854-46E0-93EC-7E8A22DFCA4F";
components = (
{
name = S;
transform = "{1, 0, 0, 1, 23, 0}";
}
);
layerId = "ED2C635E-C91F-4FE6-AAB6-CF8DAA0B1DB2";
name = "Regular Italic[700]";
paths = (
{
closed = 1;
nodes = (
"308 -74 LINE",
"326 13 LINE",
"248 13 LINE",
"230 -74 LINE"
);
},
{
closed = 1;
nodes = (
"463 674 LINE",
"481 759 LINE",
"403 759 LINE",
"385 674 LINE"
);
}
);
width = 659;
},
{
components = (
{
name = S;
transform = "{1, 0, 0, 1, 44, 0}";
}
);
layerId = "88AF04C7-891B-4BE3-8AB1-6195D630646B";
paths = (
{
closed = 1;
nodes = (
"382 -74 LINE",
"555 759 LINE",
"445 759 LINE",
"272 -74 LINE"
);
}
);
width = 715;
},
{
associatedMasterId = "88AF04C7-891B-4BE3-8AB1-6195D630646B";
components = (
{
name = S;
transform = "{1, 0, 0, 1, 17, 0}";
}
);
layerId = "F55F9F50-2CC1-4C30-A7B9-B30AE2A667E8";
name = "Bold Italic[700]";
paths = (
{
closed = 1;
nodes = (
"355 -74 LINE",
"379 43 LINE",
"269 43 LINE",
"245 -74 LINE"
);
},
{
closed = 1;
nodes = (
"504 643 LINE",
"528 759 LINE",
"418 759 LINE",
"394 643 LINE"
);
}
);
width = 702;
}
);
unicode = 0024;
},
{
color = 1;
glyphname = euro;
lastChange = "2018-09-01 04:09:18 +0000";
layers = (
{
components = (
{
name = C;
transform = "{1, 0, 0, 1, 104, 0}";
}
);
layerId = "119329DF-C854-46E0-93EC-7E8A22DFCA4F";
paths = (
{
closed = 1;
nodes = (
"572 236 LINE",
"585 303 LINE",
"89 303 LINE",
"76 236 LINE"
);
},
{
closed = 1;
nodes = (
"606 403 LINE",
"620 470 LINE",
"124 470 LINE",
"110 403 LINE"
);
}
);
width = 793;
},
{
components = (
{
name = C;
transform = "{1, 0, 0, 1, 97, 0}";
}
);
layerId = "84328D8E-4D54-44EF-AF5C-0364B1C28646";
paths = (
{
closed = 1;
nodes = (
"568 252 LINE",
"575 288 LINE",
"79 288 LINE",
"72 252 LINE"
);
},
{
closed = 1;
nodes = (
"603 419 LINE",
"610 455 LINE",
"114 455 LINE",
"107 419 LINE"
);
}
);
width = 855;
},
{
components = (
{
name = C;
transform = "{1, 0, 0, 1, 70, 0}";
}
);
layerId = "88AF04C7-891B-4BE3-8AB1-6195D630646B";
paths = (
{
closed = 1;
nodes = (
"523 247 LINE",
"539 324 LINE",
"73 324 LINE",
"57 247 LINE"
);
},
{
closed = 1;
nodes = (
"549 372 LINE",
"565 449 LINE",
"99 449 LINE",
"83 372 LINE"
);
}
);
width = 781;
}
);
unicode = 20AC;
},
{
color = 1;
glyphname = sterling;
lastChange = "2018-06-01 03:30:16 +0000";
layers = (
{
layerId = "119329DF-C854-46E0-93EC-7E8A22DFCA4F";
paths = (
{
closed = 1;
nodes = (
"549 0 LINE",
"565 74 LINE",
"168 74 LINE",
"186 50 LINE",
"270 460 LINE SMOOTH",
"290 557 OFFCURVE",
"366 628 OFFCURVE",
"450 628 CURVE SMOOTH",
"520 628 OFFCURVE",
"574 590 OFFCURVE",
"579 532 CURVE",
"645 582 LINE",
"626 649 OFFCURVE",
"548 699 OFFCURVE",
"453 699 CURVE SMOOTH",
"329 699 OFFCURVE",
"222 604 OFFCURVE",
"193 466 CURVE SMOOTH",
"111 74 LINE",
"39 38 LINE",
"32 0 LINE"
);
},
{
closed = 1;
nodes = (
"431 261 LINE",
"445 328 LINE",
"103 328 LINE",
"89 261 LINE"
);
}
);
width = 668;
},
{
layerId = "84328D8E-4D54-44EF-AF5C-0364B1C28646";
paths = (
{
closed = 1;
nodes = (
"523 0 LINE",
"531 36 LINE",
"134 36 LINE",
"143 24 LINE",
"233 462 LINE SMOOTH",
"258 579 OFFCURVE",
"347 663 OFFCURVE",
"448 663 CURVE SMOOTH",
"528 663 OFFCURVE",
"586 625 OFFCURVE",
"603 558 CURVE",
"631 578 LINE",
"611 653 OFFCURVE",
"544 699 OFFCURVE",
"450 699 CURVE SMOOTH",
"330 699 OFFCURVE",
"227 602 OFFCURVE",
"198 464 CURVE SMOOTH",
"109 36 LINE",
"59 18 LINE",
"55 0 LINE"
);
},
{
closed = 1;
nodes = (
"408 277 LINE",
"416 313 LINE",
"121 313 LINE",
"113 277 LINE"
);
}
);
width = 643;
},
{
layerId = "88AF04C7-891B-4BE3-8AB1-6195D630646B";
paths = (
{
closed = 1;
nodes = (
"614 0 LINE",
"644 143 LINE",
"269 143 LINE",
"315 87 LINE",
"385 435 LINE SMOOTH",
"395 482 OFFCURVE",
"443 523 OFFCURVE",
"497 523 CURVE SMOOTH",
"525 523 OFFCURVE",
"556 505 OFFCURVE",
"568 470 CURVE",
"711 579 LINE",
"674 646 OFFCURVE",
"582 699 OFFCURVE",
"482 699 CURVE SMOOTH",
"343 699 OFFCURVE",
"227 609 OFFCURVE",
"198 471 CURVE SMOOTH",
"129 143 LINE",
"15 76 LINE",
"1 0 LINE"
);
},
{
closed = 1;
nodes = (
"483 250 LINE",
"502 337 LINE",
"97 337 LINE",
"78 250 LINE"
);
}
);
width = 723;
}
);
unicode = 00A3;
},
{
color = 1;
glyphname = yen;
lastChange = "2018-09-01 04:09:18 +0000";
layers = (
{
components = (
{
name = Y;
transform = "{1, 0, 0, 1, 158, 0}";
}
);
layerId = "119329DF-C854-46E0-93EC-7E8A22DFCA4F";
paths = (
{
closed = 1;
nodes = (
"744 115 LINE",
"758 182 LINE",
"262 182 LINE",
"248 115 LINE"
);
},
{
closed = 1;
nodes = (
"775 262 LINE",
"789 329 LINE",
"293 329 LINE",
"279 262 LINE"
);
}
);
width = 854;
},
{
components = (
{
name = Y;
transform = "{1, 0, 0, 1, -6, 0}";
}
);
layerId = "84328D8E-4D54-44EF-AF5C-0364B1C28646";
paths = (
{
closed = 1;
nodes = (
"563 131 LINE",
"570 167 LINE",
"114 167 LINE",
"107 131 LINE"
);
},
{
closed = 1;
nodes = (
"593 278 LINE",
"601 314 LINE",
"145 314 LINE",
"137 278 LINE"
);
}
);
width = 723;
},
{
components = (
{
name = Y;
transform = "{1, 0, 0, 1, 146, 0}";
}
);
layerId = "88AF04C7-891B-4BE3-8AB1-6195D630646B";
paths = (
{
closed = 1;
nodes = (
"734 90 LINE",
"752 177 LINE",
"256 177 LINE",
"238 90 LINE"
);
},
{
closed = 1;
nodes = (
"763 230 LINE",
"781 317 LINE",
"285 317 LINE",
"267 230 LINE"
);
}
);
width = 833;
}
);
unicode = 00A5;
},
{
color = 1;
glyphname = plus;
lastChange = "2018-06-01 03:32:03 +0000";
layers = (
{
layerId = "119329DF-C854-46E0-93EC-7E8A22DFCA4F";
paths = (
{
closed = 1;
nodes = (
"532 297 LINE",
"548 371 LINE",
"89 371 LINE",
"73 297 LINE"
);
},
{
closed = 1;
nodes = (
"300 105 LINE",
"396 564 LINE",
"321 564 LINE",
"225 105 LINE"
);
}
);
width = 590;
},
{
layerId = "84328D8E-4D54-44EF-AF5C-0364B1C28646";
paths = (
{
closed = 1;
nodes = (
"524 316 LINE",
"532 352 LINE",
"73 352 LINE",
"65 316 LINE"
);
},
{
closed = 1;
nodes = (
"269 105 LINE",
"365 564 LINE",
"329 564 LINE",
"233 105 LINE"
);
}
);
width = 566;
},
{
layerId = "88AF04C7-891B-4BE3-8AB1-6195D630646B";
paths = (
{
closed = 1;
nodes = (
"555 259 LINE",
"586 408 LINE",
"87 408 LINE",
"56 259 LINE"
);
},
{
closed = 1;
nodes = (
"350 84 LINE",
"454 583 LINE",
"294 583 LINE",
"190 84 LINE"
);
}
);
width = 611;
}
);
unicode = 002B;
},
{
color = 1;
glyphname = minus;
lastChange = "2018-06-01 03:32:34 +0000";
layers = (
{
layerId = "119329DF-C854-46E0-93EC-7E8A22DFCA4F";
paths = (
{
closed = 1;
nodes = (
"596 297 LINE",
"612 371 LINE",
"153 371 LINE",
"137 297 LINE"
);
}
);
width = 718;
},
{
layerId = "84328D8E-4D54-44EF-AF5C-0364B1C28646";
paths = (
{
closed = 1;
nodes = (
"614 316 LINE",
"622 352 LINE",
"163 352 LINE",
"155 316 LINE"
);
}
);
width = 746;
},
{
layerId = "88AF04C7-891B-4BE3-8AB1-6195D630646B";
paths = (
{
closed = 1;
nodes = (
"587 259 LINE",
"618 408 LINE",
"119 408 LINE",
"88 259 LINE"
);
}
);
width = 675;
}
);
unicode = 2212;
},
{
color = 1;
glyphname = multiply;
lastChange = "2018-06-01 03:33:21 +0000";
layers = (
{
layerId = "119329DF-C854-46E0-93EC-7E8A22DFCA4F";
paths = (
{
closed = 1;
nodes = (
"499 470 LINE",
"456 523 LINE",
"66 198 LINE",
"110 146 LINE"
);
},
{
closed = 1;
nodes = (
"443 199 LINE",
"184 523 LINE",
"122 470 LINE",
"381 146 LINE"
);
}
);
width = 534;
},
{
layerId = "84328D8E-4D54-44EF-AF5C-0364B1C28646";
paths = (
{
closed = 1;
nodes = (
"488 484 LINE",
"466 509 LINE",
"76 185 LINE",
"97 159 LINE"
);
},
{
closed = 1;
nodes = (
"425 185 LINE",
"167 509 LINE",
"137 484 LINE",
"396 159 LINE"
);
}
);
width = 532;
},
{
layerId = "88AF04C7-891B-4BE3-8AB1-6195D630646B";
paths = (
{
closed = 1;
nodes = (
"552 457 LINE",
"463 563 LINE",
"41 210 LINE",
"130 104 LINE"
);
},
{
closed = 1;
nodes = (
"505 214 LINE",
"221 567 LINE",
"89 454 LINE",
"373 101 LINE"
);
}
);
width = 562;
}
);
unicode = 00D7;
},
{
color = 1;
glyphname = divide;
lastChange = "2018-06-01 03:33:59 +0000";
layers = (
{
layerId = "119329DF-C854-46E0-93EC-7E8A22DFCA4F";
paths = (
{
closed = 1;
nodes = (
"534 297 LINE",
"550 371 LINE",
"91 371 LINE",
"75 297 LINE"
);
},
{
closed = 1;
nodes = (
"305 118 OFFCURVE",
"333 147 OFFCURVE",
"333 179 CURVE SMOOTH",
"333 205 OFFCURVE",
"314 226 OFFCURVE",
"286 226 CURVE SMOOTH",
"256 226 OFFCURVE",
"226 202 OFFCURVE",
"226 166 CURVE SMOOTH",
"226 139 OFFCURVE",
"245 118 OFFCURVE",
"275 118 CURVE SMOOTH"
);
},
{
closed = 1;
nodes = (
"371 442 OFFCURVE",
"401 470 OFFCURVE",
"401 502 CURVE SMOOTH",
"401 528 OFFCURVE",
"381 550 OFFCURVE",
"353 550 CURVE SMOOTH",
"323 550 OFFCURVE",
"293 526 OFFCURVE",
"293 490 CURVE SMOOTH",
"293 463 OFFCURVE",
"312 442 OFFCURVE",
"342 442 CURVE SMOOTH"
);
}
);
width = 594;
},
{
layerId = "84328D8E-4D54-44EF-AF5C-0364B1C28646";
paths = (
{
closed = 1;
nodes = (
"535 316 LINE",
"543 352 LINE",
"84 352 LINE",
"76 316 LINE"
);
},
{
closed = 1;
nodes = (
"290 142 OFFCURVE",
"306 158 OFFCURVE",
"306 176 CURVE SMOOTH",
"306 190 OFFCURVE",
"296 202 OFFCURVE",
"281 202 CURVE SMOOTH",
"261 202 OFFCURVE",
"246 183 OFFCURVE",
"246 168 CURVE SMOOTH",
"246 153 OFFCURVE",
"257 142 OFFCURVE",
"274 142 CURVE SMOOTH"
);
},
{
closed = 1;
nodes = (
"358 466 OFFCURVE",
"374 483 OFFCURVE",
"374 501 CURVE SMOOTH",
"374 515 OFFCURVE",
"363 526 OFFCURVE",
"348 526 CURVE SMOOTH",
"328 526 OFFCURVE",
"314 509 OFFCURVE",
"314 494 CURVE SMOOTH",
"314 478 OFFCURVE",
"324 466 OFFCURVE",
"341 466 CURVE SMOOTH"
);
}
);
width = 588;
},
{
layerId = "88AF04C7-891B-4BE3-8AB1-6195D630646B";
paths = (
{
closed = 1;
nodes = (
"552 260 LINE",
"583 409 LINE",
"84 409 LINE",
"53 260 LINE"
);
},
{
closed = 1;
nodes = (
"323 30 OFFCURVE",
"373 79 OFFCURVE",
"373 137 CURVE SMOOTH",
"373 186 OFFCURVE",
"336 226 OFFCURVE",
"285 226 CURVE SMOOTH",
"230 226 OFFCURVE",
"179 184 OFFCURVE",
"179 121 CURVE SMOOTH",
"179 70 OFFCURVE",
"215 30 OFFCURVE",
"269 30 CURVE SMOOTH"
);
},
{
closed = 1;
nodes = (
"409 442 OFFCURVE",
"458 490 OFFCURVE",
"458 548 CURVE SMOOTH",
"458 597 OFFCURVE",
"423 638 OFFCURVE",
"371 638 CURVE SMOOTH",
"317 638 OFFCURVE",
"264 596 OFFCURVE",
"264 534 CURVE SMOOTH",
"264 482 OFFCURVE",
"301 442 OFFCURVE",
"355 442 CURVE SMOOTH"
);
}
);
width = 605;
}
);
unicode = 00F7;
},
{
color = 1;
glyphname = equal;
lastChange = "2018-06-01 03:34:30 +0000";
layers = (
{
layerId = "119329DF-C854-46E0-93EC-7E8A22DFCA4F";
paths = (
{
closed = 1;
nodes = (
"620 407 LINE",
"636 481 LINE",
"177 481 LINE",
"161 407 LINE"
);
},
{
closed = 1;
nodes = (
"574 187 LINE",
"590 261 LINE",
"131 261 LINE",
"115 187 LINE"
);
}
);
width = 720;
},
{
layerId = "84328D8E-4D54-44EF-AF5C-0364B1C28646";
paths = (
{
closed = 1;
nodes = (
"643 426 LINE",
"651 462 LINE",
"192 462 LINE",
"184 426 LINE"
);
},
{
closed = 1;
nodes = (
"597 206 LINE",
"605 242 LINE",
"146 242 LINE",
"138 206 LINE"
);
}
);
width = 758;
},
{
layerId = "88AF04C7-891B-4BE3-8AB1-6195D630646B";
paths = (
{
closed = 1;
nodes = (
"612 382 LINE",
"643 531 LINE",
"144 531 LINE",
"113 382 LINE"
);
},
{
closed = 1;
nodes = (
"563 148 LINE",
"594 297 LINE",
"95 297 LINE",
"64 148 LINE"
);
}
);
width = 673;
}
);
unicode = 003D;
},
{
color = 1;
glyphname = greater;
lastChange = "2018-06-01 03:37:20 +0000";
layers = (
{
layerId = "119329DF-C854-46E0-93EC-7E8A22DFCA4F";
paths = (
{
closed = 1;
nodes = (
"545 314 LINE",
"557 373 LINE",
"149 599 LINE",
"135 529 LINE",
"477 344 LINE",
"57 159 LINE",
"43 88 LINE"
);
}
);
width = 592;
},
{
layerId = "84328D8E-4D54-44EF-AF5C-0364B1C28646";
paths = (
{
closed = 1;
nodes = (
"551 322 LINE",
"559 366 LINE",
"150 586 LINE",
"141 542 LINE",
"508 344 LINE",
"59 146 LINE",
"50 102 LINE"
);
}
);
width = 592;
},
{
layerId = "88AF04C7-891B-4BE3-8AB1-6195D630646B";
paths = (
{
closed = 1;
nodes = (
"548 267 LINE",
"578 420 LINE",
"142 609 LINE",
"113 459 LINE",
"419 343 LINE",
"64 229 LINE",
"34 78 LINE"
);
}
);
width = 601;
}
);
unicode = 003E;
},
{
color = 1;
glyphname = less;
lastChange = "2018-06-01 03:38:01 +0000";
layers = (
{
layerId = "119329DF-C854-46E0-93EC-7E8A22DFCA4F";
paths = (
{
closed = 1;
nodes = (
"493 159 LINE",
"151 344 LINE",
"571 529 LINE",
"585 599 LINE",
"83 373 LINE",
"71 314 LINE",
"479 88 LINE"
);
}
);
width = 593;
},
{
layerId = "84328D8E-4D54-44EF-AF5C-0364B1C28646";
paths = (
{
closed = 1;
nodes = (
"486 146 LINE",
"119 344 LINE",
"568 542 LINE",
"577 586 LINE",
"76 366 LINE",
"68 322 LINE",
"477 102 LINE"
);
}
);
width = 592;
},
{
layerId = "88AF04C7-891B-4BE3-8AB1-6195D630646B";
paths = (
{
closed = 1;
nodes = (
"524 229 LINE",
"218 343 LINE",
"574 459 LINE",
"603 609 LINE",
"89 420 LINE",
"59 267 LINE",
"494 78 LINE"
);
}
);
width = 601;
}
);
unicode = 003C;
},
{
color = 1;
glyphname = asciicircum;
lastChange = "2018-06-01 03:43:39 +0000";
layers = (
{
layerId = "119329DF-C854-46E0-93EC-7E8A22DFCA4F";
paths = (
{
closed = 1;
nodes = (
"161 413 LINE",
"335 632 LINE",
"414 413 LINE",
"477 413 LINE",
"373 687 LINE",
"314 687 LINE",
"95 413 LINE"
);
}
);
width = 508;
},
{
layerId = "84328D8E-4D54-44EF-AF5C-0364B1C28646";
paths = (
{
closed = 1;
nodes = (
"149 413 LINE",
"335 647 LINE",
"423 413 LINE",
"466 413 LINE",
"363 687 LINE",
"321 687 LINE",
"104 413 LINE"
);
}
);
width = 506;
},
{
layerId = "88AF04C7-891B-4BE3-8AB1-6195D630646B";
paths = (
{
closed = 1;
nodes = (
"212 413 LINE",
"324 573 LINE",
"367 413 LINE",
"492 413 LINE",
"407 687 LINE",
"278 687 LINE",
"78 413 LINE"
);
}
);
width = 506;
}
);
unicode = 005E;
},
{
color = 1;
glyphname = percent;
lastChange = "2018-06-01 03:45:04 +0000";
layers = (
{
layerId = "119329DF-C854-46E0-93EC-7E8A22DFCA4F";
paths = (
{
closed = 1;
nodes = (
"171 0 LINE",
"783 687 LINE",
"705 687 LINE",
"92 0 LINE"
);
},
{
closed = 1;
nodes = (
"670 -10 OFFCURVE",
"757 90 OFFCURVE",
"757 198 CURVE SMOOTH",
"757 275 OFFCURVE",
"709 334 OFFCURVE",
"625 334 CURVE SMOOTH",
"518 334 OFFCURVE",
"431 232 OFFCURVE",
"431 126 CURVE SMOOTH",
"431 46 OFFCURVE",
"483 -10 OFFCURVE",
"564 -10 CURVE SMOOTH"
);
},
{
closed = 1;
nodes = (
"520 44 OFFCURVE",
"494 77 OFFCURVE",
"494 126 CURVE SMOOTH",
"494 202 OFFCURVE",
"552 280 OFFCURVE",
"624 280 CURVE SMOOTH",
"668 280 OFFCURVE",
"696 247 OFFCURVE",
"696 199 CURVE SMOOTH",
"696 128 OFFCURVE",
"641 44 OFFCURVE",
"565 44 CURVE SMOOTH"
);
},
{
closed = 1;
nodes = (
"353 349 OFFCURVE",
"440 447 OFFCURVE",
"440 557 CURVE SMOOTH",
"440 635 OFFCURVE",
"392 693 OFFCURVE",
"308 693 CURVE SMOOTH",
"202 693 OFFCURVE",
"115 593 OFFCURVE",
"115 484 CURVE SMOOTH",
"115 407 OFFCURVE",
"163 349 OFFCURVE",
"247 349 CURVE SMOOTH"
);
},
{
closed = 1;
nodes = (
"204 403 OFFCURVE",
"176 437 OFFCURVE",
"176 486 CURVE SMOOTH",
"176 556 OFFCURVE",
"233 639 OFFCURVE",
"307 639 CURVE SMOOTH",
"351 639 OFFCURVE",
"378 605 OFFCURVE",
"378 556 CURVE SMOOTH",
"378 481 OFFCURVE",
"320 403 OFFCURVE",
"248 403 CURVE SMOOTH"
);
}
);
width = 838;
},
{
layerId = "84328D8E-4D54-44EF-AF5C-0364B1C28646";
paths = (
{
closed = 1;
nodes = (
"142 0 LINE",
"755 687 LINE",
"706 687 LINE",
"93 0 LINE"
);
},
{
closed = 1;
nodes = (
"647 -10 OFFCURVE",
"727 97 OFFCURVE",
"727 206 CURVE SMOOTH",
"727 283 OFFCURVE",
"682 334 OFFCURVE",
"609 334 CURVE SMOOTH",
"503 334 OFFCURVE",
"426 228 OFFCURVE",
"426 117 CURVE SMOOTH",
"426 40 OFFCURVE",
"470 -10 OFFCURVE",
"542 -10 CURVE SMOOTH"
);
},
{
closed = 1;
nodes = (
"493 26 OFFCURVE",
"462 64 OFFCURVE",
"462 121 CURVE SMOOTH",
"462 209 OFFCURVE",
"523 298 OFFCURVE",
"606 298 CURVE SMOOTH",
"659 298 OFFCURVE",
"691 260 OFFCURVE",
"691 202 CURVE SMOOTH",
"691 119 OFFCURVE",
"630 26 OFFCURVE",
"545 26 CURVE SMOOTH"
);
},
{
closed = 1;
nodes = (
"341 349 OFFCURVE",
"420 458 OFFCURVE",
"420 565 CURVE SMOOTH",
"420 635 OFFCURVE",
"380 693 OFFCURVE",
"302 693 CURVE SMOOTH",
"197 693 OFFCURVE",
"118 585 OFFCURVE",
"118 476 CURVE SMOOTH",
"118 399 OFFCURVE",
"163 349 OFFCURVE",
"235 349 CURVE SMOOTH"
);
},
{
closed = 1;
nodes = (
"186 385 OFFCURVE",
"154 423 OFFCURVE",
"154 480 CURVE SMOOTH",
"154 563 OFFCURVE",
"215 657 OFFCURVE",
"299 657 CURVE SMOOTH",
"355 657 OFFCURVE",
"383 615 OFFCURVE",
"383 560 CURVE SMOOTH",
"383 477 OFFCURVE",
"322 385 OFFCURVE",
"238 385 CURVE SMOOTH"
);
}
);
width = 812;
},
{
layerId = "88AF04C7-891B-4BE3-8AB1-6195D630646B";
paths = (
{
closed = 1;
nodes = (
"234 0 LINE",
"860 687 LINE",
"713 687 LINE",
"87 0 LINE"
);
},
{
closed = 1;
nodes = (
"754 -11 OFFCURVE",
"844 84 OFFCURVE",
"844 195 CURVE SMOOTH",
"844 281 OFFCURVE",
"787 346 OFFCURVE",
"688 346 CURVE SMOOTH",
"572 346 OFFCURVE",
"481 251 OFFCURVE",
"481 139 CURVE SMOOTH",
"481 54 OFFCURVE",
"539 -11 OFFCURVE",
"639 -11 CURVE SMOOTH"
);
},
{
closed = 1;
nodes = (
"614 97 OFFCURVE",
"600 109 OFFCURVE",
"600 134 CURVE SMOOTH",
"600 182 OFFCURVE",
"637 238 OFFCURVE",
"690 238 CURVE SMOOTH",
"711 238 OFFCURVE",
"726 226 OFFCURVE",
"726 200 CURVE SMOOTH",
"726 154 OFFCURVE",
"688 97 OFFCURVE",
"636 97 CURVE SMOOTH"
);
},
{
closed = 1;
nodes = (
"374 338 OFFCURVE",
"464 431 OFFCURVE",
"464 544 CURVE SMOOTH",
"464 629 OFFCURVE",
"407 694 OFFCURVE",
"306 694 CURVE SMOOTH",
"190 694 OFFCURVE",
"101 600 OFFCURVE",
"101 487 CURVE SMOOTH",
"101 401 OFFCURVE",
"160 338 OFFCURVE",
"257 338 CURVE SMOOTH"
);
},
{
closed = 1;
nodes = (
"234 445 OFFCURVE",
"220 457 OFFCURVE",
"220 482 CURVE SMOOTH",
"220 529 OFFCURVE",
"257 586 OFFCURVE",
"309 586 CURVE SMOOTH",
"331 586 OFFCURVE",
"345 574 OFFCURVE",
"345 549 CURVE SMOOTH",
"345 502 OFFCURVE",
"307 445 OFFCURVE",
"255 445 CURVE SMOOTH"
);
}
);
width = 911;
}
);
unicode = 0025;
},
{
color = 1;
glyphname = perthousand;
lastChange = "2018-06-01 03:45:14 +0000";
layers = (
{
layerId = "119329DF-C854-46E0-93EC-7E8A22DFCA4F";
paths = (
{
closed = 1;
nodes = (
"171 0 LINE",
"783 687 LINE",
"705 687 LINE",
"92 0 LINE"
);
},
{
closed = 1;
nodes = (
"670 -10 OFFCURVE",
"757 90 OFFCURVE",
"757 198 CURVE SMOOTH",
"757 275 OFFCURVE",
"709 334 OFFCURVE",
"625 334 CURVE SMOOTH",
"518 334 OFFCURVE",
"431 232 OFFCURVE",
"431 126 CURVE SMOOTH",
"431 46 OFFCURVE",
"483 -10 OFFCURVE",
"564 -10 CURVE SMOOTH"
);
},
{
closed = 1;
nodes = (
"520 44 OFFCURVE",
"494 77 OFFCURVE",
"494 126 CURVE SMOOTH",
"494 202 OFFCURVE",
"552 280 OFFCURVE",
"624 280 CURVE SMOOTH",
"668 280 OFFCURVE",
"696 247 OFFCURVE",
"696 199 CURVE SMOOTH",
"696 128 OFFCURVE",
"641 44 OFFCURVE",
"565 44 CURVE SMOOTH"
);
},
{
closed = 1;
nodes = (
"353 349 OFFCURVE",
"440 447 OFFCURVE",
"440 557 CURVE SMOOTH",
"440 635 OFFCURVE",
"392 693 OFFCURVE",
"308 693 CURVE SMOOTH",
"202 693 OFFCURVE",
"115 593 OFFCURVE",
"115 484 CURVE SMOOTH",
"115 407 OFFCURVE",
"163 349 OFFCURVE",
"247 349 CURVE SMOOTH"
);
},
{
closed = 1;
nodes = (
"204 403 OFFCURVE",
"176 437 OFFCURVE",
"176 486 CURVE SMOOTH",
"176 556 OFFCURVE",
"233 639 OFFCURVE",
"307 639 CURVE SMOOTH",
"351 639 OFFCURVE",
"378 605 OFFCURVE",
"378 556 CURVE SMOOTH",
"378 481 OFFCURVE",
"320 403 OFFCURVE",
"248 403 CURVE SMOOTH"
);
},
{
closed = 1;
nodes = (
"1050 -10 OFFCURVE",
"1137 90 OFFCURVE",
"1137 198 CURVE SMOOTH",
"1137 275 OFFCURVE",
"1089 334 OFFCURVE",
"1005 334 CURVE SMOOTH",
"898 334 OFFCURVE",
"811 232 OFFCURVE",
"811 126 CURVE SMOOTH",
"811 46 OFFCURVE",
"863 -10 OFFCURVE",
"944 -10 CURVE SMOOTH"
);
},
{
closed = 1;
nodes = (
"900 44 OFFCURVE",
"874 77 OFFCURVE",
"874 126 CURVE SMOOTH",
"874 202 OFFCURVE",
"932 280 OFFCURVE",
"1004 280 CURVE SMOOTH",
"1048 280 OFFCURVE",
"1076 247 OFFCURVE",
"1076 199 CURVE SMOOTH",
"1076 128 OFFCURVE",
"1021 44 OFFCURVE",
"945 44 CURVE SMOOTH"
);
}
);
width = 1217;
},
{
layerId = "84328D8E-4D54-44EF-AF5C-0364B1C28646";
paths = (
{
closed = 1;
nodes = (
"142 0 LINE",
"755 687 LINE",
"706 687 LINE",
"93 0 LINE"
);
},
{
closed = 1;
nodes = (
"647 -10 OFFCURVE",
"727 97 OFFCURVE",
"727 206 CURVE SMOOTH",
"727 283 OFFCURVE",
"682 334 OFFCURVE",
"609 334 CURVE SMOOTH",
"503 334 OFFCURVE",
"426 228 OFFCURVE",
"426 117 CURVE SMOOTH",
"426 40 OFFCURVE",
"470 -10 OFFCURVE",
"542 -10 CURVE SMOOTH"
);
},
{
closed = 1;
nodes = (
"493 26 OFFCURVE",
"462 64 OFFCURVE",
"462 121 CURVE SMOOTH",
"462 209 OFFCURVE",
"523 298 OFFCURVE",
"606 298 CURVE SMOOTH",
"659 298 OFFCURVE",
"691 260 OFFCURVE",
"691 202 CURVE SMOOTH",
"691 119 OFFCURVE",
"630 26 OFFCURVE",
"545 26 CURVE SMOOTH"
);
},
{
closed = 1;
nodes = (
"341 349 OFFCURVE",
"420 458 OFFCURVE",
"420 565 CURVE SMOOTH",
"420 635 OFFCURVE",
"380 693 OFFCURVE",
"302 693 CURVE SMOOTH",
"197 693 OFFCURVE",
"118 585 OFFCURVE",
"118 476 CURVE SMOOTH",
"118 399 OFFCURVE",
"163 349 OFFCURVE",
"235 349 CURVE SMOOTH"
);
},
{
closed = 1;
nodes = (
"186 385 OFFCURVE",
"154 423 OFFCURVE",
"154 480 CURVE SMOOTH",
"154 563 OFFCURVE",
"215 657 OFFCURVE",
"299 657 CURVE SMOOTH",
"355 657 OFFCURVE",
"383 615 OFFCURVE",
"383 560 CURVE SMOOTH",
"383 477 OFFCURVE",
"322 385 OFFCURVE",
"238 385 CURVE SMOOTH"
);
},
{
closed = 1;
nodes = (
"1028 -10 OFFCURVE",
"1108 97 OFFCURVE",
"1108 206 CURVE SMOOTH",
"1108 283 OFFCURVE",
"1063 334 OFFCURVE",
"990 334 CURVE SMOOTH",
"884 334 OFFCURVE",
"807 228 OFFCURVE",
"807 117 CURVE SMOOTH",
"807 40 OFFCURVE",
"851 -10 OFFCURVE",
"923 -10 CURVE SMOOTH"
);
},
{
closed = 1;
nodes = (
"874 26 OFFCURVE",
"843 64 OFFCURVE",
"843 121 CURVE SMOOTH",
"843 209 OFFCURVE",
"904 298 OFFCURVE",
"987 298 CURVE SMOOTH",
"1040 298 OFFCURVE",
"1072 260 OFFCURVE",
"1072 202 CURVE SMOOTH",
"1072 119 OFFCURVE",
"1011 26 OFFCURVE",
"926 26 CURVE SMOOTH"
);
}
);
width = 1184;
},
{
layerId = "88AF04C7-891B-4BE3-8AB1-6195D630646B";
paths = (
{
closed = 1;
nodes = (
"234 0 LINE",
"860 687 LINE",
"713 687 LINE",
"87 0 LINE"
);
},
{
closed = 1;
nodes = (
"754 -11 OFFCURVE",
"844 84 OFFCURVE",
"844 195 CURVE SMOOTH",
"844 281 OFFCURVE",
"787 346 OFFCURVE",
"688 346 CURVE SMOOTH",
"572 346 OFFCURVE",
"481 251 OFFCURVE",
"481 139 CURVE SMOOTH",
"481 54 OFFCURVE",
"539 -11 OFFCURVE",
"639 -11 CURVE SMOOTH"
);
},
{
closed = 1;
nodes = (
"614 97 OFFCURVE",
"600 109 OFFCURVE",
"600 134 CURVE SMOOTH",
"600 182 OFFCURVE",
"637 238 OFFCURVE",
"690 238 CURVE SMOOTH",
"711 238 OFFCURVE",
"726 226 OFFCURVE",
"726 200 CURVE SMOOTH",
"726 154 OFFCURVE",
"688 97 OFFCURVE",
"636 97 CURVE SMOOTH"
);
},
{
closed = 1;
nodes = (
"374 338 OFFCURVE",
"464 431 OFFCURVE",
"464 544 CURVE SMOOTH",
"464 629 OFFCURVE",
"407 694 OFFCURVE",
"306 694 CURVE SMOOTH",
"190 694 OFFCURVE",
"101 600 OFFCURVE",
"101 487 CURVE SMOOTH",
"101 401 OFFCURVE",
"160 338 OFFCURVE",
"257 338 CURVE SMOOTH"
);
},
{
closed = 1;
nodes = (
"234 445 OFFCURVE",
"220 457 OFFCURVE",
"220 482 CURVE SMOOTH",
"220 529 OFFCURVE",
"257 586 OFFCURVE",
"309 586 CURVE SMOOTH",
"331 586 OFFCURVE",
"345 574 OFFCURVE",
"345 549 CURVE SMOOTH",
"345 502 OFFCURVE",
"307 445 OFFCURVE",
"255 445 CURVE SMOOTH"
);
},
{
closed = 1;
nodes = (
"1148 -11 OFFCURVE",
"1238 84 OFFCURVE",
"1238 195 CURVE SMOOTH",
"1238 281 OFFCURVE",
"1181 346 OFFCURVE",
"1082 346 CURVE SMOOTH",
"966 346 OFFCURVE",
"875 251 OFFCURVE",
"875 139 CURVE SMOOTH",
"875 54 OFFCURVE",
"933 -11 OFFCURVE",
"1033 -11 CURVE SMOOTH"
);
},
{
closed = 1;
nodes = (
"1008 97 OFFCURVE",
"994 109 OFFCURVE",
"994 134 CURVE SMOOTH",
"994 182 OFFCURVE",
"1031 238 OFFCURVE",
"1084 238 CURVE SMOOTH",
"1105 238 OFFCURVE",
"1120 226 OFFCURVE",
"1120 200 CURVE SMOOTH",
"1120 154 OFFCURVE",
"1082 97 OFFCURVE",
"1030 97 CURVE SMOOTH"
);
}
);
width = 1305;
}
);
unicode = 2030;
},
{
color = 1;
glyphname = at;
lastChange = "2018-06-01 03:49:09 +0000";
layers = (
{
layerId = "119329DF-C854-46E0-93EC-7E8A22DFCA4F";
paths = (
{
closed = 1;
nodes = (
"465 -116 OFFCURVE",
"551 -92 OFFCURVE",
"634 -47 CURVE",
"621 -20 LINE",
"546 -60 OFFCURVE",
"468 -81 OFFCURVE",
"393 -81 CURVE SMOOTH",
"232 -81 OFFCURVE",
"111 36 OFFCURVE",
"111 193 CURVE SMOOTH",
"111 448 OFFCURVE",
"309 639 OFFCURVE",
"574 639 CURVE SMOOTH",
"735 639 OFFCURVE",
"855 527 OFFCURVE",
"855 378 CURVE SMOOTH",
"855 269 OFFCURVE",
"785 125 OFFCURVE",
"684 125 CURVE SMOOTH",
"650 125 OFFCURVE",
"630 142 OFFCURVE",
"630 173 CURVE SMOOTH",
"630 207 OFFCURVE",
"686 333 OFFCURVE",
"746 481 CURVE",
"680 486 LINE",
"653 420 LINE",
"640 463 OFFCURVE",
"604 501 OFFCURVE",
"533 501 CURVE SMOOTH",
"393 501 OFFCURVE",
"243 349 OFFCURVE",
"243 208 CURVE SMOOTH",
"243 128 OFFCURVE",
"296 78 OFFCURVE",
"378 78 CURVE SMOOTH",
"447 78 OFFCURVE",
"511 116 OFFCURVE",
"558 164 CURVE",
"558 111 OFFCURVE",
"593 78 OFFCURVE",
"655 78 CURVE SMOOTH",
"789 78 OFFCURVE",
"892 237 OFFCURVE",
"892 385 CURVE SMOOTH",
"892 551 OFFCURVE",
"760 675 OFFCURVE",
"584 675 CURVE SMOOTH",
"291 675 OFFCURVE",
"72 466 OFFCURVE",
"72 187 CURVE SMOOTH",
"72 14 OFFCURVE",
"205 -116 OFFCURVE",
"383 -116 CURVE SMOOTH"
);
},
{
closed = 1;
nodes = (
"351 137 OFFCURVE",
"318 170 OFFCURVE",
"318 223 CURVE SMOOTH",
"318 329 OFFCURVE",
"424 442 OFFCURVE",
"529 442 CURVE SMOOTH",
"588 442 OFFCURVE",
"617 413 OFFCURVE",
"617 365 CURVE SMOOTH",
"617 259 OFFCURVE",
"520 137 OFFCURVE",
"408 137 CURVE SMOOTH"
);
}
);
width = 942;
},
{
layerId = "84328D8E-4D54-44EF-AF5C-0364B1C28646";
paths = (
{
closed = 1;
nodes = (
"470 -116 OFFCURVE",
"556 -92 OFFCURVE",
"639 -47 CURVE",
"626 -20 LINE",
"551 -60 OFFCURVE",
"473 -81 OFFCURVE",
"398 -81 CURVE SMOOTH",
"237 -81 OFFCURVE",
"116 36 OFFCURVE",
"116 193 CURVE SMOOTH",
"116 448 OFFCURVE",
"314 639 OFFCURVE",
"579 639 CURVE SMOOTH",
"740 639 OFFCURVE",
"860 527 OFFCURVE",
"860 378 CURVE SMOOTH",
"860 269 OFFCURVE",
"783 114 OFFCURVE",
"682 114 CURVE SMOOTH",
"643 114 OFFCURVE",
"615 136 OFFCURVE",
"615 173 CURVE SMOOTH",
"615 210 OFFCURVE",
"681 360 OFFCURVE",
"734 481 CURVE",
"695 486 LINE",
"667 420 LINE",
"654 463 OFFCURVE",
"612 501 OFFCURVE",
"541 501 CURVE SMOOTH",
"402 501 OFFCURVE",
"266 345 OFFCURVE",
"266 206 CURVE SMOOTH",
"266 129 OFFCURVE",
"312 78 OFFCURVE",
"388 78 CURVE SMOOTH",
"457 78 OFFCURVE",
"527 116 OFFCURVE",
"574 164 CURVE",
"573 110 OFFCURVE",
"608 78 OFFCURVE",
"665 78 CURVE SMOOTH",
"800 78 OFFCURVE",
"897 243 OFFCURVE",
"897 385 CURVE SMOOTH",
"897 551 OFFCURVE",
"765 675 OFFCURVE",
"589 675 CURVE SMOOTH",
"296 675 OFFCURVE",
"77 466 OFFCURVE",
"77 187 CURVE SMOOTH",
"77 14 OFFCURVE",
"210 -116 OFFCURVE",
"388 -116 CURVE SMOOTH"
);
},
{
closed = 1;
nodes = (
"342 114 OFFCURVE",
"304 155 OFFCURVE",
"304 217 CURVE SMOOTH",
"304 333 OFFCURVE",
"417 465 OFFCURVE",
"537 465 CURVE SMOOTH",
"599 465 OFFCURVE",
"633 428 OFFCURVE",
"633 371 CURVE SMOOTH",
"633 259 OFFCURVE",
"520 114 OFFCURVE",
"404 114 CURVE SMOOTH"
);
}
);
width = 948;
},
{
layerId = "88AF04C7-891B-4BE3-8AB1-6195D630646B";
paths = (
{
closed = 1;
nodes = (
"441 -116 OFFCURVE",
"527 -92 OFFCURVE",
"612 -47 CURVE",
"597 -14 LINE",
"521 -54 OFFCURVE",
"444 -75 OFFCURVE",
"372 -75 CURVE SMOOTH",
"213 -75 OFFCURVE",
"93 37 OFFCURVE",
"93 186 CURVE SMOOTH",
"93 442 OFFCURVE",
"290 634 OFFCURVE",
"553 634 CURVE SMOOTH",
"710 634 OFFCURVE",
"827 532 OFFCURVE",
"827 397 CURVE SMOOTH",
"827 300 OFFCURVE",
"770 163 OFFCURVE",
"685 163 CURVE SMOOTH",
"660 163 OFFCURVE",
"647 176 OFFCURVE",
"647 198 CURVE SMOOTH",
"647 233 OFFCURVE",
"686 312 OFFCURVE",
"755 484 CURVE",
"602 496 LINE",
"580 444 LINE",
"563 481 OFFCURVE",
"526 509 OFFCURVE",
"465 509 CURVE SMOOTH",
"329 509 OFFCURVE",
"190 356 OFFCURVE",
"190 210 CURVE SMOOTH",
"190 127 OFFCURVE",
"239 73 OFFCURVE",
"326 73 CURVE SMOOTH",
"379 73 OFFCURVE",
"433 99 OFFCURVE",
"479 146 CURVE",
"489 102 OFFCURVE",
"521 71 OFFCURVE",
"593 71 CURVE SMOOTH",
"746 71 OFFCURVE",
"873 236 OFFCURVE",
"873 400 CURVE SMOOTH",
"873 558 OFFCURVE",
"741 676 OFFCURVE",
"564 676 CURVE SMOOTH",
"270 676 OFFCURVE",
"49 463 OFFCURVE",
"49 179 CURVE SMOOTH",
"49 10 OFFCURVE",
"182 -116 OFFCURVE",
"360 -116 CURVE SMOOTH"
);
},
{
closed = 1;
nodes = (
"377 202 OFFCURVE",
"356 221 OFFCURVE",
"356 254 CURVE SMOOTH",
"356 313 OFFCURVE",
"413 380 OFFCURVE",
"478 380 CURVE SMOOTH",
"509 380 OFFCURVE",
"527 361 OFFCURVE",
"527 331 CURVE SMOOTH",
"527 275 OFFCURVE",
"472 202 OFFCURVE",
"411 202 CURVE SMOOTH"
);
}
);
width = 902;
}
);
unicode = 0040;
},
{
color = 1;
glyphname = ampersand;
lastChange = "2018-06-01 03:48:02 +0000";
layers = (
{
layerId = "119329DF-C854-46E0-93EC-7E8A22DFCA4F";
paths = (
{
closed = 1;
nodes = (
"396 -12 OFFCURVE",
"524 130 OFFCURVE",
"644 313 CURVE",
"583 348 LINE",
"489 187 OFFCURVE",
"362 55 OFFCURVE",
"234 55 CURVE SMOOTH",
"168 55 OFFCURVE",
"118 90 OFFCURVE",
"118 152 CURVE SMOOTH",
"118 242 OFFCURVE",
"202 308 OFFCURVE",
"320 347 CURVE SMOOTH",
"447 394 OFFCURVE",
"559 441 OFFCURVE",
"559 562 CURVE SMOOTH",
"559 637 OFFCURVE",
"505 695 OFFCURVE",
"423 695 CURVE SMOOTH",
"313 695 OFFCURVE",
"217 614 OFFCURVE",
"217 498 CURVE SMOOTH",
"217 452 OFFCURVE",
"235 408 OFFCURVE",
"267 358 CURVE SMOOTH",
"328 263 OFFCURVE",
"385 179 OFFCURVE",
"526 -5 CURVE",
"600 24 LINE",
"468 196 OFFCURVE",
"401 282 OFFCURVE",
"333 383 CURVE SMOOTH",
"301 430 OFFCURVE",
"291 471 OFFCURVE",
"291 505 CURVE SMOOTH",
"291 575 OFFCURVE",
"349 628 OFFCURVE",
"420 628 CURVE SMOOTH",
"461 628 OFFCURVE",
"485 600 OFFCURVE",
"485 561 CURVE SMOOTH",
"485 471 OFFCURVE",
"390 435 OFFCURVE",
"277 398 CURVE SMOOTH",
"145 351 OFFCURVE",
"44 274 OFFCURVE",
"44 144 CURVE SMOOTH",
"44 47 OFFCURVE",
"120 -12 OFFCURVE",
"228 -12 CURVE SMOOTH"
);
}
);
width = 706;
},
{
layerId = "84328D8E-4D54-44EF-AF5C-0364B1C28646";
paths = (
{
closed = 1;
nodes = (
"356 -12 OFFCURVE",
"470 81 OFFCURVE",
"632 315 CURVE",
"601 332 LINE",
"448 113 OFFCURVE",
"344 24 OFFCURVE",
"235 24 CURVE SMOOTH",
"149 24 OFFCURVE",
"86 81 OFFCURVE",
"86 154 CURVE SMOOTH",
"86 266 OFFCURVE",
"208 321 OFFCURVE",
"309 358 CURVE SMOOTH",
"426 402 OFFCURVE",
"541 449 OFFCURVE",
"541 566 CURVE SMOOTH",
"541 639 OFFCURVE",
"486 695 OFFCURVE",
"412 695 CURVE SMOOTH",
"319 695 OFFCURVE",
"223 603 OFFCURVE",
"223 509 CURVE SMOOTH",
"223 469 OFFCURVE",
"239 428 OFFCURVE",
"280 363 CURVE SMOOTH",
"338 272 OFFCURVE",
"402 171 OFFCURVE",
"541 -6 CURVE",
"579 9 LINE",
"475 141 OFFCURVE",
"374 279 OFFCURVE",
"309 379 CURVE SMOOTH",
"270 438 OFFCURVE",
"259 476 OFFCURVE",
"259 509 CURVE SMOOTH",
"259 587 OFFCURVE",
"336 659 OFFCURVE",
"409 659 CURVE SMOOTH",
"466 659 OFFCURVE",
"505 614 OFFCURVE",
"505 562 CURVE SMOOTH",
"505 468 OFFCURVE",
"399 432 OFFCURVE",
"281 388 CURVE SMOOTH",
"175 348 OFFCURVE",
"51 284 OFFCURVE",
"51 151 CURVE SMOOTH",
"51 57 OFFCURVE",
"128 -12 OFFCURVE",
"234 -12 CURVE SMOOTH"
);
}
);
width = 691;
},
{
layerId = "88AF04C7-891B-4BE3-8AB1-6195D630646B";
paths = (
{
closed = 1;
nodes = (
"416 -12 OFFCURVE",
"553 101 OFFCURVE",
"701 300 CURVE",
"577 379 LINE",
"500 256 OFFCURVE",
"371 129 OFFCURVE",
"279 129 CURVE SMOOTH",
"248 129 OFFCURVE",
"225 145 OFFCURVE",
"225 175 CURVE SMOOTH",
"225 240 OFFCURVE",
"290 277 OFFCURVE",
"367 304 CURVE SMOOTH",
"526 373 OFFCURVE",
"627 416 OFFCURVE",
"627 537 CURVE SMOOTH",
"627 631 OFFCURVE",
"553 696 OFFCURVE",
"437 696 CURVE SMOOTH",
"315 696 OFFCURVE",
"200 604 OFFCURVE",
"200 476 CURVE SMOOTH",
"200 432 OFFCURVE",
"221 399 OFFCURVE",
"258 334 CURVE SMOOTH",
"297 265 OFFCURVE",
"376 150 OFFCURVE",
"492 -17 CURVE",
"649 40 LINE",
"513 224 OFFCURVE",
"436 325 OFFCURVE",
"395 391 CURVE SMOOTH",
"368 435 OFFCURVE",
"357 457 OFFCURVE",
"357 483 CURVE SMOOTH",
"357 525 OFFCURVE",
"400 567 OFFCURVE",
"439 567 CURVE SMOOTH",
"459 567 OFFCURVE",
"471 556 OFFCURVE",
"471 538 CURVE SMOOTH",
"471 467 OFFCURVE",
"393 447 OFFCURVE",
"291 416 CURVE SMOOTH",
"136 361 OFFCURVE",
"34 305 OFFCURVE",
"34 158 CURVE SMOOTH",
"34 51 OFFCURVE",
"119 -12 OFFCURVE",
"247 -12 CURVE SMOOTH"
);
}
);
width = 739;
}
);
unicode = 0026;
},
{
color = 1;
glyphname = paragraph;
lastChange = "2018-06-01 03:42:25 +0000";
layers = (
{
layerId = "84328D8E-4D54-44EF-AF5C-0364B1C28646";
paths = (
{
closed = 1;
nodes = (
"250 -50 LINE",
"396 651 LINE",
"530 651 LINE",
"384 -50 LINE",
"420 -50 LINE",
"573 687 LINE",
"358 687 LINE",
"221 687 OFFCURVE",
"102 585 OFFCURVE",
"102 456 CURVE SMOOTH",
"102 364 OFFCURVE",
"172 303 OFFCURVE",
"289 303 CURVE",
"214 -50 LINE"
);
}
);
width = 635;
},
{
layerId = "119329DF-C854-46E0-93EC-7E8A22DFCA4F";
paths = (
{
closed = 1;
nodes = (
"290 -50 LINE",
"431 629 LINE",
"548 629 LINE",
"407 -50 LINE",
"469 -50 LINE",
"622 687 LINE",
"366 687 LINE",
"227 687 OFFCURVE",
"107 591 OFFCURVE",
"107 456 CURVE SMOOTH",
"107 361 OFFCURVE",
"181 297 OFFCURVE",
"303 297 CURVE",
"228 -50 LINE"
);
}
);
width = 664;
},
{
layerId = "88AF04C7-891B-4BE3-8AB1-6195D630646B";
paths = (
{
closed = 1;
nodes = (
"367 -50 LINE",
"493 556 LINE",
"616 556 LINE",
"490 -50 LINE",
"627 -50 LINE",
"780 684 LINE",
"364 684 LINE",
"212 684 OFFCURVE",
"93 588 OFFCURVE",
"93 444 CURVE SMOOTH",
"93 340 OFFCURVE",
"171 272 OFFCURVE",
"303 272 CURVE",
"230 -50 LINE"
);
}
);
width = 778;
}
);
unicode = 00B6;
},
{
color = 1;
glyphname = copyright;
lastChange = "2018-06-01 03:39:24 +0000";
layers = (
{
layerId = "84328D8E-4D54-44EF-AF5C-0364B1C28646";
paths = (
{
closed = 1;
nodes = (
"626 -116 OFFCURVE",
"831 54 OFFCURVE",
"877 280 CURVE SMOOTH",
"924 506 OFFCURVE",
"789 675 OFFCURVE",
"563 675 CURVE SMOOTH",
"336 675 OFFCURVE",
"131 506 OFFCURVE",
"84 280 CURVE SMOOTH",
"38 54 OFFCURVE",
"173 -116 OFFCURVE",
"399 -116 CURVE SMOOTH"
);
},
{
closed = 1;
nodes = (
"201 -80 OFFCURVE",
"78 74 OFFCURVE",
"120 280 CURVE SMOOTH",
"162 485 OFFCURVE",
"349 639 OFFCURVE",
"556 639 CURVE SMOOTH",
"761 639 OFFCURVE",
"883 485 OFFCURVE",
"841 280 CURVE SMOOTH",
"799 74 OFFCURVE",
"613 -80 OFFCURVE",
"406 -80 CURVE SMOOTH"
);
},
{
closed = 1;
nodes = (
"487 9 OFFCURVE",
"566 40 OFFCURVE",
"618 84 CURVE",
"596 111 LINE",
"550 72 OFFCURVE",
"480 45 OFFCURVE",
"429 45 CURVE SMOOTH",
"325 45 OFFCURVE",
"252 117 OFFCURVE",
"252 219 CURVE SMOOTH",
"252 379 OFFCURVE",
"380 514 OFFCURVE",
"532 514 CURVE SMOOTH",
"583 514 OFFCURVE",
"639 487 OFFCURVE",
"668 450 CURVE",
"697 473 LINE",
"661 518 OFFCURVE",
"594 550 OFFCURVE",
"534 550 CURVE SMOOTH",
"361 550 OFFCURVE",
"216 397 OFFCURVE",
"216 216 CURVE SMOOTH",
"216 95 OFFCURVE",
"303 9 OFFCURVE",
"427 9 CURVE SMOOTH"
);
}
);
width = 953;
},
{
layerId = "119329DF-C854-46E0-93EC-7E8A22DFCA4F";
paths = (
{
closed = 1;
nodes = (
"622 -116 OFFCURVE",
"827 54 OFFCURVE",
"873 280 CURVE SMOOTH",
"920 506 OFFCURVE",
"785 675 OFFCURVE",
"559 675 CURVE SMOOTH",
"332 675 OFFCURVE",
"127 506 OFFCURVE",
"80 280 CURVE SMOOTH",
"34 54 OFFCURVE",
"169 -116 OFFCURVE",
"395 -116 CURVE SMOOTH"
);
},
{
closed = 1;
nodes = (
"197 -80 OFFCURVE",
"74 74 OFFCURVE",
"116 280 CURVE SMOOTH",
"158 485 OFFCURVE",
"345 639 OFFCURVE",
"552 639 CURVE SMOOTH",
"757 639 OFFCURVE",
"879 485 OFFCURVE",
"837 280 CURVE SMOOTH",
"795 74 OFFCURVE",
"609 -80 OFFCURVE",
"402 -80 CURVE SMOOTH"
);
},
{
closed = 1;
nodes = (
"501 9 OFFCURVE",
"569 34 OFFCURVE",
"631 86 CURVE",
"586 141 LINE",
"539 97 OFFCURVE",
"490 76 OFFCURVE",
"438 76 CURVE SMOOTH",
"357 76 OFFCURVE",
"288 148 OFFCURVE",
"288 234 CURVE SMOOTH",
"288 369 OFFCURVE",
"395 483 OFFCURVE",
"523 483 CURVE SMOOTH",
"571 483 OFFCURVE",
"622 459 OFFCURVE",
"646 425 CURVE",
"705 472 LINE",
"666 518 OFFCURVE",
"597 550 OFFCURVE",
"537 550 CURVE SMOOTH",
"359 550 OFFCURVE",
"210 403 OFFCURVE",
"210 229 CURVE SMOOTH",
"210 110 OFFCURVE",
"308 9 OFFCURVE",
"425 9 CURVE SMOOTH"
);
}
);
width = 945;
},
{
layerId = "88AF04C7-891B-4BE3-8AB1-6195D630646B";
paths = (
{
closed = 1;
nodes = (
"600 -116 OFFCURVE",
"805 54 OFFCURVE",
"851 280 CURVE SMOOTH",
"898 506 OFFCURVE",
"763 675 OFFCURVE",
"537 675 CURVE SMOOTH",
"309 675 OFFCURVE",
"104 506 OFFCURVE",
"58 280 CURVE SMOOTH",
"12 54 OFFCURVE",
"147 -116 OFFCURVE",
"373 -116 CURVE SMOOTH"
);
},
{
closed = 1;
nodes = (
"181 -73 OFFCURVE",
"61 78 OFFCURVE",
"102 280 CURVE SMOOTH",
"143 481 OFFCURVE",
"326 632 OFFCURVE",
"528 632 CURVE SMOOTH",
"728 632 OFFCURVE",
"848 481 OFFCURVE",
"807 280 CURVE SMOOTH",
"766 78 OFFCURVE",
"584 -73 OFFCURVE",
"382 -73 CURVE SMOOTH"
);
},
{
closed = 1;
nodes = (
"510 9 OFFCURVE",
"588 42 OFFCURVE",
"652 102 CURVE",
"539 216 LINE",
"515 192 OFFCURVE",
"470 169 OFFCURVE",
"431 169 CURVE SMOOTH",
"385 169 OFFCURVE",
"353 202 OFFCURVE",
"353 246 CURVE SMOOTH",
"353 314 OFFCURVE",
"426 390 OFFCURVE",
"501 390 CURVE SMOOTH",
"527 390 OFFCURVE",
"560 379 OFFCURVE",
"575 356 CURVE",
"715 448 LINE",
"675 506 OFFCURVE",
"609 550 OFFCURVE",
"511 550 CURVE SMOOTH",
"344 550 OFFCURVE",
"172 412 OFFCURVE",
"172 243 CURVE SMOOTH",
"172 112 OFFCURVE",
"276 9 OFFCURVE",
"420 9 CURVE SMOOTH"
);
}
);
width = 901;
}
);
unicode = 00A9;
},
